NotoSerifTamil-Medium.ufo
<glyph name="exclam" format="2">
  <advance width="346.51724137931035"/>
  <unicode hex="0021"/>
  <outline>
    <contour>
      <point x="148.51724137931035" y="208.44827586206895" type="line"/>
      <point x="197.27586206896552" y="208.44827586206895" type="line"/>
      <point x="238.89655172413794" y="714.0" type="line"/>
      <point x="106.89655172413794" y="714.0" type="line"/>
    </contour>
    <contour>
      <point x="173.17241379310346" y="-7.275862068965517" type="curve" smooth="yes"/>
      <point x="209.93103448275863" y="-7.275862068965517"/>
      <point x="241.41379310344828" y="10.551724137931034"/>
      <point x="241.41379310344828" y="64.0344827586207" type="curve" smooth="yes"/>
      <point x="241.41379310344828" y="118.51724137931035"/>
      <point x="209.93103448275863" y="135.3448275862069"/>
      <point x="173.17241379310346" y="135.3448275862069" type="curve" smooth="yes"/>
      <point x="135.13793103448276" y="135.3448275862069"/>
      <point x="104.93103448275862" y="118.51724137931035"/>
      <point x="104.93103448275862" y="64.0344827586207" type="curve" smooth="yes"/>
      <point x="104.93103448275862" y="10.551724137931034"/>
      <point x="135.13793103448276" y="-7.275862068965517"/>
    </contour>
  </outline>
</glyph>
<glyph name="quotedbl" format="2">
  <advance width="435.58620689655174"/>
  <unicode hex="0022"/>
  <outline>
    <contour>
      <point x="292.9310344827586" y="467.9655172413793" type="line"/>
      <point x="344.44827586206895" y="467.9655172413793" type="line"/>
      <point x="375.82758620689657" y="714.0" type="line"/>
      <point x="256.0344827586207" y="714.0" type="line"/>
    </contour>
    <contour>
      <point x="93.89655172413794" y="467.9655172413793" type="line"/>
      <point x="145.41379310344828" y="467.9655172413793" type="line"/>
      <point x="179.55172413793105" y="714.0" type="line"/>
      <point x="59.758620689655174" y="714.0" type="line"/>
    </contour>
  </outline>
</glyph>
<glyph name="numbersign" format="2">
  <advance width="559.0"/>
  <unicode hex="0023"/>
  <outline>
    <contour>
      <point x="82.0344827586207" y="0.0" type="line"/>
      <point x="145.0689655172414" y="0.0" type="line"/>
      <point x="183.0689655172414" y="202.17241379310346" type="line"/>
      <point x="312.41379310344826" y="202.17241379310346" type="line"/>
      <point x="274.6896551724138" y="0.0" type="line"/>
      <point x="337.7241379310345" y="0.0" type="line"/>
      <point x="375.44827586206895" y="202.17241379310346" type="line"/>
      <point x="501.17241379310343" y="202.17241379310346" type="line"/>
      <point x="501.17241379310343" y="263.9310344827586" type="line"/>
      <point x="388.0" y="263.9310344827586" type="line"/>
      <point x="424.17241379310343" y="455.7931034482759" type="line"/>
      <point x="533.1724137931035" y="455.7931034482759" type="line"/>
      <point x="533.1724137931035" y="517.8275862068965" type="line"/>
      <point x="435.7241379310345" y="517.8275862068965" type="line"/>
      <point x="472.7241379310345" y="714.0" type="line"/>
      <point x="409.6896551724138" y="714.0" type="line"/>
      <point x="372.6896551724138" y="517.8275862068965" type="line"/>
      <point x="243.3448275862069" y="517.8275862068965" type="line"/>
      <point x="280.0689655172414" y="714.0" type="line"/>
      <point x="216.0344827586207" y="714.0" type="line"/>
      <point x="180.31034482758622" y="517.8275862068965" type="line"/>
      <point x="57.827586206896555" y="517.8275862068965" type="line"/>
      <point x="57.827586206896555" y="455.7931034482759" type="line"/>
      <point x="168.75862068965517" y="455.7931034482759" type="line"/>
      <point x="131.58620689655172" y="263.9310344827586" type="line"/>
      <point x="25.82758620689655" y="263.9310344827586" type="line"/>
      <point x="25.82758620689655" y="202.17241379310346" type="line"/>
      <point x="120.0344827586207" y="202.17241379310346" type="line"/>
    </contour>
    <contour>
      <point x="195.3448275862069" y="263.9310344827586" type="line"/>
      <point x="231.79310344827587" y="455.7931034482759" type="line"/>
      <point x="361.41379310344826" y="455.7931034482759" type="line"/>
      <point x="324.9655172413793" y="263.9310344827586" type="line"/>
    </contour>
  </outline>
</glyph>
<glyph name="percent" format="2">
  <advance width="898.7586206896551"/>
  <unicode hex="0025"/>
  <outline>
    <contour>
      <point x="236.3793103448276" y="0.0" type="line"/>
      <point x="305.6896551724138" y="0.0" type="line"/>
      <point x="658.3793103448276" y="714.0" type="line"/>
      <point x="590.0689655172414" y="714.0" type="line"/>
    </contour>
    <contour>
      <point x="210.3793103448276" y="280.0" type="curve" smooth="yes"/>
      <point x="323.41379310344826" y="280.0"/>
      <point x="378.7931034482759" y="369.0"/>
      <point x="378.7931034482759" y="503.0" type="curve"/>
      <point x="378.7931034482759" y="637.0"/>
      <point x="323.41379310344826" y="724.0"/>
      <point x="211.3793103448276" y="724.0" type="curve" smooth="yes"/>
      <point x="92.06896551724138" y="724.0"/>
      <point x="41.96551724137931" y="637.0"/>
      <point x="41.96551724137931" y="503.0" type="curve" smooth="yes"/>
      <point x="41.96551724137931" y="369.0"/>
      <point x="92.06896551724138" y="280.0"/>
    </contour>
    <contour>
      <point x="210.3793103448276" y="323.48275862068965" type="curve" smooth="yes"/>
      <point x="157.75862068965517" y="323.48275862068965"/>
      <point x="138.31034482758622" y="389.6551724137931"/>
      <point x="138.31034482758622" y="503.0" type="curve"/>
      <point x="138.31034482758622" y="614.3448275862069"/>
      <point x="157.75862068965517" y="679.5172413793103"/>
      <point x="211.3793103448276" y="679.5172413793103" type="curve" smooth="yes"/>
      <point x="264.0" y="679.5172413793103"/>
      <point x="281.44827586206895" y="614.3448275862069"/>
      <point x="281.44827586206895" y="503.0" type="curve" smooth="yes"/>
      <point x="281.44827586206895" y="389.6551724137931"/>
      <point x="264.0" y="323.48275862068965"/>
    </contour>
    <contour>
      <point x="688.3793103448276" y="-10.0" type="curve" smooth="yes"/>
      <point x="801.4137931034483" y="-10.0"/>
      <point x="856.7931034482758" y="79.0"/>
      <point x="856.7931034482758" y="213.0" type="curve" smooth="yes"/>
      <point x="856.7931034482758" y="347.0"/>
      <point x="801.4137931034483" y="434.0"/>
      <point x="689.3793103448276" y="434.0" type="curve" smooth="yes"/>
      <point x="570.0689655172414" y="434.0"/>
      <point x="519.9655172413793" y="347.0"/>
      <point x="519.9655172413793" y="213.0" type="curve" smooth="yes"/>
      <point x="519.9655172413793" y="79.0"/>
      <point x="570.0689655172414" y="-10.0"/>
    </contour>
    <contour>
      <point x="688.3793103448276" y="33.48275862068966" type="curve" smooth="yes"/>
      <point x="635.7586206896551" y="33.48275862068966"/>
      <point x="616.3103448275862" y="99.65517241379311"/>
      <point x="616.3103448275862" y="213.0" type="curve" smooth="yes"/>
      <point x="616.3103448275862" y="324.3448275862069"/>
      <point x="635.7586206896551" y="389.51724137931035"/>
      <point x="689.3793103448276" y="389.51724137931035" type="curve" smooth="yes"/>
      <point x="742.0" y="389.51724137931035"/>
      <point x="759.448275862069" y="324.3448275862069"/>
      <point x="759.448275862069" y="213.0" type="curve" smooth="yes"/>
      <point x="759.448275862069" y="99.65517241379311"/>
      <point x="742.0" y="33.48275862068966"/>
    </contour>
  </outline>
</glyph>
<glyph name="quotesingle" format="2">
  <advance width="239.31034482758622"/>
  <unicode hex="0027"/>
  <outline>
    <contour>
      <point x="93.89655172413794" y="467.9655172413793" type="line"/>
      <point x="145.41379310344828" y="467.9655172413793" type="line"/>
      <point x="179.55172413793105" y="714.0" type="line"/>
      <point x="59.758620689655174" y="714.0" type="line"/>
    </contour>
  </outline>
</glyph>
<glyph name="parenleft" format="2">
  <advance width="360.8965517241379"/>
  <unicode hex="0028"/>
  <outline>
    <contour>
      <point x="328.8965517241379" y="-131.0344827586207" type="curve"/>
      <point x="328.8965517241379" y="-80.06896551724138" type="line"/>
      <point x="195.48275862068965" y="2.6551724137931036"/>
      <point x="176.72413793103448" y="158.27586206896552"/>
      <point x="176.72413793103448" y="317.2758620689655" type="curve" smooth="yes"/>
      <point x="176.72413793103448" y="476.0"/>
      <point x="195.48275862068965" y="630.6206896551724"/>
      <point x="328.8965517241379" y="713.3448275862069" type="curve"/>
      <point x="328.8965517241379" y="763.3103448275862" type="line"/>
      <point x="134.13793103448276" y="685.8965517241379"/>
      <point x="57.0" y="550.3793103448276"/>
      <point x="57.0" y="317.2758620689655" type="curve" smooth="yes"/>
      <point x="57.0" y="83.17241379310344"/>
      <point x="134.13793103448276" y="-53.62068965517241"/>
    </contour>
  </outline>
</glyph>
<glyph name="parenright" format="2">
  <advance width="360.8965517241379"/>
  <unicode hex="0029"/>
  <outline>
    <contour>
      <point x="32.0" y="-131.0344827586207" type="line"/>
      <point x="226.75862068965517" y="-53.62068965517241"/>
      <point x="303.8965517241379" y="83.17241379310344"/>
      <point x="303.8965517241379" y="317.2758620689655" type="curve" smooth="yes"/>
      <point x="303.8965517241379" y="550.3793103448276"/>
      <point x="226.75862068965517" y="685.8965517241379"/>
      <point x="32.0" y="763.3103448275862" type="curve"/>
      <point x="32.0" y="713.3448275862069" type="line"/>
      <point x="165.41379310344828" y="630.6206896551724"/>
      <point x="184.17241379310346" y="476.0"/>
      <point x="184.17241379310346" y="317.2758620689655" type="curve" smooth="yes"/>
      <point x="184.17241379310346" y="158.27586206896552"/>
      <point x="165.41379310344828" y="2.6551724137931036"/>
      <point x="32.0" y="-80.06896551724138" type="curve"/>
    </contour>
  </outline>
</glyph>
<glyph name="asterisk" format="2">
  <advance width="500.55172413793105"/>
  <unicode hex="002A"/>
  <outline>
    <contour>
      <point x="201.79310344827587" y="374.9655172413793" type="line"/>
      <point x="295.41379310344826" y="374.9655172413793" type="line"/>
      <point x="265.48275862068965" y="534.0689655172414" type="line"/>
      <point x="419.1034482758621" y="438.0344827586207" type="line"/>
      <point x="456.86206896551727" y="521.1034482758621" type="line"/>
      <point x="291.44827586206895" y="567.6206896551724" type="line"/>
      <point x="456.86206896551727" y="613.8620689655172" type="line"/>
      <point x="419.1034482758621" y="697.9310344827586" type="line"/>
      <point x="265.48275862068965" y="601.1724137931035" type="line"/>
      <point x="295.6896551724138" y="760.0" type="line"/>
      <point x="201.79310344827587" y="760.0" type="line"/>
      <point x="229.72413793103448" y="599.8965517241379" type="line"/>
      <point x="77.10344827586206" y="699.9310344827586" type="line"/>
      <point x="39.3448275862069" y="614.8620689655172" type="line"/>
      <point x="204.0344827586207" y="567.6206896551724" type="line"/>
      <point x="39.3448275862069" y="520.1034482758621" type="line"/>
      <point x="77.10344827586206" y="436.3103448275862" type="line"/>
      <point x="228.72413793103448" y="534.3448275862069" type="line"/>
    </contour>
  </outline>
</glyph>
<glyph name="plus" format="2">
  <advance width="559.0"/>
  <unicode hex="002B"/>
  <outline>
    <contour>
      <point x="247.3448275862069" y="143.0" type="line"/>
      <point x="310.6551724137931" y="143.0" type="line"/>
      <point x="310.6551724137931" y="326.3448275862069" type="line"/>
      <point x="494.0" y="326.3448275862069" type="line"/>
      <point x="494.0" y="388.6551724137931" type="line"/>
      <point x="310.6551724137931" y="388.6551724137931" type="line"/>
      <point x="310.6551724137931" y="572.0" type="line"/>
      <point x="247.3448275862069" y="572.0" type="line"/>
      <point x="247.3448275862069" y="388.6551724137931" type="line"/>
      <point x="65.0" y="388.6551724137931" type="line"/>
      <point x="65.0" y="326.3448275862069" type="line"/>
      <point x="247.3448275862069" y="326.3448275862069" type="line"/>
    </contour>
  </outline>
</glyph>
<glyph name="comma" format="2">
  <advance width="262.1379310344828"/>
  <unicode hex="002C"/>
  <outline>
    <contour>
      <point x="34.13793103448276" y="-154.0" type="line"/>
      <point x="156.17241379310346" y="-119.0"/>
      <point x="202.27586206896552" y="-43.0"/>
      <point x="202.27586206896552" y="42.0" type="curve" smooth="yes"/>
      <point x="202.27586206896552" y="101.3103448275862"/>
      <point x="166.27586206896552" y="135.3448275862069"/>
      <point x="121.13793103448276" y="135.3448275862069" type="curve" smooth="yes"/>
      <point x="83.0344827586207" y="135.3448275862069"/>
      <point x="54.206896551724135" y="113.51724137931035"/>
      <point x="54.206896551724135" y="73.58620689655173" type="curve" smooth="yes"/>
      <point x="54.206896551724135" y="7.344827586206897"/>
      <point x="127.20689655172414" y="16.896551724137932"/>
      <point x="127.20689655172414" y="-22.551724137931036" type="curve" smooth="yes"/>
      <point x="127.20689655172414" y="-61.55172413793103"/>
      <point x="97.20689655172414" y="-88.24137931034483"/>
      <point x="34.13793103448276" y="-109.24137931034483" type="curve"/>
    </contour>
  </outline>
</glyph>
<glyph name="hyphen" format="2">
  <advance width="310.0"/>
  <unicode hex="002D"/>
  <outline>
    <contour>
      <point x="25.0" y="230.86206896551724" type="line"/>
      <point x="285.0" y="230.86206896551724" type="line"/>
      <point x="285.0" y="314.13793103448273" type="line"/>
      <point x="25.0" y="314.13793103448273" type="line"/>
    </contour>
  </outline>
</glyph>
<glyph name="period" format="2">
  <advance width="262.1379310344828"/>
  <unicode hex="002E"/>
  <outline>
    <contour>
      <point x="131.0689655172414" y="-7.275862068965517" type="curve" smooth="yes"/>
      <point x="167.82758620689654" y="-7.275862068965517"/>
      <point x="199.31034482758622" y="10.551724137931034"/>
      <point x="199.31034482758622" y="64.0344827586207" type="curve" smooth="yes"/>
      <point x="199.31034482758622" y="118.51724137931035"/>
      <point x="167.82758620689654" y="135.3448275862069"/>
      <point x="131.0689655172414" y="135.3448275862069" type="curve" smooth="yes"/>
      <point x="93.0344827586207" y="135.3448275862069"/>
      <point x="62.827586206896555" y="118.51724137931035"/>
      <point x="62.827586206896555" y="64.0344827586207" type="curve" smooth="yes"/>
      <point x="62.827586206896555" y="10.551724137931034"/>
      <point x="93.0344827586207" y="-7.275862068965517"/>
    </contour>
  </outline>
</glyph>
<glyph name="slash" format="2">
  <advance width="288.0"/>
  <unicode hex="002F"/>
  <outline>
    <contour>
      <point x="0.0" y="-121.0" type="line"/>
      <point x="62.58620689655172" y="-121.0" type="line"/>
      <point x="288.0" y="760.0" type="line"/>
      <point x="226.68965517241378" y="760.0" type="line"/>
    </contour>
  </outline>
</glyph>
<glyph name="zero" format="2">
  <advance width="559.0"/>
  <unicode hex="0030"/>
  <outline>
    <contour>
      <point x="280.0" y="-10.0" type="curve" smooth="yes"/>
      <point x="441.6896551724138" y="-10.0"/>
      <point x="517.0344827586207" y="137.0"/>
      <point x="517.0344827586207" y="358.0" type="curve" smooth="yes"/>
      <point x="517.0344827586207" y="580.0"/>
      <point x="441.6896551724138" y="724.0"/>
      <point x="281.0" y="724.0" type="curve" smooth="yes"/>
      <point x="110.03448275862068" y="724.0"/>
      <point x="41.96551724137931" y="580.0"/>
      <point x="41.96551724137931" y="359.0" type="curve" smooth="yes"/>
      <point x="41.96551724137931" y="137.0"/>
      <point x="110.03448275862068" y="-10.0"/>
    </contour>
    <contour>
      <point x="280.0" y="47.03448275862069" type="curve" smooth="yes"/>
      <point x="189.3448275862069" y="47.03448275862069"/>
      <point x="160.0344827586207" y="161.93103448275863"/>
      <point x="160.0344827586207" y="358.0" type="curve" smooth="yes"/>
      <point x="160.0344827586207" y="554.0689655172414"/>
      <point x="189.3448275862069" y="666.9655172413793"/>
      <point x="281.0" y="666.9655172413793" type="curve" smooth="yes"/>
      <point x="370.6551724137931" y="666.9655172413793"/>
      <point x="398.9655172413793" y="554.0689655172414"/>
      <point x="398.9655172413793" y="358.0" type="curve" smooth="yes"/>
      <point x="398.9655172413793" y="161.93103448275863"/>
      <point x="370.6551724137931" y="47.03448275862069"/>
    </contour>
  </outline>
</glyph>
<glyph name="one" format="2">
  <advance width="559.0"/>
  <unicode hex="0031"/>
  <outline>
    <contour>
      <point x="96.27586206896552" y="0.0" type="line"/>
      <point x="486.1034482758621" y="0.0" type="line"/>
      <point x="486.1034482758621" y="45.03448275862069" type="line"/>
      <point x="428.2758620689655" y="45.03448275862069" type="line" smooth="yes"/>
      <point x="384.1034482758621" y="45.03448275862069"/>
      <point x="354.82758620689657" y="57.896551724137936"/>
      <point x="354.82758620689657" y="115.10344827586206" type="curve" smooth="yes"/>
      <point x="354.82758620689657" y="718.0" type="line"/>
      <point x="277.58620689655174" y="718.0" type="line"/>
      <point x="207.58620689655172" y="666.0" type="line" smooth="yes"/>
      <point x="141.58620689655172" y="617.0"/>
      <point x="99.37931034482759" y="599.0"/>
      <point x="59.37931034482759" y="589.0" type="curve"/>
      <point x="59.37931034482759" y="553.4137931034483"/>
      <point x="81.75862068965517" y="529.4827586206897"/>
      <point x="111.58620689655173" y="529.4827586206897" type="curve" smooth="yes"/>
      <point x="151.58620689655172" y="529.4827586206897"/>
      <point x="189.58620689655172" y="571.4827586206897"/>
      <point x="240.58620689655172" y="633.4827586206897" type="curve"/>
      <point x="240.58620689655172" y="115.10344827586206" type="line" smooth="yes"/>
      <point x="240.58620689655172" y="55.689655172413794"/>
      <point x="209.3793103448276" y="45.03448275862069"/>
      <point x="167.41379310344828" y="45.03448275862069" type="curve" smooth="yes"/>
      <point x="96.27586206896552" y="45.03448275862069" type="line"/>
    </contour>
  </outline>
</glyph>
<glyph name="two" format="2">
  <advance width="559.0"/>
  <unicode hex="0032"/>
  <outline>
    <contour>
      <point x="46.58620689655172" y="0.0" type="line"/>
      <point x="488.44827586206895" y="0.0" type="line"/>
      <point x="493.44827586206895" y="183.20689655172413" type="line"/>
      <point x="446.7586206896552" y="183.20689655172413" type="line"/>
      <point x="441.6551724137931" y="161.6206896551724" type="line" smooth="yes"/>
      <point x="431.82758620689657" y="121.24137931034483"/>
      <point x="412.6896551724138" y="88.27586206896552"/>
      <point x="357.9310344827586" y="88.27586206896552" type="curve" smooth="yes"/>
      <point x="126.37931034482759" y="88.27586206896552" type="line"/>
      <point x="276.3448275862069" y="249.89655172413794" type="line" smooth="yes"/>
      <point x="407.55172413793105" y="386.3103448275862"/>
      <point x="468.44827586206895" y="464.2758620689655"/>
      <point x="468.44827586206895" y="557.2758620689655" type="curve" smooth="yes"/>
      <point x="468.44827586206895" y="658.8275862068965"/>
      <point x="390.62068965517244" y="724.0"/>
      <point x="258.2758620689655" y="724.0" type="curve" smooth="yes"/>
      <point x="124.58620689655173" y="724.0"/>
      <point x="55.6551724137931" y="665.3448275862069"/>
      <point x="55.6551724137931" y="589.7241379310345" type="curve" smooth="yes"/>
      <point x="55.6551724137931" y="532.9310344827586"/>
      <point x="97.51724137931035" y="515.3448275862069"/>
      <point x="153.24137931034483" y="515.3448275862069" type="curve"/>
      <point x="153.24137931034483" y="604.0"/>
      <point x="173.6206896551724" y="670.9655172413793"/>
      <point x="258.2758620689655" y="670.9655172413793" type="curve" smooth="yes"/>
      <point x="322.2068965517241" y="670.9655172413793"/>
      <point x="353.6551724137931" y="624.6551724137931"/>
      <point x="353.6551724137931" y="548.6551724137931" type="curve" smooth="yes"/>
      <point x="353.6551724137931" y="453.62068965517244"/>
      <point x="319.0344827586207" y="386.51724137931035"/>
      <point x="208.3448275862069" y="262.6896551724138" type="curve" smooth="yes"/>
      <point x="46.58620689655172" y="81.27586206896552" type="line"/>
    </contour>
  </outline>
</glyph>
<glyph name="three" format="2">
  <advance width="559.0"/>
  <unicode hex="0033"/>
  <outline>
    <contour>
      <point x="245.89655172413794" y="-10.0" type="curve" smooth="yes"/>
      <point x="367.2413793103448" y="-10.0"/>
      <point x="504.3103448275862" y="43.0"/>
      <point x="504.3103448275862" y="204.55172413793105" type="curve" smooth="yes"/>
      <point x="504.3103448275862" y="331.86206896551727"/>
      <point x="396.8965517241379" y="371.0689655172414"/>
      <point x="321.2413793103448" y="381.0" type="curve"/>
      <point x="411.86206896551727" y="404.9310344827586"/>
      <point x="479.3103448275862" y="473.8965517241379"/>
      <point x="479.3103448275862" y="563.8965517241379" type="curve" smooth="yes"/>
      <point x="479.3103448275862" y="665.7241379310345"/>
      <point x="393.9310344827586" y="724.0"/>
      <point x="263.51724137931035" y="724.0" type="curve" smooth="yes"/>
      <point x="129.82758620689654" y="724.0"/>
      <point x="60.62068965517241" y="667.2758620689655"/>
      <point x="60.62068965517241" y="591.9310344827586" type="curve" smooth="yes"/>
      <point x="60.62068965517241" y="538.1724137931035"/>
      <point x="101.10344827586206" y="520.3103448275862"/>
      <point x="158.75862068965517" y="520.3103448275862" type="curve"/>
      <point x="158.75862068965517" y="599.0344827586207"/>
      <point x="176.3793103448276" y="670.9655172413793"/>
      <point x="262.13793103448273" y="670.9655172413793" type="curve" smooth="yes"/>
      <point x="332.7931034482759" y="670.9655172413793"/>
      <point x="362.51724137931035" y="625.5172413793103"/>
      <point x="362.51724137931035" y="549.1724137931035" type="curve" smooth="yes"/>
      <point x="362.51724137931035" y="456.1034482758621"/>
      <point x="301.2413793103448" y="396.37931034482756"/>
      <point x="213.79310344827587" y="396.37931034482756" type="curve"/>
      <point x="172.41379310344828" y="396.37931034482756" type="line"/>
      <point x="172.41379310344828" y="342.3448275862069" type="line"/>
      <point x="212.68965517241378" y="342.3448275862069" type="line" smooth="yes"/>
      <point x="321.37931034482756" y="342.3448275862069"/>
      <point x="386.51724137931035" y="287.3448275862069"/>
      <point x="386.51724137931035" y="205.55172413793105" type="curve" smooth="yes"/>
      <point x="386.51724137931035" y="86.93103448275862"/>
      <point x="319.82758620689657" y="48.41379310344828"/>
      <point x="244.68965517241378" y="48.41379310344828" type="curve" smooth="yes"/>
      <point x="165.89655172413794" y="48.41379310344828"/>
      <point x="118.79310344827586" y="97.20689655172414"/>
      <point x="118.79310344827586" y="171.3448275862069" type="curve"/>
      <point x="78.58620689655173" y="171.3448275862069"/>
      <point x="49.72413793103448" y="146.51724137931035"/>
      <point x="49.72413793103448" y="103.48275862068965" type="curve" smooth="yes"/>
      <point x="49.72413793103448" y="43.37931034482759"/>
      <point x="108.6551724137931" y="-10.0"/>
    </contour>
  </outline>
</glyph>
<glyph name="four" format="2">
  <advance width="559.0"/>
  <unicode hex="0034"/>
  <outline>
    <contour>
      <point x="205.3448275862069" y="0.0" type="line"/>
      <point x="520.1379310344828" y="0.0" type="line"/>
      <point x="520.1379310344828" y="45.03448275862069" type="line"/>
      <point x="507.13793103448273" y="45.03448275862069" type="line" smooth="yes"/>
      <point x="462.13793103448273" y="45.03448275862069"/>
      <point x="425.13793103448273" y="54.03448275862069"/>
      <point x="425.13793103448273" y="117.0344827586207" type="curve" smooth="yes"/>
      <point x="425.13793103448273" y="193.24137931034483" type="line"/>
      <point x="543.6206896551724" y="193.24137931034483" type="line"/>
      <point x="543.6206896551724" y="252.0" type="line"/>
      <point x="425.13793103448273" y="252.0" type="line"/>
      <point x="425.13793103448273" y="714.0" type="line"/>
      <point x="318.0" y="714.0" type="line"/>
      <point x="15.89655172413793" y="239.75862068965517" type="line"/>
      <point x="15.89655172413793" y="193.24137931034483" type="line"/>
      <point x="315.3448275862069" y="193.24137931034483" type="line"/>
      <point x="315.3448275862069" y="117.0344827586207" type="line" smooth="yes"/>
      <point x="315.3448275862069" y="54.03448275862069"/>
      <point x="278.3448275862069" y="45.03448275862069"/>
      <point x="233.3448275862069" y="45.03448275862069" type="curve" smooth="yes"/>
      <point x="205.3448275862069" y="45.03448275862069" type="line"/>
    </contour>
    <contour>
      <point x="87.34482758620689" y="252.0" type="line"/>
      <point x="235.3793103448276" y="485.86206896551727" type="line" smooth="yes"/>
      <point x="256.17241379310343" y="518.8275862068965"/>
      <point x="309.3448275862069" y="609.0"/>
      <point x="322.3448275862069" y="637.1034482758621" type="curve"/>
      <point x="317.3448275862069" y="575.1034482758621"/>
      <point x="315.3448275862069" y="492.2413793103448"/>
      <point x="315.3448275862069" y="434.2413793103448" type="curve" smooth="yes"/>
      <point x="315.3448275862069" y="252.0" type="line"/>
    </contour>
  </outline>
</glyph>
<glyph name="five" format="2">
  <advance width="559.0"/>
  <unicode hex="0035"/>
  <outline>
    <contour>
      <point x="244.27586206896552" y="-10.0" type="curve" smooth="yes"/>
      <point x="388.44827586206895" y="-10.0"/>
      <point x="491.51724137931035" y="72.34482758620689"/>
      <point x="491.51724137931035" y="218.55172413793105" type="curve" smooth="yes"/>
      <point x="491.51724137931035" y="360.1034482758621"/>
      <point x="391.9655172413793" y="430.37931034482756"/>
      <point x="255.79310344827587" y="430.37931034482756" type="curve" smooth="yes"/>
      <point x="201.75862068965517" y="430.37931034482756"/>
      <point x="161.0" y="421.9310344827586"/>
      <point x="140.72413793103448" y="414.6551724137931" type="curve"/>
      <point x="158.89655172413794" y="625.0" type="line"/>
      <point x="356.7586206896552" y="625.0" type="line" smooth="yes"/>
      <point x="396.0" y="625.0"/>
      <point x="404.0" y="611.7241379310345"/>
      <point x="408.55172413793105" y="584.8275862068965" type="curve" smooth="yes"/>
      <point x="413.6551724137931" y="553.7241379310345" type="line"/>
      <point x="459.7931034482759" y="553.7241379310345" type="line"/>
      <point x="454.7931034482759" y="713.2758620689655" type="line"/>
      <point x="108.6551724137931" y="713.2758620689655" type="line"/>
      <point x="76.6551724137931" y="361.48275862068965" type="line"/>
      <point x="106.72413793103448" y="351.44827586206895" type="line"/>
      <point x="133.10344827586206" y="361.8965517241379"/>
      <point x="162.3793103448276" y="372.3448275862069"/>
      <point x="226.41379310344828" y="372.3448275862069" type="curve" smooth="yes"/>
      <point x="316.7586206896552" y="372.3448275862069"/>
      <point x="374.0" y="322.17241379310343"/>
      <point x="374.0" y="218.55172413793105" type="curve" smooth="yes"/>
      <point x="374.0" y="92.65517241379311"/>
      <point x="314.1034482758621" y="52.03448275862069"/>
      <point x="236.51724137931035" y="52.03448275862069" type="curve" smooth="yes"/>
      <point x="155.24137931034483" y="52.03448275862069"/>
      <point x="118.55172413793103" y="101.27586206896552"/>
      <point x="118.55172413793103" y="158.27586206896552" type="curve"/>
      <point x="74.17241379310344" y="158.27586206896552"/>
      <point x="50.86206896551724" y="136.0"/>
      <point x="50.86206896551724" y="96.51724137931035" type="curve" smooth="yes"/>
      <point x="50.86206896551724" y="46.827586206896555"/>
      <point x="95.72413793103448" y="-10.0"/>
    </contour>
  </outline>
</glyph>
<glyph name="six" format="2">
  <advance width="559.0"/>
  <unicode hex="0036"/>
  <outline>
    <contour>
      <point x="293.0" y="-10.0" type="curve" smooth="yes"/>
      <point x="433.41379310344826" y="-10.0"/>
      <point x="512.4137931034483" y="88.0"/>
      <point x="512.4137931034483" y="229.55172413793105" type="curve" smooth="yes"/>
      <point x="512.4137931034483" y="358.1034482758621"/>
      <point x="433.41379310344826" y="435.1034482758621"/>
      <point x="311.6896551724138" y="435.1034482758621" type="curve" smooth="yes"/>
      <point x="245.86206896551724" y="435.1034482758621"/>
      <point x="201.41379310344828" y="411.7586206896552"/>
      <point x="170.0689655172414" y="387.2413793103448" type="curve"/>
      <point x="177.3448275862069" y="573.6206896551724"/>
      <point x="227.51724137931035" y="672.9655172413793"/>
      <point x="321.7241379310345" y="672.9655172413793" type="curve" smooth="yes"/>
      <point x="382.6896551724138" y="672.9655172413793"/>
      <point x="403.6551724137931" y="616.2758620689655"/>
      <point x="403.6551724137931" y="552.6551724137931" type="curve"/>
      <point x="464.13793103448273" y="552.6551724137931"/>
      <point x="492.51724137931035" y="578.7931034482758"/>
      <point x="492.51724137931035" y="617.6206896551724" type="curve" smooth="yes"/>
      <point x="492.51724137931035" y="672.448275862069"/>
      <point x="440.17241379310343" y="724.0"/>
      <point x="324.2068965517241" y="724.0" type="curve" smooth="yes"/>
      <point x="142.79310344827587" y="724.0"/>
      <point x="56.58620689655172" y="550.0"/>
      <point x="56.58620689655172" y="351.7241379310345" type="curve" smooth="yes"/>
      <point x="56.58620689655172" y="97.0"/>
      <point x="155.86206896551724" y="-10.0"/>
    </contour>
    <contour>
      <point x="296.0" y="48.03448275862069" type="curve" smooth="yes"/>
      <point x="221.24137931034483" y="48.03448275862069"/>
      <point x="171.0689655172414" y="128.31034482758622"/>
      <point x="169.3448275862069" y="326.1034482758621" type="curve"/>
      <point x="193.58620689655172" y="352.7241379310345"/>
      <point x="239.41379310344828" y="381.3448275862069"/>
      <point x="287.0" y="381.3448275862069" type="curve" smooth="yes"/>
      <point x="358.48275862068965" y="381.3448275862069"/>
      <point x="398.55172413793105" y="331.8965517241379"/>
      <point x="398.55172413793105" y="219.55172413793105" type="curve" smooth="yes"/>
      <point x="398.55172413793105" y="100.20689655172414"/>
      <point x="361.48275862068965" y="48.03448275862069"/>
    </contour>
  </outline>
</glyph>
<glyph name="seven" format="2">
  <advance width="559.0"/>
  <unicode hex="0037"/>
  <outline>
    <contour>
      <point x="183.10344827586206" y="0.0" type="line"/>
      <point x="260.86206896551727" y="0.0" type="line"/>
      <point x="515.1379310344828" y="678.7586206896551" type="line"/>
      <point x="515.1379310344828" y="713.2758620689655" type="line"/>
      <point x="59.86206896551724" y="713.2758620689655" type="line"/>
      <point x="54.86206896551724" y="524.2758620689655" type="line"/>
      <point x="101.82758620689656" y="524.2758620689655" type="line"/>
      <point x="106.37931034482759" y="574.2758620689655" type="line" smooth="yes"/>
      <point x="109.65517241379311" y="607.2758620689655"/>
      <point x="128.3793103448276" y="625.2758620689655"/>
      <point x="164.3793103448276" y="625.2758620689655" type="curve" smooth="yes"/>
      <point x="427.37931034482756" y="625.2758620689655" type="line"/>
    </contour>
  </outline>
</glyph>
<glyph name="eight" format="2">
  <advance width="559.0"/>
  <unicode hex="0038"/>
  <outline>
    <contour>
      <point x="273.0" y="-10.0" type="curve" smooth="yes"/>
      <point x="423.13793103448273" y="-10.0"/>
      <point x="517.4137931034483" y="63.724137931034484"/>
      <point x="517.4137931034483" y="190.44827586206895" type="curve" smooth="yes"/>
      <point x="517.4137931034483" y="275.7931034482759"/>
      <point x="456.2068965517241" y="334.0689655172414"/>
      <point x="351.41379310344826" y="384.1034482758621" type="curve"/>
      <point x="432.9655172413793" y="424.9310344827586"/>
      <point x="486.41379310344826" y="465.37931034482756"/>
      <point x="486.41379310344826" y="551.1724137931035" type="curve" smooth="yes"/>
      <point x="486.41379310344826" y="651.448275862069"/>
      <point x="414.41379310344826" y="724.0"/>
      <point x="285.0" y="724.0" type="curve" smooth="yes"/>
      <point x="126.03448275862068" y="724.0"/>
      <point x="64.58620689655173" y="636.448275862069"/>
      <point x="64.58620689655173" y="544.1724137931035" type="curve" smooth="yes"/>
      <point x="64.58620689655173" y="461.82758620689657"/>
      <point x="115.10344827586206" y="405.55172413793105"/>
      <point x="192.20689655172413" y="361.7241379310345" type="curve"/>
      <point x="104.93103448275862" y="319.17241379310343"/>
      <point x="41.58620689655172" y="273.0689655172414"/>
      <point x="41.58620689655172" y="179.82758620689654" type="curve" smooth="yes"/>
      <point x="41.58620689655172" y="74.55172413793103"/>
      <point x="118.3103448275862" y="-10.0"/>
    </contour>
    <contour>
      <point x="278.0" y="39.03448275862069" type="curve" smooth="yes"/>
      <point x="194.79310344827587" y="39.03448275862069"/>
      <point x="149.0689655172414" y="94.20689655172414"/>
      <point x="149.0689655172414" y="175.82758620689654" type="curve" smooth="yes"/>
      <point x="149.0689655172414" y="249.44827586206895"/>
      <point x="187.41379310344828" y="300.6896551724138"/>
      <point x="245.44827586206895" y="333.3103448275862" type="curve"/>
      <point x="367.2758620689655" y="279.7931034482759"/>
      <point x="413.17241379310343" y="237.0"/>
      <point x="413.17241379310343" y="169.82758620689654" type="curve" smooth="yes"/>
      <point x="413.17241379310343" y="93.93103448275862"/>
      <point x="359.7586206896552" y="39.03448275862069"/>
    </contour>
    <contour>
      <point x="299.1034482758621" y="410.13793103448273" type="curve"/>
      <point x="215.3448275862069" y="448.6551724137931"/>
      <point x="171.55172413793105" y="485.0"/>
      <point x="171.55172413793105" y="556.1724137931035" type="curve" smooth="yes"/>
      <point x="171.55172413793105" y="623.7931034482758"/>
      <point x="209.51724137931035" y="673.9655172413793"/>
      <point x="279.0" y="673.9655172413793" type="curve" smooth="yes"/>
      <point x="356.6551724137931" y="673.9655172413793"/>
      <point x="387.2068965517241" y="613.0689655172414"/>
      <point x="387.2068965517241" y="553.1724137931035" type="curve" smooth="yes"/>
      <point x="387.2068965517241" y="484.2758620689655"/>
      <point x="366.9310344827586" y="444.6551724137931"/>
    </contour>
  </outline>
</glyph>
<glyph name="nine" format="2">
  <advance width="559.0"/>
  <unicode hex="0039"/>
  <outline>
    <contour>
      <point x="227.0" y="-10.724137931034482" type="curve"/>
      <point x="424.0344827586207" y="-10.724137931034482"/>
      <point x="502.41379310344826" y="175.24137931034483"/>
      <point x="502.41379310344826" y="388.0" type="curve"/>
      <point x="502.41379310344826" y="623.0"/>
      <point x="402.48275862068965" y="724.0"/>
      <point x="264.7241379310345" y="724.0" type="curve" smooth="yes"/>
      <point x="128.24137931034483" y="724.0"/>
      <point x="46.58620689655172" y="623.1034482758621"/>
      <point x="46.58620689655172" y="479.1034482758621" type="curve" smooth="yes"/>
      <point x="46.58620689655172" y="344.1034482758621"/>
      <point x="127.58620689655173" y="275.0"/>
      <point x="243.31034482758622" y="275.0" type="curve" smooth="yes"/>
      <point x="313.0344827586207" y="275.0"/>
      <point x="360.48275862068965" y="306.8965517241379"/>
      <point x="390.0344827586207" y="343.0" type="curve"/>
      <point x="383.0344827586207" y="144.48275862068965"/>
      <point x="334.3103448275862" y="46.48275862068966"/>
      <point x="229.10344827586206" y="46.48275862068966" type="curve" smooth="yes"/>
      <point x="165.0" y="46.48275862068966"/>
      <point x="130.27586206896552" y="86.24137931034483"/>
      <point x="112.0" y="133.20689655172413" type="curve"/>
      <point x="91.75862068965517" y="127.65517241379311"/>
      <point x="76.75862068965517" y="108.82758620689656"/>
      <point x="76.75862068965517" y="82.72413793103448" type="curve" smooth="yes"/>
      <point x="76.75862068965517" y="36.58620689655172"/>
      <point x="111.79310344827586" y="-10.724137931034482"/>
    </contour>
    <contour>
      <point x="271.1034482758621" y="337.58620689655174" type="curve" smooth="yes"/>
      <point x="198.24137931034483" y="337.58620689655174"/>
      <point x="161.17241379310346" y="382.9655172413793"/>
      <point x="161.17241379310346" y="488.0" type="curve" smooth="yes"/>
      <point x="161.17241379310346" y="603.6206896551724"/>
      <point x="199.9655172413793" y="665.6896551724138"/>
      <point x="266.37931034482756" y="665.6896551724138" type="curve" smooth="yes"/>
      <point x="339.51724137931035" y="665.6896551724138"/>
      <point x="388.0344827586207" y="590.5172413793103"/>
      <point x="390.7586206896552" y="414.7241379310345" type="curve"/>
      <point x="372.2068965517241" y="372.55172413793105"/>
      <point x="331.41379310344826" y="337.58620689655174"/>
    </contour>
  </outline>
</glyph>
<glyph name="colon" format="2">
  <advance width="290.9655172413793"/>
  <unicode hex="003A"/>
  <outline>
    <contour>
      <point x="146.20689655172413" y="399.48275862068965" type="curve" smooth="yes"/>
      <point x="182.9655172413793" y="399.48275862068965"/>
      <point x="214.44827586206895" y="417.3103448275862"/>
      <point x="214.44827586206895" y="470.7931034482759" type="curve" smooth="yes"/>
      <point x="214.44827586206895" y="525.2758620689655"/>
      <point x="182.9655172413793" y="542.1034482758621"/>
      <point x="146.20689655172413" y="542.1034482758621" type="curve" smooth="yes"/>
      <point x="108.17241379310344" y="542.1034482758621"/>
      <point x="77.9655172413793" y="525.2758620689655"/>
      <point x="77.9655172413793" y="470.7931034482759" type="curve" smooth="yes"/>
      <point x="77.9655172413793" y="417.3103448275862"/>
      <point x="108.17241379310344" y="399.48275862068965"/>
    </contour>
    <contour>
      <point x="146.20689655172413" y="-7.275862068965517" type="curve" smooth="yes"/>
      <point x="182.9655172413793" y="-7.275862068965517"/>
      <point x="214.44827586206895" y="10.551724137931034"/>
      <point x="214.44827586206895" y="64.0344827586207" type="curve" smooth="yes"/>
      <point x="214.44827586206895" y="118.51724137931035"/>
      <point x="182.9655172413793" y="135.3448275862069"/>
      <point x="146.20689655172413" y="135.3448275862069" type="curve" smooth="yes"/>
      <point x="108.17241379310344" y="135.3448275862069"/>
      <point x="77.9655172413793" y="118.51724137931035"/>
      <point x="77.9655172413793" y="64.0344827586207" type="curve" smooth="yes"/>
      <point x="77.9655172413793" y="10.551724137931034"/>
      <point x="108.17241379310344" y="-7.275862068965517"/>
    </contour>
  </outline>
</glyph>
<glyph name="semicolon" format="2">
  <advance width="290.9655172413793"/>
  <unicode hex="003B"/>
  <outline>
    <contour>
      <point x="49.93103448275862" y="-154.0" type="line"/>
      <point x="171.9655172413793" y="-119.0"/>
      <point x="218.0689655172414" y="-43.0"/>
      <point x="218.0689655172414" y="42.0" type="curve" smooth="yes"/>
      <point x="218.0689655172414" y="101.3103448275862"/>
      <point x="182.0689655172414" y="135.3448275862069"/>
      <point x="136.93103448275863" y="135.3448275862069" type="curve" smooth="yes"/>
      <point x="98.82758620689656" y="135.3448275862069"/>
      <point x="70.0" y="113.51724137931035"/>
      <point x="70.0" y="73.58620689655173" type="curve" smooth="yes"/>
      <point x="70.0" y="7.344827586206897"/>
      <point x="143.0" y="16.896551724137932"/>
      <point x="143.0" y="-22.551724137931036" type="curve" smooth="yes"/>
      <point x="143.0" y="-61.55172413793103"/>
      <point x="113.0" y="-88.24137931034483"/>
      <point x="49.93103448275862" y="-109.24137931034483" type="curve"/>
    </contour>
    <contour>
      <point x="146.20689655172413" y="399.48275862068965" type="curve" smooth="yes"/>
      <point x="182.9655172413793" y="399.48275862068965"/>
      <point x="214.44827586206895" y="417.3103448275862"/>
      <point x="214.44827586206895" y="470.7931034482759" type="curve" smooth="yes"/>
      <point x="214.44827586206895" y="525.2758620689655"/>
      <point x="182.9655172413793" y="542.1034482758621"/>
      <point x="146.20689655172413" y="542.1034482758621" type="curve" smooth="yes"/>
      <point x="108.17241379310344" y="542.1034482758621"/>
      <point x="77.9655172413793" y="525.2758620689655"/>
      <point x="77.9655172413793" y="470.7931034482759" type="curve" smooth="yes"/>
      <point x="77.9655172413793" y="417.3103448275862"/>
      <point x="108.17241379310344" y="399.48275862068965"/>
    </contour>
  </outline>
</glyph>
<glyph name="less" format="2">
  <advance width="559.0"/>
  <unicode hex="003C"/>
  <outline>
    <contour>
      <point x="494.0" y="108.34482758620689" type="line"/>
      <point x="494.0" y="178.6551724137931" type="line"/>
      <point x="161.86206896551724" y="357.0" type="line"/>
      <point x="494.0" y="537.3448275862069" type="line"/>
      <point x="494.0" y="607.6551724137931" type="line"/>
      <point x="65.0" y="375.82758620689657" type="line"/>
      <point x="65.0" y="339.17241379310343" type="line"/>
    </contour>
  </outline>
</glyph>
<glyph name="greater" format="2">
  <advance width="559.0"/>
  <unicode hex="003E"/>
  <outline>
    <contour>
      <point x="65.0" y="108.34482758620689" type="line"/>
      <point x="494.0" y="339.17241379310343" type="line"/>
      <point x="494.0" y="375.82758620689657" type="line"/>
      <point x="65.0" y="607.6551724137931" type="line"/>
      <point x="65.0" y="537.3448275862069" type="line"/>
      <point x="397.13793103448273" y="357.0" type="line"/>
      <point x="65.0" y="178.6551724137931" type="line"/>
    </contour>
  </outline>
</glyph>
<glyph name="question" format="2">
  <advance width="513.7931034482758"/>
  <unicode hex="003F"/>
  <outline>
    <contour>
      <point x="199.79310344827587" y="208.44827586206895" type="line"/>
      <point x="260.7931034482759" y="208.44827586206895" type="line"/>
      <point x="266.3103448275862" y="315.37931034482756" type="line"/>
      <point x="392.7931034482759" y="367.48275862068965"/>
      <point x="461.6896551724138" y="433.0"/>
      <point x="461.6896551724138" y="542.1724137931035" type="curve" smooth="yes"/>
      <point x="461.6896551724138" y="656.7241379310345"/>
      <point x="365.6551724137931" y="724.0"/>
      <point x="235.51724137931035" y="724.0" type="curve" smooth="yes"/>
      <point x="101.55172413793103" y="724.0"/>
      <point x="41.3448275862069" y="675.1724137931035"/>
      <point x="41.3448275862069" y="610.8965517241379" type="curve" smooth="yes"/>
      <point x="41.3448275862069" y="566.7931034482758"/>
      <point x="82.96551724137932" y="544.5172413793103"/>
      <point x="140.3448275862069" y="544.5172413793103" type="curve"/>
      <point x="140.3448275862069" y="613.2413793103449"/>
      <point x="166.86206896551724" y="671.9655172413793"/>
      <point x="243.51724137931035" y="671.9655172413793" type="curve" smooth="yes"/>
      <point x="314.44827586206895" y="671.9655172413793"/>
      <point x="343.9655172413793" y="626.5172413793103"/>
      <point x="343.9655172413793" y="558.8965517241379" type="curve" smooth="yes"/>
      <point x="343.9655172413793" y="479.17241379310343"/>
      <point x="309.7241379310345" y="399.17241379310343"/>
      <point x="194.27586206896552" y="352.44827586206895" type="curve"/>
    </contour>
    <contour>
      <point x="228.79310344827587" y="-7.275862068965517" type="curve" smooth="yes"/>
      <point x="265.55172413793105" y="-7.275862068965517"/>
      <point x="297.0344827586207" y="10.551724137931034"/>
      <point x="297.0344827586207" y="64.0344827586207" type="curve" smooth="yes"/>
      <point x="297.0344827586207" y="118.51724137931035"/>
      <point x="265.55172413793105" y="135.3448275862069"/>
      <point x="228.79310344827587" y="135.3448275862069" type="curve" smooth="yes"/>
      <point x="190.75862068965517" y="135.3448275862069"/>
      <point x="160.55172413793105" y="118.51724137931035"/>
      <point x="160.55172413793105" y="64.0344827586207" type="curve" smooth="yes"/>
      <point x="160.55172413793105" y="10.551724137931034"/>
      <point x="190.75862068965517" y="-7.275862068965517"/>
    </contour>
  </outline>
</glyph>
<glyph name="bracketleft" format="2">
  <advance width="374.8965517241379"/>
  <unicode hex="005B"/>
  <outline>
    <contour>
      <point x="100.0" y="-128.0" type="line"/>
      <point x="337.8965517241379" y="-128.0" type="line"/>
      <point x="337.8965517241379" y="-82.9655172413793" type="line"/>
      <point x="294.8965517241379" y="-82.9655172413793" type="line" smooth="yes"/>
      <point x="249.89655172413794" y="-82.9655172413793"/>
      <point x="212.89655172413794" y="-73.9655172413793"/>
      <point x="212.89655172413794" y="-10.96551724137931" type="curve" smooth="yes"/>
      <point x="212.89655172413794" y="642.9655172413793" type="line" smooth="yes"/>
      <point x="212.89655172413794" y="705.9655172413793"/>
      <point x="249.89655172413794" y="714.9655172413793"/>
      <point x="294.8965517241379" y="714.9655172413793" type="curve" smooth="yes"/>
      <point x="337.8965517241379" y="714.9655172413793" type="line"/>
      <point x="337.8965517241379" y="760.0" type="line"/>
      <point x="100.0" y="760.0" type="line"/>
    </contour>
  </outline>
</glyph>
<glyph name="backslash" format="2">
  <advance width="288.0"/>
  <unicode hex="005C"/>
  <outline>
    <contour>
      <point x="225.41379310344828" y="-121.0" type="line"/>
      <point x="288.0" y="-121.0" type="line"/>
      <point x="61.58620689655172" y="760.0" type="line"/>
      <point x="0.0" y="760.0" type="line"/>
    </contour>
  </outline>
</glyph>
<glyph name="bracketright" format="2">
  <advance width="374.8965517241379"/>
  <unicode hex="005D"/>
  <outline>
    <contour>
      <point x="37.0" y="-128.0" type="line"/>
      <point x="274.8965517241379" y="-128.0" type="line"/>
      <point x="274.8965517241379" y="760.0" type="line"/>
      <point x="37.0" y="760.0" type="line"/>
      <point x="37.0" y="714.9655172413793" type="line"/>
      <point x="80.0" y="714.9655172413793" type="line" smooth="yes"/>
      <point x="125.0" y="714.9655172413793"/>
      <point x="162.0" y="705.9655172413793"/>
      <point x="162.0" y="642.9655172413793" type="curve" smooth="yes"/>
      <point x="162.0" y="-10.96551724137931" type="line" smooth="yes"/>
      <point x="162.0" y="-73.9655172413793"/>
      <point x="125.0" y="-82.9655172413793"/>
      <point x="80.0" y="-82.9655172413793" type="curve" smooth="yes"/>
      <point x="37.0" y="-82.9655172413793" type="line"/>
    </contour>
  </outline>
</glyph>
<glyph name="asciicircum" format="2">
  <advance width="559.0"/>
  <unicode hex="005E"/>
  <outline>
    <contour>
      <point x="49.62068965517241" y="264.8965517241379" type="line"/>
      <point x="119.65517241379311" y="264.8965517241379" type="line"/>
      <point x="278.0" y="617.3103448275862" type="line"/>
      <point x="438.3448275862069" y="264.8965517241379" type="line"/>
      <point x="508.37931034482756" y="264.8965517241379" type="line"/>
      <point x="297.1034482758621" y="714.0" type="line"/>
      <point x="259.8965517241379" y="714.0" type="line"/>
    </contour>
  </outline>
</glyph>
<glyph name="braceleft" format="2">
  <advance width="431.86206896551727"/>
  <unicode hex="007B"/>
  <outline>
    <contour>
      <point x="313.37931034482756" y="-127.17241379310344" type="curve" smooth="yes"/>
      <point x="387.37931034482756" y="-127.17241379310344" type="line"/>
      <point x="387.37931034482756" y="-81.41379310344827" type="line"/>
      <point x="354.8965517241379" y="-81.41379310344827" type="line" smooth="yes"/>
      <point x="296.44827586206895" y="-81.41379310344827"/>
      <point x="275.9310344827586" y="-44.96551724137931"/>
      <point x="275.9310344827586" y="21.655172413793103" type="curve" smooth="yes"/>
      <point x="275.9310344827586" y="194.10344827586206" type="line" smooth="yes"/>
      <point x="275.9310344827586" y="258.44827586206895"/>
      <point x="241.20689655172413" y="301.7931034482759"/>
      <point x="165.20689655172413" y="316.44827586206895" type="curve"/>
      <point x="165.20689655172413" y="319.37931034482756" type="line"/>
      <point x="240.0344827586207" y="333.0344827586207"/>
      <point x="275.9310344827586" y="377.1034482758621"/>
      <point x="275.9310344827586" y="440.7241379310345" type="curve" smooth="yes"/>
      <point x="275.9310344827586" y="611.448275862069" type="line" smooth="yes"/>
      <point x="275.9310344827586" y="678.7931034482758"/>
      <point x="296.44827586206895" y="714.2413793103449"/>
      <point x="354.8965517241379" y="714.2413793103449" type="curve" smooth="yes"/>
      <point x="387.37931034482756" y="714.2413793103449" type="line"/>
      <point x="387.37931034482756" y="760.0" type="line"/>
      <point x="313.37931034482756" y="760.0" type="line" smooth="yes"/>
      <point x="214.41379310344828" y="760.0"/>
      <point x="161.9310344827586" y="707.7241379310345"/>
      <point x="161.9310344827586" y="616.1724137931035" type="curve" smooth="yes"/>
      <point x="161.9310344827586" y="442.7241379310345" type="line" smooth="yes"/>
      <point x="161.9310344827586" y="363.37931034482756"/>
      <point x="110.20689655172414" y="343.0344827586207"/>
      <point x="44.48275862068965" y="341.0344827586207" type="curve"/>
      <point x="44.48275862068965" y="293.7931034482759" type="line"/>
      <point x="110.20689655172414" y="290.7931034482759"/>
      <point x="161.9310344827586" y="271.44827586206895"/>
      <point x="161.9310344827586" y="191.10344827586206" type="curve" smooth="yes"/>
      <point x="161.9310344827586" y="17.93103448275862" type="line" smooth="yes"/>
      <point x="161.9310344827586" y="-70.89655172413794"/>
      <point x="214.41379310344828" y="-127.17241379310344"/>
    </contour>
  </outline>
</glyph>
<glyph name="bar" format="2">
  <advance width="559.0"/>
  <unicode hex="007C"/>
  <outline>
    <contour>
      <point x="247.3448275862069" y="-240.0" type="line"/>
      <point x="310.6551724137931" y="-240.0" type="line"/>
      <point x="310.6551724137931" y="760.0" type="line"/>
      <point x="247.3448275862069" y="760.0" type="line"/>
    </contour>
  </outline>
</glyph>
<glyph name="braceright" format="2">
  <advance width="431.86206896551727"/>
  <unicode hex="007D"/>
  <outline>
    <contour>
      <point x="44.48275862068965" y="-127.17241379310344" type="line"/>
      <point x="118.48275862068965" y="-127.17241379310344" type="line" smooth="yes"/>
      <point x="217.44827586206895" y="-127.17241379310344"/>
      <point x="269.9310344827586" y="-70.89655172413794"/>
      <point x="269.9310344827586" y="17.93103448275862" type="curve" smooth="yes"/>
      <point x="269.9310344827586" y="191.10344827586206" type="line" smooth="yes"/>
      <point x="269.9310344827586" y="271.44827586206895"/>
      <point x="321.6551724137931" y="290.7931034482759"/>
      <point x="387.37931034482756" y="293.7931034482759" type="curve"/>
      <point x="387.37931034482756" y="341.0344827586207" type="line"/>
      <point x="321.6551724137931" y="343.0344827586207"/>
      <point x="269.9310344827586" y="363.37931034482756"/>
      <point x="269.9310344827586" y="442.7241379310345" type="curve" smooth="yes"/>
      <point x="269.9310344827586" y="616.1724137931035" type="line" smooth="yes"/>
      <point x="269.9310344827586" y="707.7241379310345"/>
      <point x="217.44827586206895" y="760.0"/>
      <point x="118.48275862068965" y="760.0" type="curve" smooth="yes"/>
      <point x="44.48275862068965" y="760.0" type="line"/>
      <point x="44.48275862068965" y="714.2413793103449" type="line"/>
      <point x="76.9655172413793" y="714.2413793103449" type="line" smooth="yes"/>
      <point x="135.41379310344828" y="714.2413793103449"/>
      <point x="155.9310344827586" y="678.7931034482758"/>
      <point x="155.9310344827586" y="611.448275862069" type="curve" smooth="yes"/>
      <point x="155.9310344827586" y="440.7241379310345" type="line" smooth="yes"/>
      <point x="155.9310344827586" y="377.1034482758621"/>
      <point x="191.82758620689654" y="333.0344827586207"/>
      <point x="266.6551724137931" y="319.37931034482756" type="curve"/>
      <point x="266.6551724137931" y="316.44827586206895" type="line"/>
      <point x="190.6551724137931" y="301.7931034482759"/>
      <point x="155.9310344827586" y="258.44827586206895"/>
      <point x="155.9310344827586" y="194.10344827586206" type="curve" smooth="yes"/>
      <point x="155.9310344827586" y="21.655172413793103" type="line" smooth="yes"/>
      <point x="155.9310344827586" y="-44.96551724137931"/>
      <point x="135.41379310344828" y="-81.41379310344827"/>
      <point x="76.9655172413793" y="-81.41379310344827" type="curve" smooth="yes"/>
      <point x="44.48275862068965" y="-81.41379310344827" type="line"/>
    </contour>
  </outline>
</glyph>
<glyph name="twosuperior" format="2">
  <advance width="400.0"/>
  <unicode hex="00B2"/>
  <outline>
    <contour>
      <point x="40.62068965517241" y="387.0" type="line"/>
      <point x="348.48275862068965" y="387.0" type="line"/>
      <point x="351.7586206896552" y="515.5862068965517" type="line"/>
      <point x="316.9310344827586" y="515.5862068965517" type="line"/>
      <point x="312.6551724137931" y="492.9310344827586" type="line"/>
      <point x="308.6551724137931" y="471.7586206896552"/>
      <point x="299.37931034482756" y="454.13793103448273"/>
      <point x="269.2068965517241" y="454.13793103448273" type="curve"/>
      <point x="120.06896551724138" y="454.13793103448273" type="line"/>
      <point x="219.44827586206895" y="537.6896551724138" type="line"/>
      <point x="311.55172413793105" y="614.2068965517242"/>
      <point x="338.1034482758621" y="655.3793103448276"/>
      <point x="338.1034482758621" y="717.2758620689655" type="curve" smooth="yes"/>
      <point x="338.1034482758621" y="785.8965517241379"/>
      <point x="284.86206896551727" y="825.0"/>
      <point x="187.72413793103448" y="825.0" type="curve" smooth="yes"/>
      <point x="96.44827586206897" y="825.0"/>
      <point x="48.62068965517241" y="789.0"/>
      <point x="48.62068965517241" y="741.0" type="curve" smooth="yes"/>
      <point x="48.62068965517241" y="703.7931034482758"/>
      <point x="80.86206896551724" y="693.3103448275862"/>
      <point x="125.58620689655173" y="693.3103448275862" type="curve"/>
      <point x="125.58620689655173" y="739.3103448275862"/>
      <point x="139.55172413793105" y="783.6206896551724"/>
      <point x="187.72413793103448" y="783.6206896551724" type="curve" smooth="yes"/>
      <point x="228.24137931034483" y="783.6206896551724"/>
      <point x="243.41379310344828" y="753.551724137931"/>
      <point x="243.41379310344828" y="709.8275862068965" type="curve" smooth="yes"/>
      <point x="243.41379310344828" y="656.2758620689655"/>
      <point x="224.68965517241378" y="601.7586206896551"/>
      <point x="162.9310344827586" y="547.3793103448276" type="curve" smooth="yes"/>
      <point x="40.62068965517241" y="439.44827586206895" type="line"/>
    </contour>
  </outline>
</glyph>
<glyph name="threesuperior" format="2">
  <advance width="400.0"/>
  <unicode hex="00B3"/>
  <outline>
    <contour>
      <point x="171.51724137931035" y="380.0" type="curve" smooth="yes"/>
      <point x="252.06896551724137" y="380.0"/>
      <point x="352.9310344827586" y="413.0"/>
      <point x="352.9310344827586" y="511.0" type="curve" smooth="yes"/>
      <point x="352.9310344827586" y="579.5862068965517"/>
      <point x="294.1034482758621" y="602.7241379310345"/>
      <point x="236.68965517241378" y="612.0" type="curve"/>
      <point x="236.68965517241378" y="617.0" type="line"/>
      <point x="293.8965517241379" y="633.0"/>
      <point x="335.9310344827586" y="667.0"/>
      <point x="335.9310344827586" y="725.0" type="curve" smooth="yes"/>
      <point x="335.9310344827586" y="787.0"/>
      <point x="276.6551724137931" y="824.0"/>
      <point x="186.82758620689654" y="824.0" type="curve" smooth="yes"/>
      <point x="95.27586206896552" y="824.0"/>
      <point x="46.0" y="786.8965517241379"/>
      <point x="46.0" y="738.6206896551724" type="curve" smooth="yes"/>
      <point x="46.0" y="703.6206896551724"/>
      <point x="75.37931034482759" y="695.6206896551724"/>
      <point x="123.58620689655173" y="695.6206896551724" type="curve"/>
      <point x="123.58620689655173" y="741.6206896551724"/>
      <point x="137.75862068965517" y="782.6206896551724"/>
      <point x="186.27586206896552" y="782.6206896551724" type="curve" smooth="yes"/>
      <point x="225.3448275862069" y="782.6206896551724"/>
      <point x="240.51724137931035" y="758.8965517241379"/>
      <point x="240.51724137931035" y="715.7241379310345" type="curve" smooth="yes"/>
      <point x="240.51724137931035" y="663.2758620689655"/>
      <point x="204.27586206896552" y="630.8275862068965"/>
      <point x="154.27586206896552" y="630.8275862068965" type="curve" smooth="yes"/>
      <point x="121.27586206896552" y="630.8275862068965" type="line"/>
      <point x="121.27586206896552" y="588.1724137931035" type="line"/>
      <point x="154.27586206896552" y="588.1724137931035" type="line" smooth="yes"/>
      <point x="227.27586206896552" y="588.1724137931035"/>
      <point x="258.3448275862069" y="558.7241379310345"/>
      <point x="258.3448275862069" y="512.2758620689655" type="curve" smooth="yes"/>
      <point x="258.3448275862069" y="451.37931034482756"/>
      <point x="223.51724137931035" y="426.6551724137931"/>
      <point x="169.6206896551724" y="426.6551724137931" type="curve" smooth="yes"/>
      <point x="114.10344827586206" y="426.6551724137931"/>
      <point x="86.27586206896552" y="468.17241379310343"/>
      <point x="86.27586206896552" y="511.0" type="curve"/>
      <point x="54.96551724137931" y="511.0"/>
      <point x="37.51724137931034" y="490.17241379310343"/>
      <point x="37.51724137931034" y="462.0" type="curve" smooth="yes"/>
      <point x="37.51724137931034" y="413.0"/>
      <point x="84.51724137931035" y="380.0"/>
    </contour>
  </outline>
</glyph>
<glyph name="udatta-deva" format="2">
  <unicode hex="0951"/>
  <anchor x="0.0" y="556.4827586206897" name="_vedic"/>
  <outline>
    <contour>
      <point x="-30.586206896551726" y="916.9655172413793" type="line"/>
      <point x="30.586206896551726" y="916.9655172413793" type="line"/>
      <point x="30.586206896551726" y="1114.7241379310344" type="line"/>
      <point x="-30.586206896551726" y="1114.7241379310344" type="line"/>
    </contour>
  </outline>
</glyph>
<glyph name="anudatta-deva" format="2">
  <unicode hex="0952"/>
  <anchor x="0.0" y="0.0" name="_bottom"/>
  <outline>
    <contour>
      <point x="-206.10344827586206" y="-560.7931034482758" type="line"/>
      <point x="206.10344827586206" y="-560.7931034482758" type="line"/>
      <point x="206.10344827586206" y="-487.17241379310343" type="line"/>
      <point x="-206.10344827586206" y="-487.17241379310343" type="line"/>
    </contour>
  </outline>
</glyph>
<glyph name="danda-deva" format="2">
  <advance width="317.6896551724138"/>
  <unicode hex="0964"/>
  <outline>
    <contour>
      <point x="101.6896551724138" y="0.0" type="line"/>
      <point x="216.0" y="0.0" type="line"/>
      <point x="216.0" y="556.4827586206897" type="line"/>
      <point x="101.6896551724138" y="556.4827586206897" type="line"/>
    </contour>
  </outline>
</glyph>
<glyph name="dbldanda-deva" format="2">
  <advance width="572.7586206896552"/>
  <unicode hex="0965"/>
  <outline>
    <contour>
      <point x="356.7586206896552" y="0.0" type="line"/>
      <point x="471.0689655172414" y="0.0" type="line"/>
      <point x="471.0689655172414" y="556.4827586206897" type="line"/>
      <point x="356.7586206896552" y="556.4827586206897" type="line"/>
    </contour>
    <contour>
      <point x="101.6896551724138" y="0.0" type="line"/>
      <point x="216.0" y="0.0" type="line"/>
      <point x="216.0" y="556.4827586206897" type="line"/>
      <point x="101.6896551724138" y="556.4827586206897" type="line"/>
    </contour>
  </outline>
</glyph>
<glyph name="anusvara-tamil" format="2">
  <unicode hex="0B82"/>
  <note>
uni0B82
</note>
  <anchor x="0.0" y="556.4827586206897" name="_top"/>
  <outline>
    <contour>
      <point x="0.0" y="629.4137931034483" type="curve" smooth="yes"/>
      <point x="72.48275862068965" y="629.4137931034483"/>
      <point x="127.06896551724138" y="681.0"/>
      <point x="127.06896551724138" y="754.3103448275862" type="curve" smooth="yes"/>
      <point x="127.06896551724138" y="828.3448275862069"/>
      <point x="72.48275862068965" y="879.9310344827586"/>
      <point x="0.0" y="879.9310344827586" type="curve" smooth="yes"/>
      <point x="-72.48275862068965" y="879.9310344827586"/>
      <point x="-127.06896551724138" y="828.3448275862069"/>
      <point x="-127.06896551724138" y="754.3103448275862" type="curve" smooth="yes"/>
      <point x="-127.06896551724138" y="681.0"/>
      <point x="-72.48275862068965" y="629.4137931034483"/>
    </contour>
    <contour>
      <point x="0.0" y="689.7586206896551" type="curve" smooth="yes"/>
      <point x="-36.172413793103445" y="689.7586206896551"/>
      <point x="-63.0" y="716.5862068965517"/>
      <point x="-63.0" y="754.3103448275862" type="curve" smooth="yes"/>
      <point x="-63.0" y="792.4827586206897"/>
      <point x="-36.172413793103445" y="819.3103448275862"/>
      <point x="0.0" y="819.3103448275862" type="curve" smooth="yes"/>
      <point x="36.172413793103445" y="819.3103448275862"/>
      <point x="63.0" y="792.4827586206897"/>
      <point x="63.0" y="754.3103448275862" type="curve" smooth="yes"/>
      <point x="63.0" y="716.5862068965517"/>
      <point x="36.172413793103445" y="689.7586206896551"/>
    </contour>
  </outline>
</glyph>
<glyph name="visarga-tamil" format="2">
  <advance width="912.7586206896551"/>
  <unicode hex="0B83"/>
  <note>
uni0B83
</note>
  <outline>
    <contour>
      <point x="679.8965517241379" y="-1.3793103448275865" type="curve" smooth="yes"/>
      <point x="781.8965517241379" y="-1.3793103448275865"/>
      <point x="857.5172413793103" y="73.62068965517241"/>
      <point x="857.5172413793103" y="184.72413793103448" type="curve" smooth="yes"/>
      <point x="857.5172413793103" y="295.1034482758621"/>
      <point x="781.8965517241379" y="369.82758620689657"/>
      <point x="679.8965517241379" y="369.82758620689657" type="curve" smooth="yes"/>
      <point x="577.3103448275862" y="369.82758620689657"/>
      <point x="506.9655172413793" y="292.3448275862069"/>
      <point x="506.9655172413793" y="184.72413793103448" type="curve" smooth="yes"/>
      <point x="506.9655172413793" y="76.37931034482759"/>
      <point x="577.3103448275862" y="-1.3793103448275865"/>
    </contour>
    <contour>
      <point x="228.72413793103448" y="-1.3793103448275865" type="curve" smooth="yes"/>
      <point x="330.7241379310345" y="-1.3793103448275865"/>
      <point x="406.0689655172414" y="73.62068965517241"/>
      <point x="406.0689655172414" y="184.72413793103448" type="curve" smooth="yes"/>
      <point x="406.0689655172414" y="295.1034482758621"/>
      <point x="330.7241379310345" y="369.82758620689657"/>
      <point x="228.72413793103448" y="369.82758620689657" type="curve" smooth="yes"/>
      <point x="125.86206896551724" y="369.82758620689657"/>
      <point x="56.241379310344826" y="292.3448275862069"/>
      <point x="56.241379310344826" y="184.72413793103448" type="curve" smooth="yes"/>
      <point x="56.241379310344826" y="76.37931034482759"/>
      <point x="125.86206896551724" y="-1.3793103448275865"/>
    </contour>
    <contour>
      <point x="455.13793103448273" y="419.17241379310343" type="curve" smooth="yes"/>
      <point x="557.1379310344828" y="419.17241379310343"/>
      <point x="632.4827586206897" y="494.55172413793105"/>
      <point x="632.4827586206897" y="604.2758620689655" type="curve" smooth="yes"/>
      <point x="632.4827586206897" y="715.3793103448276"/>
      <point x="557.1379310344828" y="789.3793103448276"/>
      <point x="455.13793103448273" y="789.3793103448276" type="curve" smooth="yes"/>
      <point x="352.55172413793105" y="789.3793103448276"/>
      <point x="281.9310344827586" y="712.6206896551724"/>
      <point x="281.9310344827586" y="604.2758620689655" type="curve" smooth="yes"/>
      <point x="281.9310344827586" y="495.9310344827586"/>
      <point x="352.55172413793105" y="419.17241379310343"/>
    </contour>
    <contour>
      <point x="213.44827586206895" y="49.55172413793103" type="curve" smooth="yes"/>
      <point x="150.55172413793105" y="49.55172413793103"/>
      <point x="108.37931034482759" y="102.55172413793103"/>
      <point x="108.37931034482759" y="184.72413793103448" type="curve" smooth="yes"/>
      <point x="108.37931034482759" y="265.8965517241379"/>
      <point x="150.55172413793105" y="318.8965517241379"/>
      <point x="213.44827586206895" y="318.8965517241379" type="curve" smooth="yes"/>
      <point x="280.51724137931035" y="318.8965517241379"/>
      <point x="318.7586206896552" y="270.9655172413793"/>
      <point x="318.7586206896552" y="184.72413793103448" type="curve" smooth="yes"/>
      <point x="318.7586206896552" y="96.75862068965517"/>
      <point x="280.51724137931035" y="49.55172413793103"/>
    </contour>
    <contour>
      <point x="440.13793103448273" y="469.37931034482756" type="curve" smooth="yes"/>
      <point x="376.9655172413793" y="469.37931034482756"/>
      <point x="335.0689655172414" y="522.1034482758621"/>
      <point x="335.0689655172414" y="604.2758620689655" type="curve" smooth="yes"/>
      <point x="335.0689655172414" y="685.448275862069"/>
      <point x="376.9655172413793" y="738.448275862069"/>
      <point x="440.13793103448273" y="738.448275862069" type="curve" smooth="yes"/>
      <point x="507.2068965517241" y="738.448275862069"/>
      <point x="544.448275862069" y="691.2413793103449"/>
      <point x="544.448275862069" y="604.2758620689655" type="curve" smooth="yes"/>
      <point x="544.448275862069" y="517.0344827586207"/>
      <point x="507.2068965517241" y="469.37931034482756"/>
    </contour>
    <contour>
      <point x="664.8965517241379" y="49.55172413793103" type="curve" smooth="yes"/>
      <point x="602.0" y="49.55172413793103"/>
      <point x="559.8275862068965" y="102.55172413793103"/>
      <point x="559.8275862068965" y="184.72413793103448" type="curve" smooth="yes"/>
      <point x="559.8275862068965" y="265.8965517241379"/>
      <point x="602.0" y="318.8965517241379"/>
      <point x="664.8965517241379" y="318.8965517241379" type="curve" smooth="yes"/>
      <point x="731.9655172413793" y="318.8965517241379"/>
      <point x="769.9310344827586" y="270.9655172413793"/>
      <point x="769.9310344827586" y="184.72413793103448" type="curve" smooth="yes"/>
      <point x="769.9310344827586" y="96.75862068965517"/>
      <point x="731.9655172413793" y="49.55172413793103"/>
    </contour>
  </outline>
</glyph>
<glyph name="a-tamil" format="2">
  <advance width="1335.448275862069"/>
  <unicode hex="0B85"/>
  <note>
uni0B85
</note>
  <anchor x="638.4137931034483" y="0.0" name="bottom"/>
  <anchor x="458.86206896551727" y="-130.0" name="nukta"/>
  <anchor x="645.551724137931" y="556.4827586206897" name="top"/>
  <anchor x="645.551724137931" y="556.4827586206897" name="vedic"/>
  <outline>
    <contour>
      <point x="1127.1724137931035" y="-207.0" type="line"/>
      <point x="1240.103448275862" y="-207.0" type="line"/>
      <point x="1240.103448275862" y="556.4827586206897" type="line"/>
      <point x="1127.1724137931035" y="556.4827586206897" type="line"/>
      <point x="1127.1724137931035" y="169.3448275862069" type="line"/>
      <point x="128.0" y="169.3448275862069" type="line" smooth="yes"/>
      <point x="66.79310344827586" y="169.3448275862069"/>
      <point x="36.241379310344826" y="139.13793103448276"/>
      <point x="36.241379310344826" y="93.20689655172414" type="curve" smooth="yes"/>
      <point x="36.241379310344826" y="-5.103448275862071"/>
      <point x="198.3448275862069" y="-130.0"/>
      <point x="458.86206896551727" y="-130.0" type="curve" smooth="yes"/>
      <point x="775.5172413793103" y="-130.0"/>
      <point x="977.5862068965517" y="12.586206896551722"/>
      <point x="977.5862068965517" y="246.13793103448276" type="curve" smooth="yes"/>
      <point x="977.5862068965517" y="435.9310344827586"/>
      <point x="833.8620689655172" y="561.4827586206897"/>
      <point x="645.551724137931" y="561.4827586206897" type="curve" smooth="yes"/>
      <point x="509.7931034482759" y="561.4827586206897"/>
      <point x="410.82758620689657" y="492.41379310344826"/>
      <point x="410.82758620689657" y="382.7931034482759" type="curve" smooth="yes"/>
      <point x="410.82758620689657" y="301.7586206896552"/>
      <point x="478.2758620689655" y="239.27586206896552"/>
      <point x="575.1379310344828" y="239.27586206896552" type="curve" smooth="yes"/>
      <point x="667.6206896551724" y="239.27586206896552"/>
      <point x="730.3103448275862" y="294.62068965517244"/>
      <point x="730.3103448275862" y="373.41379310344826" type="curve" smooth="yes"/>
      <point x="730.3103448275862" y="447.86206896551727"/>
      <point x="661.4137931034483" y="514.1034482758621"/>
      <point x="588.6206896551724" y="518.448275862069" type="curve"/>
      <point x="532.5172413793103" y="514.8965517241379" type="line"/>
      <point x="591.1379310344828" y="499.7241379310345"/>
      <point x="632.1379310344828" y="442.86206896551727"/>
      <point x="632.1379310344828" y="386.0" type="curve" smooth="yes"/>
      <point x="632.1379310344828" y="338.1034482758621"/>
      <point x="605.7586206896551" y="302.1034482758621"/>
      <point x="553.5862068965517" y="302.1034482758621" type="curve" smooth="yes"/>
      <point x="509.7931034482759" y="302.1034482758621"/>
      <point x="473.6896551724138" y="328.55172413793105"/>
      <point x="473.6896551724138" y="383.6551724137931" type="curve" smooth="yes"/>
      <point x="473.6896551724138" y="456.58620689655174"/>
      <point x="539.2758620689655" y="505.2758620689655"/>
      <point x="632.1724137931035" y="505.2758620689655" type="curve" smooth="yes"/>
      <point x="751.7241379310345" y="505.2758620689655"/>
      <point x="863.6551724137931" y="417.37931034482756"/>
      <point x="863.6551724137931" y="254.68965517241378" type="curve" smooth="yes"/>
      <point x="863.6551724137931" y="44.03448275862068"/>
      <point x="700.3103448275862" y="-73.79310344827586"/>
      <point x="453.62068965517244" y="-73.79310344827586" type="curve" smooth="yes"/>
      <point x="243.41379310344828" y="-73.79310344827586"/>
      <point x="97.72413793103448" y="20.172413793103445"/>
      <point x="97.72413793103448" y="86.58620689655173" type="curve" smooth="yes"/>
      <point x="97.72413793103448" y="103.13793103448276"/>
      <point x="105.27586206896552" y="113.41379310344827"/>
      <point x="132.27586206896552" y="113.41379310344827" type="curve" smooth="yes"/>
      <point x="1127.1724137931035" y="113.41379310344827" type="line"/>
    </contour>
  </outline>
</glyph>
<glyph name="aa-tamil" format="2">
  <advance width="1519.448275862069"/>
  <unicode hex="0B86"/>
  <note>
uni0B86
</note>
  <anchor x="746.0344827586207" y="0.0" name="bottom"/>
  <anchor x="458.86206896551727" y="-130.0" name="nukta"/>
  <anchor x="753.6206896551724" y="556.4827586206897" name="top"/>
  <anchor x="753.1724137931035" y="556.4827586206897" name="vedic"/>
  <outline>
    <contour>
      <point x="1072.8620689655172" y="-447.6896551724138" type="curve" smooth="yes"/>
      <point x="1290.0" y="-447.6896551724138"/>
      <point x="1488.8275862068965" y="-322.58620689655174"/>
      <point x="1488.8275862068965" y="-113.3103448275862" type="curve" smooth="yes"/>
      <point x="1488.8275862068965" y="-11.448275862068964"/>
      <point x="1442.1379310344828" y="55.758620689655174"/>
      <point x="1354.2758620689656" y="55.758620689655174" type="curve" smooth="yes"/>
      <point x="1268.551724137931" y="55.758620689655174"/>
      <point x="1209.4827586206898" y="-8.965517241379308"/>
      <point x="1202.2068965517242" y="-109.17241379310344" type="curve"/>
      <point x="1232.8620689655172" y="-119.79310344827586" type="line"/>
      <point x="1232.8620689655172" y="-62.41379310344828"/>
      <point x="1273.9655172413793" y="-32.96551724137931"/>
      <point x="1312.0344827586207" y="-32.96551724137931" type="curve" smooth="yes"/>
      <point x="1357.9310344827586" y="-32.96551724137931"/>
      <point x="1381.2068965517242" y="-64.51724137931035"/>
      <point x="1381.2068965517242" y="-119.93103448275862" type="curve" smooth="yes"/>
      <point x="1381.2068965517242" y="-282.0"/>
      <point x="1216.7241379310344" y="-391.7586206896552"/>
      <point x="1056.9655172413793" y="-391.7586206896552" type="curve" smooth="yes"/>
      <point x="964.551724137931" y="-391.7586206896552"/>
      <point x="856.3103448275862" y="-362.82758620689657"/>
      <point x="856.3103448275862" y="-282.7241379310345" type="curve" smooth="yes"/>
      <point x="856.3103448275862" y="-233.51724137931035"/>
      <point x="897.8275862068965" y="-199.3448275862069"/>
      <point x="966.0689655172414" y="-191.89655172413794" type="curve"/>
      <point x="952.7931034482758" y="-136.9655172413793" type="line"/>
      <point x="853.3793103448276" y="-152.24137931034483"/>
      <point x="798.3793103448276" y="-203.0344827586207"/>
      <point x="798.3793103448276" y="-278.0" type="curve" smooth="yes"/>
      <point x="798.3793103448276" y="-396.48275862068965"/>
      <point x="932.3448275862069" y="-447.6896551724138"/>
    </contour>
    <component base="a-tamil"/>
  </outline>
</glyph>
<glyph name="i-tamil" format="2">
  <advance width="1037.344827586207"/>
  <unicode hex="0B87"/>
  <note>
uni0B87
</note>
  <anchor x="503.3448275862069" y="0.0" name="bottom"/>
  <anchor x="501.3448275862069" y="-264.0689655172414" name="nukta"/>
  <anchor x="515.6896551724138" y="838.3793103448276" name="top"/>
  <anchor x="509.3448275862069" y="556.4827586206897" name="vedic"/>
  <outline>
    <contour>
      <point x="239.58620689655172" y="-304.7241379310345" type="curve" smooth="yes"/>
      <point x="550.6896551724138" y="-304.7241379310345"/>
      <point x="792.0344827586207" y="-51.62068965517241"/>
      <point x="792.0344827586207" y="237.89655172413794" type="curve" smooth="yes"/>
      <point x="792.0344827586207" y="436.37931034482756"/>
      <point x="678.1034482758621" y="561.4827586206897"/>
      <point x="498.55172413793105" y="561.4827586206897" type="curve" smooth="yes"/>
      <point x="368.2413793103448" y="561.4827586206897"/>
      <point x="268.6896551724138" y="495.13793103448273"/>
      <point x="268.6896551724138" y="382.2758620689655" type="curve" smooth="yes"/>
      <point x="268.6896551724138" y="298.8965517241379"/>
      <point x="341.2068965517241" y="242.75862068965517"/>
      <point x="419.8965517241379" y="242.75862068965517" type="curve" smooth="yes"/>
      <point x="512.0689655172414" y="242.75862068965517"/>
      <point x="570.4137931034483" y="296.62068965517244"/>
      <point x="570.4137931034483" y="374.0" type="curve" smooth="yes"/>
      <point x="570.4137931034483" y="440.9655172413793"/>
      <point x="516.0" y="506.7241379310345"/>
      <point x="416.8620689655172" y="519.7586206896551" type="curve"/>
      <point x="364.7586206896552" y="514.4827586206897" type="line"/>
      <point x="427.48275862068965" y="499.7586206896552"/>
      <point x="472.6896551724138" y="444.41379310344826"/>
      <point x="472.6896551724138" y="385.6551724137931" type="curve" smooth="yes"/>
      <point x="472.6896551724138" y="337.1034482758621"/>
      <point x="448.3103448275862" y="305.0344827586207"/>
      <point x="399.51724137931035" y="305.0344827586207" type="curve" smooth="yes"/>
      <point x="358.0" y="305.0344827586207"/>
      <point x="329.0689655172414" y="335.1034482758621"/>
      <point x="329.0689655172414" y="382.2068965517241" type="curve" smooth="yes"/>
      <point x="329.0689655172414" y="455.86206896551727"/>
      <point x="392.7931034482759" y="505.55172413793105"/>
      <point x="480.55172413793105" y="505.55172413793105" type="curve" smooth="yes"/>
      <point x="616.448275862069" y="505.55172413793105"/>
      <point x="678.1034482758621" y="398.0344827586207"/>
      <point x="678.1034482758621" y="253.72413793103448" type="curve" smooth="yes"/>
      <point x="678.1034482758621" y="-14.344827586206899"/>
      <point x="529.8275862068965" y="-248.51724137931035"/>
      <point x="251.89655172413794" y="-248.51724137931035" type="curve" smooth="yes"/>
      <point x="171.3448275862069" y="-248.51724137931035"/>
      <point x="115.06896551724138" y="-214.31034482758622"/>
      <point x="115.06896551724138" y="-150.75862068965517" type="curve" smooth="yes"/>
      <point x="115.06896551724138" y="-21.758620689655174"/>
      <point x="321.51724137931035" y="53.96551724137931"/>
      <point x="488.62068965517244" y="53.96551724137931" type="curve" smooth="yes"/>
      <point x="655.4137931034483" y="53.96551724137931"/>
      <point x="872.4137931034483" y="-7.724137931034484"/>
      <point x="872.4137931034483" y="-142.31034482758622" type="curve" smooth="yes"/>
      <point x="872.4137931034483" y="-221.0689655172414"/>
      <point x="799.6896551724138" y="-248.51724137931035"/>
      <point x="711.7241379310345" y="-248.51724137931035" type="curve" smooth="yes"/>
      <point x="445.7931034482759" y="-248.51724137931035"/>
      <point x="137.6206896551724" y="67.75862068965517"/>
      <point x="137.6206896551724" y="370.6551724137931" type="curve" smooth="yes"/>
      <point x="137.6206896551724" y="630.1379310344828"/>
      <point x="319.9655172413793" y="739.551724137931"/>
      <point x="515.1379310344828" y="739.551724137931" type="curve" smooth="yes"/>
      <point x="778.8620689655172" y="739.551724137931"/>
      <point x="914.7931034482758" y="573.2758620689655"/>
      <point x="914.7931034482758" y="308.48275862068965" type="curve" smooth="yes"/>
      <point x="914.7931034482758" y="90.96551724137932" type="line"/>
      <point x="976.1034482758621" y="90.96551724137932" type="line"/>
      <point x="976.1034482758621" y="311.2413793103448" type="line" smooth="yes"/>
      <point x="976.1034482758621" y="659.3448275862069"/>
      <point x="813.8275862068965" y="838.3793103448276"/>
      <point x="515.6896551724138" y="838.3793103448276" type="curve" smooth="yes"/>
      <point x="264.41379310344826" y="838.3793103448276"/>
      <point x="67.34482758620689" y="668.1724137931035"/>
      <point x="67.34482758620689" y="411.0" type="curve" smooth="yes"/>
      <point x="67.34482758620689" y="47.206896551724135"/>
      <point x="407.9310344827586" y="-304.44827586206895"/>
      <point x="743.551724137931" y="-304.44827586206895" type="curve" smooth="yes"/>
      <point x="855.2413793103449" y="-304.44827586206895"/>
      <point x="942.6896551724138" y="-254.24137931034483"/>
      <point x="942.6896551724138" y="-157.68965517241378" type="curve" smooth="yes"/>
      <point x="942.6896551724138" y="22.17241379310345"/>
      <point x="696.3448275862069" y="109.17241379310344"/>
      <point x="488.8965517241379" y="109.17241379310344" type="curve" smooth="yes"/>
      <point x="276.6896551724138" y="109.17241379310344"/>
      <point x="46.241379310344826" y="21.06896551724138"/>
      <point x="46.241379310344826" y="-150.48275862068965" type="curve" smooth="yes"/>
      <point x="46.241379310344826" y="-249.51724137931035"/>
      <point x="126.55172413793103" y="-304.7241379310345"/>
    </contour>
  </outline>
</glyph>
<glyph name="ii-tamil" format="2">
  <advance width="802.1034482758621"/>
  <unicode hex="0B88"/>
  <note>
uni0B88
</note>
  <anchor x="414.86206896551727" y="0.0" name="bottom"/>
  <anchor x="414.86206896551727" y="0.0" name="nukta"/>
  <anchor x="416.86206896551727" y="556.4827586206897" name="top"/>
  <anchor x="417.1379310344828" y="556.4827586206897" name="vedic"/>
  <outline>
    <contour>
      <point x="95.79310344827586" y="0.0" type="line"/>
      <point x="159.27586206896552" y="0.0" type="line"/>
      <point x="159.27586206896552" y="500.55172413793105" type="line"/>
      <point x="435.55172413793105" y="500.55172413793105" type="line"/>
      <point x="435.55172413793105" y="0.0" type="line"/>
      <point x="550.4137931034483" y="0.0" type="line"/>
      <point x="550.4137931034483" y="500.55172413793105" type="line"/>
      <point x="751.1034482758621" y="500.55172413793105" type="line"/>
      <point x="751.1034482758621" y="556.4827586206897" type="line"/>
      <point x="95.79310344827586" y="556.4827586206897" type="line"/>
    </contour>
    <contour>
      <point x="297.41379310344826" y="203.82758620689654" type="curve" smooth="yes"/>
      <point x="331.82758620689657" y="203.82758620689654"/>
      <point x="359.41379310344826" y="231.41379310344828"/>
      <point x="359.41379310344826" y="264.55172413793105" type="curve" smooth="yes"/>
      <point x="359.41379310344826" y="296.6896551724138"/>
      <point x="331.82758620689657" y="324.2758620689655"/>
      <point x="297.41379310344826" y="324.2758620689655" type="curve" smooth="yes"/>
      <point x="263.0" y="324.2758620689655"/>
      <point x="235.41379310344828" y="296.6896551724138"/>
      <point x="235.41379310344828" y="264.55172413793105" type="curve" smooth="yes"/>
      <point x="235.41379310344828" y="231.41379310344828"/>
      <point x="263.0" y="203.82758620689654"/>
    </contour>
    <contour>
      <point x="688.2758620689656" y="203.82758620689654" type="curve" smooth="yes"/>
      <point x="723.6896551724138" y="203.82758620689654"/>
      <point x="750.2758620689656" y="231.41379310344828"/>
      <point x="750.2758620689656" y="264.55172413793105" type="curve" smooth="yes"/>
      <point x="750.2758620689656" y="296.6896551724138"/>
      <point x="723.6896551724138" y="324.2758620689655"/>
      <point x="688.2758620689656" y="324.2758620689655" type="curve" smooth="yes"/>
      <point x="653.8620689655172" y="324.2758620689655"/>
      <point x="627.0" y="296.6896551724138"/>
      <point x="627.0" y="264.55172413793105" type="curve" smooth="yes"/>
      <point x="627.0" y="231.41379310344828"/>
      <point x="653.8620689655172" y="203.82758620689654"/>
    </contour>
  </outline>
</glyph>
<glyph name="u-tamil" format="2">
  <advance width="1022.2068965517242"/>
  <unicode hex="0B89"/>
  <note>
uni0B89
</note>
  <anchor x="537.7241379310345" y="0.0" name="bottom"/>
  <anchor x="537.7241379310345" y="0.0" name="nukta"/>
  <anchor x="540.2758620689655" y="556.4827586206897" name="top"/>
  <anchor x="540.7241379310345" y="556.4827586206897" name="vedic"/>
  <outline>
    <contour>
      <point x="150.9655172413793" y="0.0" type="curve" smooth="yes"/>
      <point x="1005.2413793103449" y="0.0" type="line"/>
      <point x="1005.2413793103449" y="55.93103448275862" type="line"/>
      <point x="143.51724137931035" y="55.93103448275862" type="line" smooth="yes"/>
      <point x="122.79310344827586" y="55.93103448275862"/>
      <point x="106.17241379310344" y="70.65517241379311"/>
      <point x="106.17241379310344" y="94.27586206896552" type="curve" smooth="yes"/>
      <point x="106.17241379310344" y="118.89655172413794"/>
      <point x="122.79310344827586" y="133.3448275862069"/>
      <point x="143.51724137931035" y="133.3448275862069" type="curve" smooth="yes"/>
      <point x="397.1034482758621" y="133.3448275862069" type="line" smooth="yes"/>
      <point x="553.448275862069" y="133.3448275862069"/>
      <point x="672.0" y="198.89655172413794"/>
      <point x="672.0" y="335.7241379310345" type="curve" smooth="yes"/>
      <point x="672.0" y="484.0344827586207"/>
      <point x="544.7586206896551" y="561.4827586206897"/>
      <point x="380.8965517241379" y="561.4827586206897" type="curve" smooth="yes"/>
      <point x="228.51724137931035" y="561.4827586206897"/>
      <point x="134.58620689655172" y="491.13793103448273"/>
      <point x="134.58620689655172" y="383.3448275862069" type="curve" smooth="yes"/>
      <point x="134.58620689655172" y="302.58620689655174"/>
      <point x="202.86206896551724" y="243.9655172413793"/>
      <point x="294.58620689655174" y="243.9655172413793" type="curve" smooth="yes"/>
      <point x="387.62068965517244" y="243.9655172413793"/>
      <point x="447.82758620689657" y="296.55172413793105"/>
      <point x="447.82758620689657" y="373.41379310344826" type="curve" smooth="yes"/>
      <point x="447.82758620689657" y="447.58620689655174"/>
      <point x="381.41379310344826" y="513.0"/>
      <point x="307.2413793103448" y="518.448275862069" type="curve"/>
      <point x="254.3448275862069" y="514.8965517241379" type="line"/>
      <point x="315.0" y="497.7931034482759"/>
      <point x="351.58620689655174" y="440.1034482758621"/>
      <point x="351.58620689655174" y="385.44827586206895" type="curve" smooth="yes"/>
      <point x="351.58620689655174" y="338.1034482758621"/>
      <point x="325.2068965517241" y="304.0344827586207"/>
      <point x="275.51724137931035" y="304.0344827586207" type="curve" smooth="yes"/>
      <point x="229.79310344827587" y="304.0344827586207"/>
      <point x="196.72413793103448" y="331.86206896551727"/>
      <point x="196.72413793103448" y="383.6551724137931" type="curve" smooth="yes"/>
      <point x="196.72413793103448" y="456.0344827586207"/>
      <point x="259.17241379310343" y="505.2758620689655"/>
      <point x="359.0689655172414" y="505.2758620689655" type="curve" smooth="yes"/>
      <point x="468.0344827586207" y="505.2758620689655"/>
      <point x="558.7931034482758" y="447.82758620689657"/>
      <point x="558.7931034482758" y="348.17241379310343" type="curve" smooth="yes"/>
      <point x="558.7931034482758" y="242.06896551724137"/>
      <point x="493.0689655172414" y="188.0"/>
      <point x="380.0689655172414" y="188.0" type="curve" smooth="yes"/>
      <point x="150.9655172413793" y="188.0" type="line" smooth="yes"/>
      <point x="86.9655172413793" y="188.0"/>
      <point x="46.241379310344826" y="154.82758620689654"/>
      <point x="46.241379310344826" y="94.27586206896552" type="curve" smooth="yes"/>
      <point x="46.241379310344826" y="34.724137931034484"/>
      <point x="86.9655172413793" y="0.0"/>
    </contour>
  </outline>
</glyph>
<glyph name="uu-tamil" format="2">
  <advance width="1755.0689655172414"/>
  <unicode hex="0B8A"/>
  <note>
uni0B8A
</note>
  <anchor x="911.5172413793103" y="0.0" name="bottom"/>
  <anchor x="912.2413793103449" y="0.0" name="nukta"/>
  <anchor x="915.2413793103449" y="556.4827586206897" name="top"/>
  <anchor x="914.5172413793103" y="556.4827586206897" name="vedic"/>
  <outline>
    <contour>
      <point x="150.9655172413793" y="0.0" type="curve" smooth="yes"/>
      <point x="1720.6896551724137" y="0.0" type="line"/>
      <point x="1720.6896551724137" y="55.93103448275862" type="line"/>
      <point x="143.51724137931035" y="55.93103448275862" type="line" smooth="yes"/>
      <point x="122.79310344827586" y="55.93103448275862"/>
      <point x="106.17241379310344" y="70.65517241379311"/>
      <point x="106.17241379310344" y="94.27586206896552" type="curve" smooth="yes"/>
      <point x="106.17241379310344" y="118.89655172413794"/>
      <point x="122.79310344827586" y="133.3448275862069"/>
      <point x="143.51724137931035" y="133.3448275862069" type="curve" smooth="yes"/>
      <point x="397.1034482758621" y="133.3448275862069" type="line" smooth="yes"/>
      <point x="553.448275862069" y="133.3448275862069"/>
      <point x="672.0" y="198.89655172413794"/>
      <point x="672.0" y="335.7241379310345" type="curve" smooth="yes"/>
      <point x="672.0" y="484.0344827586207"/>
      <point x="544.7586206896551" y="561.4827586206897"/>
      <point x="380.8965517241379" y="561.4827586206897" type="curve" smooth="yes"/>
      <point x="228.51724137931035" y="561.4827586206897"/>
      <point x="134.58620689655172" y="491.13793103448273"/>
      <point x="134.58620689655172" y="383.3448275862069" type="curve" smooth="yes"/>
      <point x="134.58620689655172" y="302.58620689655174"/>
      <point x="202.86206896551724" y="243.9655172413793"/>
      <point x="294.58620689655174" y="243.9655172413793" type="curve" smooth="yes"/>
      <point x="387.62068965517244" y="243.9655172413793"/>
      <point x="447.82758620689657" y="296.55172413793105"/>
      <point x="447.82758620689657" y="373.41379310344826" type="curve" smooth="yes"/>
      <point x="447.82758620689657" y="447.58620689655174"/>
      <point x="381.41379310344826" y="513.0"/>
      <point x="307.2413793103448" y="518.448275862069" type="curve"/>
      <point x="254.3448275862069" y="514.8965517241379" type="line"/>
      <point x="315.0" y="497.7931034482759"/>
      <point x="351.58620689655174" y="440.1034482758621"/>
      <point x="351.58620689655174" y="385.44827586206895" type="curve" smooth="yes"/>
      <point x="351.58620689655174" y="338.1034482758621"/>
      <point x="325.2068965517241" y="304.0344827586207"/>
      <point x="275.51724137931035" y="304.0344827586207" type="curve" smooth="yes"/>
      <point x="229.79310344827587" y="304.0344827586207"/>
      <point x="196.72413793103448" y="331.86206896551727"/>
      <point x="196.72413793103448" y="383.6551724137931" type="curve" smooth="yes"/>
      <point x="196.72413793103448" y="456.0344827586207"/>
      <point x="259.17241379310343" y="505.2758620689655"/>
      <point x="359.0689655172414" y="505.2758620689655" type="curve" smooth="yes"/>
      <point x="468.0344827586207" y="505.2758620689655"/>
      <point x="558.7931034482758" y="447.82758620689657"/>
      <point x="558.7931034482758" y="348.17241379310343" type="curve" smooth="yes"/>
      <point x="558.7931034482758" y="242.06896551724137"/>
      <point x="493.0689655172414" y="188.0"/>
      <point x="380.0689655172414" y="188.0" type="curve" smooth="yes"/>
      <point x="150.9655172413793" y="188.0" type="line" smooth="yes"/>
      <point x="86.9655172413793" y="188.0"/>
      <point x="46.241379310344826" y="154.82758620689654"/>
      <point x="46.241379310344826" y="94.27586206896552" type="curve" smooth="yes"/>
      <point x="46.241379310344826" y="34.724137931034484"/>
      <point x="86.9655172413793" y="0.0"/>
    </contour>
    <contour>
      <point x="964.3448275862069" y="108.79310344827586" type="curve" smooth="yes"/>
      <point x="1067.9655172413793" y="108.79310344827586"/>
      <point x="1128.3793103448277" y="169.17241379310346"/>
      <point x="1128.3793103448277" y="246.9655172413793" type="curve" smooth="yes"/>
      <point x="1128.3793103448277" y="335.9310344827586"/>
      <point x="1063.7586206896551" y="390.2758620689655"/>
      <point x="978.551724137931" y="390.2758620689655" type="curve" smooth="yes"/>
      <point x="899.1034482758621" y="390.2758620689655"/>
      <point x="828.9655172413793" y="330.6896551724138"/>
      <point x="816.7241379310345" y="241.79310344827587" type="curve"/>
      <point x="837.3448275862069" y="205.9655172413793" type="line"/>
      <point x="849.1379310344828" y="271.17241379310343"/>
      <point x="895.7241379310345" y="327.82758620689657"/>
      <point x="954.1724137931035" y="327.82758620689657" type="curve" smooth="yes"/>
      <point x="998.6896551724138" y="327.82758620689657"/>
      <point x="1030.1379310344828" y="297.9310344827586"/>
      <point x="1030.1379310344828" y="250.79310344827587" type="curve" smooth="yes"/>
      <point x="1030.1379310344828" y="203.58620689655172"/>
      <point x="998.551724137931" y="164.55172413793105"/>
      <point x="941.9310344827586" y="164.55172413793105" type="curve" smooth="yes"/>
      <point x="874.0344827586207" y="164.55172413793105"/>
      <point x="825.4137931034483" y="214.75862068965517"/>
      <point x="825.4137931034483" y="323.9655172413793" type="curve" smooth="yes"/>
      <point x="825.4137931034483" y="434.1034482758621"/>
      <point x="913.0689655172414" y="505.55172413793105"/>
      <point x="1016.8275862068965" y="505.55172413793105" type="curve" smooth="yes"/>
      <point x="1137.6206896551723" y="505.55172413793105"/>
      <point x="1223.0344827586207" y="427.6551724137931"/>
      <point x="1223.5862068965516" y="308.44827586206895" type="curve"/>
      <point x="1272.7586206896551" y="308.44827586206895" type="line"/>
      <point x="1271.655172413793" y="465.17241379310343"/>
      <point x="1169.5172413793102" y="561.4827586206897"/>
      <point x="1016.7586206896551" y="561.4827586206897" type="curve" smooth="yes"/>
      <point x="870.9310344827586" y="561.4827586206897"/>
      <point x="763.9310344827586" y="463.44827586206895"/>
      <point x="763.9310344827586" y="322.51724137931035" type="curve" smooth="yes"/>
      <point x="763.9310344827586" y="190.10344827586206"/>
      <point x="849.0344827586207" y="108.79310344827586"/>
    </contour>
    <contour>
      <point x="1223.5862068965516" y="111.96551724137932" type="line"/>
      <point x="1329.344827586207" y="111.96551724137932" type="line"/>
      <point x="1329.344827586207" y="502.0" type="line"/>
      <point x="1509.551724137931" y="502.0" type="line"/>
      <point x="1509.551724137931" y="111.96551724137932" type="line"/>
      <point x="1615.5862068965516" y="111.96551724137932" type="line"/>
      <point x="1615.5862068965516" y="502.0" type="line"/>
      <point x="1720.6896551724137" y="502.0" type="line"/>
      <point x="1720.6896551724137" y="556.4827586206897" type="line"/>
      <point x="1236.3103448275863" y="556.4827586206897" type="line"/>
      <point x="1236.3103448275863" y="375.41379310344826" type="line"/>
      <point x="1223.5862068965516" y="372.51724137931035" type="line"/>
    </contour>
  </outline>
</glyph>
<glyph name="e-tamil" format="2">
  <advance width="952.0689655172414"/>
  <unicode hex="0B8E"/>
  <note>
uni0B8E
</note>
  <anchor x="510.51724137931035" y="0.0" name="bottom"/>
  <anchor x="511.51724137931035" y="0.0" name="nukta"/>
  <anchor x="511.7931034482759" y="556.4827586206897" name="top"/>
  <anchor x="513.5172413793103" y="556.4827586206897" name="vedic"/>
  <outline>
    <contour>
      <point x="283.2413793103448" y="-5.0" type="curve" smooth="yes"/>
      <point x="396.9310344827586" y="-5.0"/>
      <point x="470.3103448275862" y="61.48275862068966"/>
      <point x="470.3103448275862" y="152.75862068965517" type="curve" smooth="yes"/>
      <point x="470.3103448275862" y="243.3793103448276"/>
      <point x="411.2068965517241" y="308.51724137931035"/>
      <point x="311.6896551724138" y="308.51724137931035" type="curve" smooth="yes"/>
      <point x="209.55172413793105" y="308.51724137931035"/>
      <point x="130.31034482758622" y="235.6206896551724"/>
      <point x="121.65517241379311" y="118.3103448275862" type="curve"/>
      <point x="155.24137931034483" y="93.51724137931035" type="line"/>
      <point x="160.68965517241378" y="186.75862068965517"/>
      <point x="209.41379310344828" y="238.20689655172413"/>
      <point x="273.3103448275862" y="238.20689655172413" type="curve" smooth="yes"/>
      <point x="338.37931034482756" y="238.20689655172413"/>
      <point x="367.1034482758621" y="193.0344827586207"/>
      <point x="367.1034482758621" y="148.75862068965517" type="curve" smooth="yes"/>
      <point x="367.1034482758621" y="95.96551724137932"/>
      <point x="329.48275862068965" y="52.310344827586206"/>
      <point x="261.82758620689657" y="52.310344827586206" type="curve" smooth="yes"/>
      <point x="181.48275862068965" y="52.310344827586206"/>
      <point x="117.0" y="126.3103448275862"/>
      <point x="117.0" y="253.68965517241378" type="curve" smooth="yes"/>
      <point x="117.0" y="406.55172413793105"/>
      <point x="237.58620689655172" y="500.55172413793105"/>
      <point x="416.8965517241379" y="500.55172413793105" type="curve" smooth="yes"/>
      <point x="649.3793103448276" y="500.55172413793105" type="line"/>
      <point x="649.3793103448276" y="0.0" type="line"/>
      <point x="762.5862068965517" y="0.0" type="line"/>
      <point x="762.5862068965517" y="500.55172413793105" type="line"/>
      <point x="933.6206896551724" y="500.55172413793105" type="line"/>
      <point x="933.6206896551724" y="556.4827586206897" type="line"/>
      <point x="413.0689655172414" y="556.4827586206897" type="line" smooth="yes"/>
      <point x="206.55172413793105" y="556.4827586206897"/>
      <point x="57.62068965517241" y="442.2413793103448"/>
      <point x="57.62068965517241" y="254.9655172413793" type="curve" smooth="yes"/>
      <point x="57.62068965517241" y="92.65517241379311"/>
      <point x="157.31034482758622" y="-5.0"/>
    </contour>
  </outline>
</glyph>
<glyph name="ee-tamil" format="2">
  <advance width="952.0689655172414"/>
  <unicode hex="0B8F"/>
  <note>
uni0B8F
</note>
  <anchor x="510.51724137931035" y="0.0" name="bottom"/>
  <anchor x="511.51724137931035" y="-201.89655172413794" name="nukta"/>
  <anchor x="513.5172413793103" y="556.4827586206897" name="top"/>
  <anchor x="513.5172413793103" y="556.4827586206897" name="vedic"/>
  <outline>
    <contour>
      <point x="491.9310344827586" y="-251.0344827586207" type="line"/>
      <point x="762.5862068965517" y="18.689655172413794" type="line"/>
      <point x="762.5862068965517" y="500.55172413793105" type="line"/>
      <point x="933.6206896551724" y="500.55172413793105" type="line"/>
      <point x="933.6206896551724" y="556.4827586206897" type="line"/>
      <point x="409.44827586206895" y="556.4827586206897" type="line" smooth="yes"/>
      <point x="202.9310344827586" y="556.4827586206897"/>
      <point x="57.62068965517241" y="442.2413793103448"/>
      <point x="57.62068965517241" y="254.9655172413793" type="curve" smooth="yes"/>
      <point x="57.62068965517241" y="92.65517241379311"/>
      <point x="157.31034482758622" y="-4.275862068965517"/>
      <point x="283.2413793103448" y="-4.275862068965517" type="curve" smooth="yes"/>
      <point x="396.9310344827586" y="-4.275862068965517"/>
      <point x="470.3103448275862" y="62.206896551724135"/>
      <point x="470.3103448275862" y="152.75862068965517" type="curve" smooth="yes"/>
      <point x="470.3103448275862" y="243.3793103448276"/>
      <point x="411.2068965517241" y="309.2413793103448"/>
      <point x="311.6896551724138" y="309.2413793103448" type="curve" smooth="yes"/>
      <point x="209.55172413793105" y="309.2413793103448"/>
      <point x="130.31034482758622" y="235.6206896551724"/>
      <point x="121.65517241379311" y="119.03448275862068" type="curve"/>
      <point x="155.24137931034483" y="94.24137931034483" type="line"/>
      <point x="160.68965517241378" y="187.48275862068965"/>
      <point x="209.41379310344828" y="238.20689655172413"/>
      <point x="273.3103448275862" y="238.20689655172413" type="curve" smooth="yes"/>
      <point x="338.37931034482756" y="238.20689655172413"/>
      <point x="367.1034482758621" y="193.75862068965517"/>
      <point x="367.1034482758621" y="148.75862068965517" type="curve" smooth="yes"/>
      <point x="367.1034482758621" y="96.6896551724138"/>
      <point x="329.48275862068965" y="52.310344827586206"/>
      <point x="261.82758620689657" y="52.310344827586206" type="curve" smooth="yes"/>
      <point x="181.48275862068965" y="52.310344827586206"/>
      <point x="117.0" y="124.93103448275862"/>
      <point x="117.0" y="253.68965517241378" type="curve" smooth="yes"/>
      <point x="117.0" y="406.55172413793105"/>
      <point x="237.58620689655172" y="500.55172413793105"/>
      <point x="416.8965517241379" y="500.55172413793105" type="curve" smooth="yes"/>
      <point x="649.3793103448276" y="500.55172413793105" type="line"/>
      <point x="649.3793103448276" y="-6.413793103448277" type="line"/>
      <point x="449.6551724137931" y="-207.0" type="line"/>
    </contour>
  </outline>
</glyph>
<glyph name="ai-tamil" format="2">
  <advance width="1020.7241379310345"/>
  <unicode hex="0B90"/>
  <note>
uni0B90
</note>
  <anchor x="515.7931034482758" y="0.0" name="bottom"/>
  <anchor x="509.2758620689655" y="-303.7241379310345" name="nukta"/>
  <anchor x="525.0" y="556.4827586206897" name="top"/>
  <anchor x="524.551724137931" y="556.4827586206897" name="vedic"/>
  <outline>
    <contour>
      <point x="307.7241379310345" y="-303.7241379310345" type="curve" smooth="yes"/>
      <point x="418.48275862068965" y="-303.7241379310345"/>
      <point x="503.3103448275862" y="-262.7241379310345"/>
      <point x="528.1724137931035" y="-176.10344827586206" type="curve"/>
      <point x="550.9310344827586" y="-243.3793103448276"/>
      <point x="625.2413793103449" y="-303.7241379310345"/>
      <point x="735.5172413793103" y="-303.7241379310345" type="curve" smooth="yes"/>
      <point x="871.8965517241379" y="-303.7241379310345"/>
      <point x="964.1034482758621" y="-236.17241379310346"/>
      <point x="964.1034482758621" y="-105.51724137931035" type="curve" smooth="yes"/>
      <point x="964.1034482758621" y="-42.06896551724138"/>
      <point x="936.0344827586207" y="16.379310344827587"/>
      <point x="886.5862068965517" y="73.58620689655173" type="curve"/>
      <point x="844.3793103448276" y="41.13793103448276" type="line"/>
      <point x="886.3793103448276" y="-6.172413793103449"/>
      <point x="903.1724137931035" y="-51.13793103448276"/>
      <point x="903.1724137931035" y="-97.6896551724138" type="curve" smooth="yes"/>
      <point x="903.1724137931035" y="-199.17241379310346"/>
      <point x="836.4827586206897" y="-242.72413793103448"/>
      <point x="735.5172413793103" y="-242.72413793103448" type="curve" smooth="yes"/>
      <point x="639.5172413793103" y="-242.72413793103448"/>
      <point x="588.6551724137931" y="-171.0"/>
      <point x="588.6551724137931" y="-75.65517241379311" type="curve" smooth="yes"/>
      <point x="588.6551724137931" y="-37.96551724137931" type="line"/>
      <point x="475.3448275862069" y="-37.96551724137931" type="line"/>
      <point x="475.3448275862069" y="-87.72413793103448" type="line" smooth="yes"/>
      <point x="475.3448275862069" y="-196.0"/>
      <point x="417.86206896551727" y="-247.0689655172414"/>
      <point x="319.8965517241379" y="-247.0689655172414" type="curve" smooth="yes"/>
      <point x="230.6206896551724" y="-247.0689655172414"/>
      <point x="172.20689655172413" y="-206.3793103448276"/>
      <point x="172.20689655172413" y="-118.93103448275862" type="curve" smooth="yes"/>
      <point x="172.20689655172413" y="36.41379310344828"/>
      <point x="323.7931034482759" y="63.724137931034484"/>
      <point x="551.1034482758621" y="77.10344827586206" type="curve" smooth="yes"/>
      <point x="763.4827586206897" y="90.3103448275862"/>
      <point x="960.4827586206897" y="142.24137931034483"/>
      <point x="960.4827586206897" y="342.7586206896552" type="curve" smooth="yes"/>
      <point x="960.4827586206897" y="503.3448275862069"/>
      <point x="853.0344827586207" y="561.7586206896551"/>
      <point x="734.2413793103449" y="561.7586206896551" type="curve" smooth="yes"/>
      <point x="639.9655172413793" y="561.7586206896551"/>
      <point x="565.8965517241379" y="518.3793103448276"/>
      <point x="536.551724137931" y="435.9655172413793" type="curve"/>
      <point x="501.1034482758621" y="518.551724137931"/>
      <point x="412.58620689655174" y="561.7586206896551"/>
      <point x="316.2068965517241" y="561.7586206896551" type="curve" smooth="yes"/>
      <point x="170.89655172413794" y="561.7586206896551"/>
      <point x="61.89655172413793" y="480.6896551724138"/>
      <point x="61.89655172413793" y="349.82758620689657" type="curve" smooth="yes"/>
      <point x="61.89655172413793" y="238.55172413793105"/>
      <point x="135.75862068965517" y="156.82758620689654"/>
      <point x="239.3448275862069" y="156.82758620689654" type="curve" smooth="yes"/>
      <point x="331.55172413793105" y="156.82758620689654"/>
      <point x="394.2068965517241" y="203.3448275862069"/>
      <point x="394.2068965517241" y="279.0344827586207" type="curve" smooth="yes"/>
      <point x="394.2068965517241" y="361.55172413793105"/>
      <point x="338.6551724137931" y="411.44827586206895"/>
      <point x="259.17241379310343" y="411.44827586206895" type="curve" smooth="yes"/>
      <point x="197.75862068965517" y="411.44827586206895"/>
      <point x="118.58620689655173" y="375.51724137931035"/>
      <point x="107.86206896551724" y="254.55172413793105" type="curve"/>
      <point x="137.6206896551724" y="223.72413793103448" type="line"/>
      <point x="145.51724137931035" y="318.9655172413793"/>
      <point x="190.24137931034483" y="351.7241379310345"/>
      <point x="230.89655172413794" y="351.7241379310345" type="curve" smooth="yes"/>
      <point x="271.8965517241379" y="351.7241379310345"/>
      <point x="297.8965517241379" y="324.2758620689655"/>
      <point x="297.8965517241379" y="281.2068965517241" type="curve" smooth="yes"/>
      <point x="297.8965517241379" y="238.10344827586206"/>
      <point x="270.6896551724138" y="213.0344827586207"/>
      <point x="228.31034482758622" y="213.0344827586207" type="curve" smooth="yes"/>
      <point x="173.72413793103448" y="213.0344827586207"/>
      <point x="122.0" y="249.6206896551724"/>
      <point x="122.0" y="346.2068965517241" type="curve" smooth="yes"/>
      <point x="122.0" y="451.3103448275862"/>
      <point x="206.93103448275863" y="505.55172413793105"/>
      <point x="299.2413793103448" y="505.55172413793105" type="curve" smooth="yes"/>
      <point x="404.0689655172414" y="505.55172413793105"/>
      <point x="475.3448275862069" y="449.41379310344826"/>
      <point x="475.3448275862069" y="338.82758620689657" type="curve" smooth="yes"/>
      <point x="475.3448275862069" y="215.55172413793105" type="line"/>
      <point x="588.6551724137931" y="215.55172413793105" type="line"/>
      <point x="588.6551724137931" y="360.9655172413793" type="line" smooth="yes"/>
      <point x="588.6551724137931" y="444.2413793103448"/>
      <point x="636.0689655172414" y="505.55172413793105"/>
      <point x="718.2068965517242" y="505.55172413793105" type="curve" smooth="yes"/>
      <point x="807.448275862069" y="505.55172413793105"/>
      <point x="845.8965517241379" y="448.0344827586207"/>
      <point x="845.8965517241379" y="355.7931034482759" type="curve" smooth="yes"/>
      <point x="845.8965517241379" y="189.13793103448276"/>
      <point x="721.2068965517242" y="134.0344827586207"/>
      <point x="471.6551724137931" y="119.93103448275862" type="curve" smooth="yes"/>
      <point x="229.6206896551724" y="106.55172413793103"/>
      <point x="57.62068965517241" y="64.48275862068965"/>
      <point x="57.62068965517241" y="-106.65517241379311" type="curve" smooth="yes"/>
      <point x="57.62068965517241" y="-233.0"/>
      <point x="161.27586206896552" y="-303.7241379310345"/>
    </contour>
  </outline>
</glyph>
<glyph name="o-tamil" format="2">
  <advance width="1031.5862068965516"/>
  <unicode hex="0B92"/>
  <note>
uni0B92
</note>
  <anchor x="525.7241379310345" y="0.0" name="bottom"/>
  <anchor x="523.7241379310345" y="-335.0" name="nukta"/>
  <anchor x="518.7241379310345" y="556.4827586206897" name="top"/>
  <anchor x="518.7241379310345" y="556.4827586206897" name="vedic"/>
  <outline>
    <contour>
      <point x="384.9310344827586" y="-349.58620689655174" type="curve" smooth="yes"/>
      <point x="612.8965517241379" y="-349.58620689655174"/>
      <point x="611.0689655172414" y="-150.41379310344828"/>
      <point x="789.1034482758621" y="-150.41379310344828" type="curve" smooth="yes"/>
      <point x="833.4137931034483" y="-150.41379310344828" type="line"/>
      <point x="833.4137931034483" y="-93.82758620689656" type="line"/>
      <point x="780.8275862068965" y="-93.82758620689656" type="line" smooth="yes"/>
      <point x="622.6551724137931" y="-93.82758620689656"/>
      <point x="514.1034482758621" y="75.13793103448276"/>
      <point x="629.7241379310345" y="213.79310344827587" type="curve"/>
      <point x="635.0" y="210.0689655172414" type="line"/>
      <point x="594.2758620689655" y="121.10344827586206"/>
      <point x="632.6206896551724" y="-5.0"/>
      <point x="775.0" y="-5.0" type="curve" smooth="yes"/>
      <point x="888.2413793103449" y="-5.0"/>
      <point x="974.9655172413793" y="78.44827586206897"/>
      <point x="974.9655172413793" y="201.27586206896552" type="curve" smooth="yes"/>
      <point x="974.9655172413793" y="419.0689655172414"/>
      <point x="757.7586206896551" y="561.4827586206897"/>
      <point x="498.6896551724138" y="561.4827586206897" type="curve" smooth="yes"/>
      <point x="266.8965517241379" y="561.4827586206897"/>
      <point x="57.62068965517241" y="443.9655172413793"/>
      <point x="57.62068965517241" y="228.6551724137931" type="curve" smooth="yes"/>
      <point x="57.62068965517241" y="85.62068965517241"/>
      <point x="158.75862068965517" y="-5.0"/>
      <point x="281.86206896551727" y="-5.0" type="curve" smooth="yes"/>
      <point x="394.44827586206895" y="-5.0"/>
      <point x="467.55172413793105" y="62.206896551724135"/>
      <point x="467.55172413793105" y="152.75862068965517" type="curve" smooth="yes"/>
      <point x="467.55172413793105" y="243.3793103448276"/>
      <point x="408.44827586206895" y="309.2413793103448"/>
      <point x="310.3103448275862" y="309.2413793103448" type="curve" smooth="yes"/>
      <point x="208.17241379310346" y="309.2413793103448"/>
      <point x="127.55172413793103" y="234.51724137931035"/>
      <point x="119.17241379310344" y="116.27586206896552" type="curve"/>
      <point x="152.48275862068965" y="91.48275862068965" type="line"/>
      <point x="157.93103448275863" y="186.10344827586206"/>
      <point x="208.0344827586207" y="238.20689655172413"/>
      <point x="271.9310344827586" y="238.20689655172413" type="curve" smooth="yes"/>
      <point x="335.8965517241379" y="238.20689655172413"/>
      <point x="364.3448275862069" y="193.75862068965517"/>
      <point x="364.3448275862069" y="148.75862068965517" type="curve" smooth="yes"/>
      <point x="364.3448275862069" y="96.6896551724138"/>
      <point x="326.7241379310345" y="52.310344827586206"/>
      <point x="260.44827586206895" y="52.310344827586206" type="curve" smooth="yes"/>
      <point x="182.20689655172413" y="52.310344827586206"/>
      <point x="117.0" y="117.79310344827586"/>
      <point x="117.0" y="227.20689655172413" type="curve" smooth="yes"/>
      <point x="117.0" y="405.86206896551727"/>
      <point x="302.17241379310343" y="507.48275862068965"/>
      <point x="500.13793103448273" y="507.48275862068965" type="curve" smooth="yes"/>
      <point x="708.0344827586207" y="507.48275862068965"/>
      <point x="863.9655172413793" y="398.9655172413793"/>
      <point x="863.9655172413793" y="216.51724137931035" type="curve" smooth="yes"/>
      <point x="863.9655172413793" y="126.06896551724138"/>
      <point x="825.9310344827586" y="52.310344827586206"/>
      <point x="753.448275862069" y="52.310344827586206" type="curve" smooth="yes"/>
      <point x="659.7586206896551" y="52.310344827586206"/>
      <point x="647.6551724137931" y="172.31034482758622"/>
      <point x="714.8965517241379" y="264.41379310344826" type="curve"/>
      <point x="657.2413793103449" y="308.9655172413793" type="line"/>
      <point x="478.1379310344828" y="184.31034482758622"/>
      <point x="502.7586206896552" y="-40.51724137931034"/>
      <point x="649.6551724137931" y="-115.0" type="curve"/>
      <point x="649.6551724137931" y="-120.0" type="line"/>
      <point x="510.37931034482756" y="-131.20689655172413"/>
      <point x="493.17241379310343" y="-283.0344827586207"/>
      <point x="353.6896551724138" y="-283.0344827586207" type="curve" smooth="yes"/>
      <point x="299.2758620689655" y="-283.0344827586207"/>
      <point x="261.37931034482756" y="-249.55172413793105"/>
      <point x="261.37931034482756" y="-198.3793103448276" type="curve" smooth="yes"/>
      <point x="261.37931034482756" y="-159.6551724137931"/>
      <point x="279.9310344827586" y="-131.44827586206895"/>
      <point x="320.58620689655174" y="-103.55172413793103" type="curve"/>
      <point x="282.9655172413793" y="-61.17241379310345" type="line"/>
      <point x="228.0344827586207" y="-101.06896551724138"/>
      <point x="203.20689655172413" y="-142.55172413793105"/>
      <point x="203.20689655172413" y="-195.72413793103448" type="curve" smooth="yes"/>
      <point x="203.20689655172413" y="-284.44827586206895"/>
      <point x="279.37931034482756" y="-349.58620689655174"/>
    </contour>
  </outline>
</glyph>
<glyph name="oo-tamil" format="2">
  <advance width="1031.5862068965516"/>
  <unicode hex="0B93"/>
  <note>
uni0B93
</note>
  <anchor x="507.7586206896552" y="0.0" name="bottom"/>
  <anchor x="505.7586206896552" y="-327.1379310344828" name="nukta"/>
  <anchor x="500.7586206896552" y="556.4827586206897" name="top"/>
  <anchor x="500.7586206896552" y="556.4827586206897" name="vedic"/>
  <outline>
    <contour>
      <point x="365.17241379310343" y="-365.1034482758621" type="curve" smooth="yes"/>
      <point x="618.448275862069" y="-365.1034482758621"/>
      <point x="610.5862068965517" y="-150.41379310344828"/>
      <point x="774.3448275862069" y="-150.41379310344828" type="curve" smooth="yes"/>
      <point x="820.3793103448276" y="-150.41379310344828" type="line"/>
      <point x="820.3793103448276" y="-93.82758620689656" type="line"/>
      <point x="776.7931034482758" y="-93.82758620689656" type="line" smooth="yes"/>
      <point x="617.2413793103449" y="-93.82758620689656"/>
      <point x="514.9310344827586" y="78.17241379310346"/>
      <point x="625.8620689655172" y="213.79310344827587" type="curve"/>
      <point x="631.4137931034483" y="209.79310344827587" type="line"/>
      <point x="591.7931034482758" y="120.82758620689656"/>
      <point x="632.6206896551724" y="-5.0"/>
      <point x="775.0" y="-5.0" type="curve" smooth="yes"/>
      <point x="888.2413793103449" y="-5.0"/>
      <point x="974.9655172413793" y="78.44827586206897"/>
      <point x="974.9655172413793" y="201.27586206896552" type="curve" smooth="yes"/>
      <point x="974.9655172413793" y="419.0689655172414"/>
      <point x="757.7586206896551" y="561.4827586206897"/>
      <point x="498.6896551724138" y="561.4827586206897" type="curve" smooth="yes"/>
      <point x="266.8965517241379" y="561.4827586206897"/>
      <point x="57.62068965517241" y="443.9655172413793"/>
      <point x="57.62068965517241" y="228.6551724137931" type="curve" smooth="yes"/>
      <point x="57.62068965517241" y="85.62068965517241"/>
      <point x="158.75862068965517" y="-5.0"/>
      <point x="281.86206896551727" y="-5.0" type="curve" smooth="yes"/>
      <point x="394.44827586206895" y="-5.0"/>
      <point x="467.55172413793105" y="62.206896551724135"/>
      <point x="467.55172413793105" y="152.75862068965517" type="curve" smooth="yes"/>
      <point x="467.55172413793105" y="243.3793103448276"/>
      <point x="408.44827586206895" y="309.2413793103448"/>
      <point x="310.3103448275862" y="309.2413793103448" type="curve" smooth="yes"/>
      <point x="208.17241379310346" y="309.2413793103448"/>
      <point x="127.55172413793103" y="234.51724137931035"/>
      <point x="119.17241379310344" y="116.27586206896552" type="curve"/>
      <point x="152.48275862068965" y="91.48275862068965" type="line"/>
      <point x="157.93103448275863" y="186.10344827586206"/>
      <point x="208.0344827586207" y="238.20689655172413"/>
      <point x="271.9310344827586" y="238.20689655172413" type="curve" smooth="yes"/>
      <point x="335.8965517241379" y="238.20689655172413"/>
      <point x="364.3448275862069" y="193.75862068965517"/>
      <point x="364.3448275862069" y="148.75862068965517" type="curve" smooth="yes"/>
      <point x="364.3448275862069" y="96.6896551724138"/>
      <point x="326.7241379310345" y="52.310344827586206"/>
      <point x="260.44827586206895" y="52.310344827586206" type="curve" smooth="yes"/>
      <point x="182.20689655172413" y="52.310344827586206"/>
      <point x="117.0" y="117.79310344827586"/>
      <point x="117.0" y="227.20689655172413" type="curve" smooth="yes"/>
      <point x="117.0" y="405.86206896551727"/>
      <point x="302.17241379310343" y="507.48275862068965"/>
      <point x="500.13793103448273" y="507.48275862068965" type="curve" smooth="yes"/>
      <point x="708.0344827586207" y="507.48275862068965"/>
      <point x="863.9655172413793" y="398.9655172413793"/>
      <point x="863.9655172413793" y="216.51724137931035" type="curve" smooth="yes"/>
      <point x="863.9655172413793" y="126.06896551724138"/>
      <point x="825.9310344827586" y="52.310344827586206"/>
      <point x="753.448275862069" y="52.310344827586206" type="curve" smooth="yes"/>
      <point x="659.7586206896551" y="52.310344827586206"/>
      <point x="643.5172413793103" y="172.31034482758622"/>
      <point x="711.0344827586207" y="264.41379310344826" type="curve"/>
      <point x="653.3793103448276" y="308.9655172413793" type="line"/>
      <point x="473.44827586206895" y="183.20689655172413"/>
      <point x="498.2758620689655" y="-41.06896551724138"/>
      <point x="646.551724137931" y="-115.55172413793103" type="curve"/>
      <point x="646.551724137931" y="-120.55172413793103" type="line"/>
      <point x="506.0689655172414" y="-133.44827586206895"/>
      <point x="494.7586206896552" y="-299.3793103448276"/>
      <point x="331.6551724137931" y="-299.3793103448276" type="curve" smooth="yes"/>
      <point x="262.58620689655174" y="-299.3793103448276"/>
      <point x="232.27586206896552" y="-260.2068965517241"/>
      <point x="232.27586206896552" y="-214.10344827586206" type="curve" smooth="yes"/>
      <point x="232.27586206896552" y="-170.55172413793105"/>
      <point x="270.0" y="-144.24137931034483"/>
      <point x="308.6551724137931" y="-144.24137931034483" type="curve" smooth="yes"/>
      <point x="347.6896551724138" y="-144.24137931034483"/>
      <point x="381.3103448275862" y="-163.72413793103448"/>
      <point x="394.9655172413793" y="-205.44827586206895" type="curve"/>
      <point x="429.6896551724138" y="-189.58620689655172"/>
      <point x="453.44827586206895" y="-159.75862068965517"/>
      <point x="453.44827586206895" y="-131.6206896551724" type="curve" smooth="yes"/>
      <point x="453.44827586206895" y="-83.6896551724138"/>
      <point x="405.7586206896552" y="-58.6551724137931"/>
      <point x="351.62068965517244" y="-58.6551724137931" type="curve" smooth="yes"/>
      <point x="267.51724137931035" y="-58.6551724137931"/>
      <point x="173.27586206896552" y="-108.06896551724138"/>
      <point x="173.27586206896552" y="-209.55172413793105" type="curve" smooth="yes"/>
      <point x="173.27586206896552" y="-306.86206896551727"/>
      <point x="257.44827586206895" y="-365.1034482758621"/>
    </contour>
  </outline>
</glyph>
<glyph name="au-tamil" format="2">
  <advance width="2281.689655172414"/>
  <unicode hex="0B94"/>
  <note>
uni0B94
</note>
  <anchor x="1160.4827586206898" y="0.0" name="bottom"/>
  <anchor x="1247.8275862068965" y="0.0" name="nukta"/>
  <anchor x="1153.4827586206898" y="556.4827586206897" name="top"/>
  <anchor x="1153.4827586206898" y="556.4827586206897" name="vedic"/>
  <outline>
    <contour>
      <point x="1283.5172413793102" y="-4.275862068965517" type="curve" smooth="yes"/>
      <point x="1396.4827586206898" y="-4.275862068965517"/>
      <point x="1470.3103448275863" y="62.206896551724135"/>
      <point x="1470.3103448275863" y="152.75862068965517" type="curve" smooth="yes"/>
      <point x="1470.3103448275863" y="243.3793103448276"/>
      <point x="1410.4827586206898" y="309.2413793103448"/>
      <point x="1311.2413793103449" y="309.2413793103448" type="curve" smooth="yes"/>
      <point x="1209.8275862068965" y="309.2413793103448"/>
      <point x="1130.5862068965516" y="235.6206896551724"/>
      <point x="1121.9310344827586" y="119.03448275862068" type="curve"/>
      <point x="1155.5172413793102" y="94.24137931034483" type="line"/>
      <point x="1160.9655172413793" y="187.48275862068965"/>
      <point x="1209.6896551724137" y="238.20689655172413"/>
      <point x="1272.8620689655172" y="238.20689655172413" type="curve" smooth="yes"/>
      <point x="1338.655172413793" y="238.20689655172413"/>
      <point x="1367.3793103448277" y="193.75862068965517"/>
      <point x="1367.3793103448277" y="148.75862068965517" type="curve" smooth="yes"/>
      <point x="1367.3793103448277" y="96.6896551724138"/>
      <point x="1329.7586206896551" y="52.310344827586206"/>
      <point x="1262.103448275862" y="52.310344827586206" type="curve" smooth="yes"/>
      <point x="1181.0344827586207" y="52.310344827586206"/>
      <point x="1117.2758620689656" y="126.3103448275862"/>
      <point x="1117.2758620689656" y="253.68965517241378" type="curve" smooth="yes"/>
      <point x="1117.2758620689656" y="408.6551724137931"/>
      <point x="1228.551724137931" y="505.55172413793105"/>
      <point x="1390.448275862069" y="505.55172413793105" type="curve" smooth="yes"/>
      <point x="1543.655172413793" y="505.55172413793105"/>
      <point x="1650.3793103448277" y="423.86206896551727"/>
      <point x="1650.3793103448277" y="280.86206896551727" type="curve"/>
      <point x="1707.0344827586207" y="287.3448275862069" type="line"/>
      <point x="1697.344827586207" y="464.37931034482756"/>
      <point x="1568.1724137931035" y="561.4827586206897"/>
      <point x="1387.1379310344828" y="561.4827586206897" type="curve" smooth="yes"/>
      <point x="1195.344827586207" y="561.4827586206897"/>
      <point x="1057.1724137931035" y="444.3448275862069"/>
      <point x="1057.1724137931035" y="254.9655172413793" type="curve" smooth="yes"/>
      <point x="1057.1724137931035" y="92.65517241379311"/>
      <point x="1157.5862068965516" y="-4.275862068965517"/>
    </contour>
    <contour>
      <point x="1650.3793103448277" y="0.0" type="line"/>
      <point x="1762.8620689655172" y="0.0" type="line"/>
      <point x="1762.8620689655172" y="500.55172413793105" type="line"/>
      <point x="1979.2758620689656" y="500.55172413793105" type="line"/>
      <point x="1979.2758620689656" y="0.0" type="line"/>
      <point x="2092.4827586206898" y="0.0" type="line"/>
      <point x="2092.4827586206898" y="500.55172413793105" type="line"/>
      <point x="2263.2413793103447" y="500.55172413793105" type="line"/>
      <point x="2263.2413793103447" y="556.4827586206897" type="line"/>
      <point x="1662.655172413793" y="556.4827586206897" type="line"/>
      <point x="1662.655172413793" y="377.8965517241379" type="line"/>
      <point x="1650.3793103448277" y="378.41379310344826" type="line"/>
    </contour>
    <component base="o-tamil"/>
  </outline>
</glyph>
<glyph name="nga-tamil" format="2">
  <advance width="1044.4137931034484"/>
  <unicode hex="0B99"/>
  <note>
uni0B99
</note>
  <anchor x="521.6551724137931" y="0.0" name="bottom"/>
  <anchor x="580.7586206896551" y="556.4827586206897" name="imatra"/>
  <anchor x="521.9310344827586" y="0.0" name="nukta"/>
  <anchor x="520.8275862068965" y="556.4827586206897" name="top"/>
  <anchor x="521.9310344827586" y="556.4827586206897" name="vedic"/>
  <outline>
    <contour>
      <point x="95.79310344827586" y="0.0" type="line"/>
      <point x="157.3448275862069" y="0.0" type="line"/>
      <point x="157.3448275862069" y="500.55172413793105" type="line"/>
      <point x="326.62068965517244" y="500.55172413793105" type="line"/>
      <point x="326.62068965517244" y="190.20689655172413" type="line"/>
      <point x="436.2413793103448" y="190.20689655172413" type="line"/>
      <point x="436.2413793103448" y="221.3448275862069" type="line" smooth="yes"/>
      <point x="436.2413793103448" y="272.0344827586207"/>
      <point x="468.41379310344826" y="306.3448275862069"/>
      <point x="515.7241379310345" y="306.3448275862069" type="curve" smooth="yes"/>
      <point x="565.7586206896551" y="306.3448275862069"/>
      <point x="602.0" y="267.48275862068965"/>
      <point x="602.0" y="207.24137931034483" type="curve" smooth="yes"/>
      <point x="602.0" y="98.13793103448276"/>
      <point x="509.9310344827586" y="55.93103448275862"/>
      <point x="438.3448275862069" y="55.93103448275862" type="curve" smooth="yes"/>
      <point x="326.62068965517244" y="55.93103448275862" type="line"/>
      <point x="326.62068965517244" y="0.0" type="line"/>
      <point x="949.0689655172414" y="0.0" type="line"/>
      <point x="949.0689655172414" y="556.4827586206897" type="line"/>
      <point x="834.7586206896551" y="556.4827586206897" type="line"/>
      <point x="834.7586206896551" y="55.93103448275862" type="line"/>
      <point x="571.5862068965517" y="55.93103448275862" type="line"/>
      <point x="642.6206896551724" y="70.82758620689656"/>
      <point x="711.0" y="134.68965517241378"/>
      <point x="711.0" y="226.82758620689654" type="curve" smooth="yes"/>
      <point x="711.0" y="316.6551724137931"/>
      <point x="644.1034482758621" y="380.1034482758621"/>
      <point x="555.7241379310345" y="380.1034482758621" type="curve" smooth="yes"/>
      <point x="490.7586206896552" y="380.1034482758621"/>
      <point x="450.37931034482756" y="343.2413793103448"/>
      <point x="437.8965517241379" y="316.2413793103448" type="curve"/>
      <point x="437.8965517241379" y="500.55172413793105" type="line"/>
      <point x="607.9310344827586" y="500.55172413793105" type="line"/>
      <point x="607.9310344827586" y="556.4827586206897" type="line"/>
      <point x="95.79310344827586" y="556.4827586206897" type="line"/>
    </contour>
  </outline>
</glyph>
<glyph name="nya-tamil" format="2">
  <advance width="1339.3103448275863"/>
  <unicode hex="0B9E"/>
  <note>
uni0B9E
</note>
  <anchor x="704.3793103448276" y="0.0" name="bottom"/>
  <anchor x="1065.5172413793102" y="556.4827586206897" name="imatra"/>
  <anchor x="704.3793103448276" y="-357.1034482758621" name="nukta"/>
  <anchor x="702.551724137931" y="556.4827586206897" name="top"/>
  <anchor x="671.9310344827586" y="556.4827586206897" name="vedic"/>
  <outline>
    <contour>
      <point x="704.3793103448276" y="-357.1034482758621" type="curve" smooth="yes"/>
      <point x="1034.3793103448277" y="-357.1034482758621"/>
      <point x="1282.6896551724137" y="-168.3448275862069"/>
      <point x="1282.6896551724137" y="106.9655172413793" type="curve" smooth="yes"/>
      <point x="1282.6896551724137" y="251.55172413793105"/>
      <point x="1203.9655172413793" y="343.8965517241379"/>
      <point x="1091.344827586207" y="343.8965517241379" type="curve" smooth="yes"/>
      <point x="1001.551724137931" y="343.8965517241379"/>
      <point x="938.7931034482758" y="280.44827586206895"/>
      <point x="938.7931034482758" y="181.13793103448276" type="curve" smooth="yes"/>
      <point x="938.7931034482758" y="137.72413793103448" type="line"/>
      <point x="967.7241379310345" y="137.72413793103448" type="line"/>
      <point x="967.7241379310345" y="179.13793103448276" type="line" smooth="yes"/>
      <point x="967.7241379310345" y="232.68965517241378"/>
      <point x="1000.1034482758621" y="276.62068965517244"/>
      <point x="1055.4137931034484" y="276.62068965517244" type="curve" smooth="yes"/>
      <point x="1128.1724137931035" y="276.62068965517244"/>
      <point x="1168.3793103448277" y="214.72413793103448"/>
      <point x="1168.3793103448277" y="105.48275862068965" type="curve" smooth="yes"/>
      <point x="1168.3793103448277" y="-148.68965517241378"/>
      <point x="966.7241379310345" y="-301.17241379310343"/>
      <point x="697.448275862069" y="-301.17241379310343" type="curve" smooth="yes"/>
      <point x="384.41379310344826" y="-301.17241379310343"/>
      <point x="121.37931034482759" y="-102.13793103448276"/>
      <point x="121.37931034482759" y="223.75862068965517" type="curve" smooth="yes"/>
      <point x="121.37931034482759" y="414.7931034482759"/>
      <point x="196.41379310344828" y="542.6206896551724"/>
      <point x="333.0" y="626.9310344827586" type="curve"/>
      <point x="296.41379310344826" y="675.1379310344828" type="line"/>
      <point x="154.44827586206895" y="585.8965517241379"/>
      <point x="61.89655172413793" y="437.6896551724138"/>
      <point x="61.89655172413793" y="223.75862068965517" type="curve" smooth="yes"/>
      <point x="61.89655172413793" y="-85.17241379310346"/>
      <point x="299.1034482758621" y="-357.1034482758621"/>
    </contour>
    <component base="e-tamil" xOffset="213.48275862068965"/>
  </outline>
</glyph>
<glyph name="tta-tamil" format="2">
  <advance width="918.3448275862069"/>
  <unicode hex="0B9F"/>
  <note>
uni0B9F
</note>
  <anchor x="489.58620689655174" y="0.0" name="bottom"/>
  <anchor x="489.58620689655174" y="0.0" name="nukta"/>
  <anchor x="544.6551724137931" y="556.4827586206897" name="top"/>
  <anchor x="500.62068965517244" y="556.4827586206897" name="vedic"/>
  <outline>
    <contour>
      <point x="95.79310344827586" y="0.0" type="line"/>
      <point x="905.448275862069" y="0.0" type="line"/>
      <point x="905.448275862069" y="55.93103448275862" type="line"/>
      <point x="209.3793103448276" y="55.93103448275862" type="line"/>
      <point x="209.3793103448276" y="556.4827586206897" type="line"/>
      <point x="95.79310344827586" y="556.4827586206897" type="line"/>
    </contour>
  </outline>
</glyph>
<glyph name="pa-tamil" format="2">
  <advance width="916.7586206896551"/>
  <unicode hex="0BAA"/>
  <note>
uni0BAA
</note>
  <anchor x="458.37931034482756" y="0.0" name="bottom"/>
  <anchor x="811.6896551724138" y="556.4827586206897" name="imatra"/>
  <anchor x="458.37931034482756" y="0.0" name="nukta"/>
  <anchor x="457.2758620689655" y="556.4827586206897" name="top"/>
  <anchor x="458.37931034482756" y="556.4827586206897" name="vedic"/>
  <outline>
    <contour>
      <point x="95.79310344827586" y="0.0" type="line"/>
      <point x="821.4137931034483" y="0.0" type="line"/>
      <point x="821.4137931034483" y="556.4827586206897" type="line"/>
      <point x="707.1034482758621" y="556.4827586206897" type="line"/>
      <point x="707.1034482758621" y="55.93103448275862" type="line"/>
      <point x="208.27586206896552" y="55.93103448275862" type="line"/>
      <point x="208.27586206896552" y="556.4827586206897" type="line"/>
      <point x="95.79310344827586" y="556.4827586206897" type="line"/>
    </contour>
  </outline>
</glyph>
<glyph name="ra-tamil" format="2">
  <advance width="667.1034482758621"/>
  <unicode hex="0BB0"/>
  <note>
uni0BB0
</note>
  <anchor x="333.41379310344826" y="0.0" name="bottom"/>
  <anchor x="571.2413793103449" y="556.4827586206897" name="imatra"/>
  <anchor x="333.41379310344826" y="-207.0" name="nukta"/>
  <anchor x="359.62068965517244" y="556.4827586206897" name="top"/>
  <anchor x="371.86206896551727" y="556.4827586206897" name="vedic"/>
  <outline>
    <contour>
      <point x="206.0344827586207" y="-251.0344827586207" type="line"/>
      <point x="477.8965517241379" y="20.344827586206897" type="line"/>
      <point x="477.8965517241379" y="500.55172413793105" type="line"/>
      <point x="648.6551724137931" y="500.55172413793105" type="line"/>
      <point x="648.6551724137931" y="556.4827586206897" type="line"/>
      <point x="95.79310344827586" y="556.4827586206897" type="line"/>
      <point x="95.79310344827586" y="0.0" type="line"/>
      <point x="159.27586206896552" y="0.0" type="line"/>
      <point x="159.27586206896552" y="500.55172413793105" type="line"/>
      <point x="363.7586206896552" y="500.55172413793105" type="line"/>
      <point x="363.7586206896552" y="-6.413793103448277" type="line"/>
      <point x="163.75862068965517" y="-207.0" type="line"/>
    </contour>
  </outline>
</glyph>
<glyph name="rra-tamil" format="2">
  <advance width="899.8275862068965"/>
  <unicode hex="0BB1"/>
  <note>
uni0BB1
</note>
  <anchor x="459.9310344827586" y="0.0" name="bottom"/>
  <anchor x="450.1034482758621" y="-201.20689655172413" name="nukta"/>
  <anchor x="432.1379310344828" y="556.4827586206897" name="top"/>
  <anchor x="467.0344827586207" y="556.4827586206897" name="vedic"/>
  <outline>
    <contour>
      <point x="192.20689655172413" y="-254.24137931034483" type="curve"/>
      <point x="192.20689655172413" y="-181.55172413793105"/>
      <point x="213.58620689655172" y="-137.86206896551724"/>
      <point x="312.9310344827586" y="-137.86206896551724" type="curve" smooth="yes"/>
      <point x="431.62068965517244" y="-137.86206896551724" type="line" smooth="yes"/>
      <point x="674.1034482758621" y="-137.86206896551724"/>
      <point x="843.448275862069" y="-22.206896551724135"/>
      <point x="843.448275862069" y="240.93103448275863" type="curve" smooth="yes"/>
      <point x="843.448275862069" y="408.0"/>
      <point x="776.7586206896551" y="561.4827586206897"/>
      <point x="589.0" y="561.4827586206897" type="curve" smooth="yes"/>
      <point x="489.2758620689655" y="561.4827586206897"/>
      <point x="434.8965517241379" y="506.44827586206895"/>
      <point x="414.7931034482759" y="464.37931034482756" type="curve"/>
      <point x="400.13793103448273" y="502.7586206896552"/>
      <point x="358.1034482758621" y="560.4827586206897"/>
      <point x="268.44827586206895" y="560.4827586206897" type="curve" smooth="yes"/>
      <point x="180.58620689655172" y="560.4827586206897"/>
      <point x="113.58620689655173" y="505.1034482758621"/>
      <point x="113.58620689655173" y="398.3103448275862" type="curve" smooth="yes"/>
      <point x="113.58620689655173" y="0.0" type="line"/>
      <point x="177.06896551724137" y="0.0" type="line"/>
      <point x="177.06896551724137" y="395.82758620689657" type="line" smooth="yes"/>
      <point x="177.06896551724137" y="467.3448275862069"/>
      <point x="212.48275862068965" y="503.17241379310343"/>
      <point x="265.62068965517244" y="503.17241379310343" type="curve" smooth="yes"/>
      <point x="325.2413793103448" y="503.17241379310343"/>
      <point x="354.9655172413793" y="458.0"/>
      <point x="354.9655172413793" y="386.13793103448273" type="curve" smooth="yes"/>
      <point x="354.9655172413793" y="0.0" type="line"/>
      <point x="468.7241379310345" y="0.0" type="line"/>
      <point x="468.7241379310345" y="382.1034482758621" type="line" smooth="yes"/>
      <point x="468.7241379310345" y="460.3448275862069"/>
      <point x="518.5862068965517" y="504.17241379310343"/>
      <point x="583.0344827586207" y="504.17241379310343" type="curve" smooth="yes"/>
      <point x="661.6206896551724" y="504.17241379310343"/>
      <point x="726.6896551724138" y="445.3103448275862"/>
      <point x="726.6896551724138" y="248.9655172413793" type="curve" smooth="yes"/>
      <point x="726.6896551724138" y="12.620689655172415"/>
      <point x="606.1034482758621" y="-84.13793103448276"/>
      <point x="426.1034482758621" y="-84.13793103448276" type="curve" smooth="yes"/>
      <point x="270.37931034482756" y="-84.13793103448276" type="line" smooth="yes"/>
      <point x="176.86206896551724" y="-84.13793103448276"/>
      <point x="91.62068965517241" y="-103.79310344827586"/>
      <point x="91.62068965517241" y="-180.6551724137931" type="curve" smooth="yes"/>
      <point x="91.62068965517241" y="-232.68965517241378"/>
      <point x="133.31034482758622" y="-254.24137931034483"/>
    </contour>
  </outline>
</glyph>
<glyph name="la-tamil" format="2">
  <advance width="1083.2413793103449"/>
  <unicode hex="0BB2"/>
  <note>
uni0BB2
</note>
  <anchor x="541.6206896551724" y="0.0" name="bottom"/>
  <anchor x="541.6206896551724" y="0.0" name="nukta"/>
  <anchor x="570.9655172413793" y="556.4827586206897" name="top"/>
  <anchor x="538.6206896551724" y="556.4827586206897" name="vedic"/>
  <outline>
    <contour>
      <point x="283.9655172413793" y="-4.275862068965517" type="curve" smooth="yes"/>
      <point x="396.9310344827586" y="-4.275862068965517"/>
      <point x="470.3103448275862" y="62.206896551724135"/>
      <point x="470.3103448275862" y="152.75862068965517" type="curve" smooth="yes"/>
      <point x="470.3103448275862" y="243.3793103448276"/>
      <point x="411.2068965517241" y="309.2413793103448"/>
      <point x="311.6896551724138" y="309.2413793103448" type="curve" smooth="yes"/>
      <point x="210.27586206896552" y="309.2413793103448"/>
      <point x="131.0344827586207" y="235.6206896551724"/>
      <point x="122.37931034482759" y="119.03448275862068" type="curve"/>
      <point x="155.9655172413793" y="94.24137931034483" type="line"/>
      <point x="161.41379310344828" y="187.48275862068965"/>
      <point x="210.13793103448276" y="238.20689655172413"/>
      <point x="273.3103448275862" y="238.20689655172413" type="curve" smooth="yes"/>
      <point x="339.1034482758621" y="238.20689655172413"/>
      <point x="367.82758620689657" y="193.75862068965517"/>
      <point x="367.82758620689657" y="148.75862068965517" type="curve" smooth="yes"/>
      <point x="367.82758620689657" y="96.6896551724138"/>
      <point x="330.2068965517241" y="52.310344827586206"/>
      <point x="262.55172413793105" y="52.310344827586206" type="curve" smooth="yes"/>
      <point x="183.6551724137931" y="52.310344827586206"/>
      <point x="117.0" y="121.96551724137932"/>
      <point x="117.0" y="240.6551724137931" type="curve" smooth="yes"/>
      <point x="117.0" y="402.44827586206895"/>
      <point x="220.27586206896552" y="505.55172413793105"/>
      <point x="377.58620689655174" y="505.55172413793105" type="curve" smooth="yes"/>
      <point x="507.82758620689657" y="505.55172413793105"/>
      <point x="587.3793103448276" y="429.44827586206895"/>
      <point x="587.3793103448276" y="307.8620689655172" type="curve" smooth="yes"/>
      <point x="587.3793103448276" y="177.9655172413793" type="line" smooth="yes"/>
      <point x="587.3793103448276" y="61.86206896551724"/>
      <point x="670.9310344827586" y="-1.3793103448275865"/>
      <point x="781.8965517241379" y="-1.3793103448275865" type="curve" smooth="yes"/>
      <point x="929.0344827586207" y="-1.3793103448275865"/>
      <point x="1021.3448275862069" y="129.89655172413794"/>
      <point x="1021.3448275862069" y="285.3448275862069" type="curve" smooth="yes"/>
      <point x="1021.3448275862069" y="380.2413793103448"/>
      <point x="994.0689655172414" y="476.44827586206895"/>
      <point x="911.3793103448276" y="561.2068965517242" type="curve"/>
      <point x="870.7931034482758" y="524.4827586206897" type="line"/>
      <point x="941.1379310344828" y="454.51724137931035"/>
      <point x="964.8620689655172" y="373.86206896551727"/>
      <point x="964.8620689655172" y="289.2758620689655" type="curve" smooth="yes"/>
      <point x="964.8620689655172" y="164.93103448275863"/>
      <point x="895.1034482758621" y="58.172413793103445"/>
      <point x="798.9655172413793" y="58.172413793103445" type="curve" smooth="yes"/>
      <point x="732.5172413793103" y="58.172413793103445"/>
      <point x="700.8620689655172" y="94.82758620689656"/>
      <point x="700.8620689655172" y="174.20689655172413" type="curve" smooth="yes"/>
      <point x="700.8620689655172" y="309.17241379310343" type="line" smooth="yes"/>
      <point x="700.8620689655172" y="463.37931034482756"/>
      <point x="564.2758620689655" y="561.4827586206897"/>
      <point x="389.62068965517244" y="561.4827586206897" type="curve" smooth="yes"/>
      <point x="192.13793103448276" y="561.4827586206897"/>
      <point x="57.62068965517241" y="437.51724137931035"/>
      <point x="57.62068965517241" y="243.3793103448276" type="curve" smooth="yes"/>
      <point x="57.62068965517241" y="88.3103448275862"/>
      <point x="160.9310344827586" y="-4.275862068965517"/>
    </contour>
  </outline>
</glyph>
<glyph name="lla-tamil" format="2">
  <advance width="1281.4137931034484"/>
  <unicode hex="0BB3"/>
  <note>
uni0BB3
</note>
  <anchor x="706.4827586206897" y="0.0" name="bottom"/>
  <anchor x="1167.896551724138" y="556.4827586206897" name="imatra"/>
  <anchor x="706.4827586206897" y="0.0" name="nukta"/>
  <anchor x="706.4827586206897" y="556.4827586206897" name="top"/>
  <anchor x="659.9310344827586" y="556.4827586206897" name="vedic"/>
  <outline>
    <contour>
      <point x="283.2413793103448" y="-4.275862068965517" type="curve" smooth="yes"/>
      <point x="396.9310344827586" y="-4.275862068965517"/>
      <point x="470.3103448275862" y="62.206896551724135"/>
      <point x="470.3103448275862" y="152.75862068965517" type="curve" smooth="yes"/>
      <point x="470.3103448275862" y="243.3793103448276"/>
      <point x="411.2068965517241" y="309.2413793103448"/>
      <point x="311.6896551724138" y="309.2413793103448" type="curve" smooth="yes"/>
      <point x="209.55172413793105" y="309.2413793103448"/>
      <point x="130.31034482758622" y="235.6206896551724"/>
      <point x="121.65517241379311" y="119.03448275862068" type="curve"/>
      <point x="155.24137931034483" y="94.24137931034483" type="line"/>
      <point x="160.68965517241378" y="187.48275862068965"/>
      <point x="209.41379310344828" y="238.20689655172413"/>
      <point x="273.3103448275862" y="238.20689655172413" type="curve" smooth="yes"/>
      <point x="338.37931034482756" y="238.20689655172413"/>
      <point x="367.1034482758621" y="193.75862068965517"/>
      <point x="367.1034482758621" y="148.75862068965517" type="curve" smooth="yes"/>
      <point x="367.1034482758621" y="96.6896551724138"/>
      <point x="329.48275862068965" y="52.310344827586206"/>
      <point x="261.82758620689657" y="52.310344827586206" type="curve" smooth="yes"/>
      <point x="181.48275862068965" y="52.310344827586206"/>
      <point x="117.0" y="126.3103448275862"/>
      <point x="117.0" y="253.68965517241378" type="curve" smooth="yes"/>
      <point x="117.0" y="408.6551724137931"/>
      <point x="228.27586206896552" y="505.55172413793105"/>
      <point x="390.8965517241379" y="505.55172413793105" type="curve" smooth="yes"/>
      <point x="543.3793103448276" y="505.55172413793105"/>
      <point x="650.1034482758621" y="423.86206896551727"/>
      <point x="650.1034482758621" y="280.86206896551727" type="curve"/>
      <point x="707.4827586206897" y="287.3448275862069" type="line"/>
      <point x="697.7931034482758" y="464.37931034482756"/>
      <point x="568.6206896551724" y="561.4827586206897"/>
      <point x="386.86206896551727" y="561.4827586206897" type="curve" smooth="yes"/>
      <point x="195.79310344827587" y="561.4827586206897"/>
      <point x="57.62068965517241" y="444.3448275862069"/>
      <point x="57.62068965517241" y="254.9655172413793" type="curve" smooth="yes"/>
      <point x="57.62068965517241" y="92.65517241379311"/>
      <point x="157.31034482758622" y="-4.275862068965517"/>
    </contour>
    <contour>
      <point x="650.1034482758621" y="0.0" type="line"/>
      <point x="763.3103448275862" y="0.0" type="line"/>
      <point x="763.3103448275862" y="500.55172413793105" type="line"/>
      <point x="979.7241379310345" y="500.55172413793105" type="line"/>
      <point x="979.7241379310345" y="0.0" type="line"/>
      <point x="1092.2068965517242" y="0.0" type="line"/>
      <point x="1092.2068965517242" y="500.55172413793105" type="line"/>
      <point x="1262.9655172413793" y="500.55172413793105" type="line"/>
      <point x="1262.9655172413793" y="556.4827586206897" type="line"/>
      <point x="663.3793103448276" y="556.4827586206897" type="line"/>
      <point x="663.3793103448276" y="377.8965517241379" type="line"/>
      <point x="650.1034482758621" y="378.41379310344826" type="line"/>
    </contour>
  </outline>
</glyph>
<glyph name="llla-tamil" format="2">
  <advance width="938.0689655172414"/>
  <unicode hex="0BB4"/>
  <note>
uni0BB4
</note>
  <anchor x="468.8965517241379" y="0.0" name="bottom"/>
  <anchor x="468.8965517241379" y="-347.41379310344826" name="nukta"/>
  <anchor x="514.551724137931" y="556.4827586206897" name="top"/>
  <anchor x="485.62068965517244" y="556.4827586206897" name="vedic"/>
  <anchor x="822.7241379310345" y="556.4827586206897" name="imatra"/>
  <outline>
    <contour>
      <point x="321.2068965517241" y="-376.7931034482759" type="curve" smooth="yes"/>
      <point x="553.7241379310345" y="-376.7931034482759"/>
      <point x="562.8275862068965" y="-179.27586206896552"/>
      <point x="726.2068965517242" y="-179.27586206896552" type="curve" smooth="yes"/>
      <point x="799.0344827586207" y="-179.27586206896552" type="line"/>
      <point x="799.0344827586207" y="-121.96551724137932" type="line"/>
      <point x="710.551724137931" y="-121.96551724137932" type="line" smooth="yes"/>
      <point x="616.6551724137931" y="-121.96551724137932"/>
      <point x="566.2413793103449" y="-79.0"/>
      <point x="566.2413793103449" y="10.310344827586206" type="curve" smooth="yes"/>
      <point x="566.2413793103449" y="103.17241379310344" type="line"/>
      <point x="452.48275862068965" y="103.17241379310344" type="line"/>
      <point x="452.48275862068965" y="11.689655172413794" type="line" smooth="yes"/>
      <point x="452.48275862068965" y="-73.20689655172414"/>
      <point x="517.8275862068965" y="-136.20689655172413"/>
      <point x="597.0344827586207" y="-143.68965517241378" type="curve"/>
      <point x="597.0344827586207" y="-148.68965517241378" type="line"/>
      <point x="455.41379310344826" y="-159.68965517241378"/>
      <point x="438.3448275862069" y="-317.0344827586207"/>
      <point x="300.58620689655174" y="-317.0344827586207" type="curve" smooth="yes"/>
      <point x="229.13793103448276" y="-317.0344827586207"/>
      <point x="189.10344827586206" y="-273.41379310344826"/>
      <point x="189.10344827586206" y="-220.55172413793105" type="curve" smooth="yes"/>
      <point x="189.10344827586206" y="-167.55172413793105"/>
      <point x="227.48275862068965" y="-132.3793103448276"/>
      <point x="280.9310344827586" y="-132.3793103448276" type="curve" smooth="yes"/>
      <point x="313.6551724137931" y="-132.3793103448276"/>
      <point x="342.9310344827586" y="-144.6551724137931"/>
      <point x="367.9310344827586" y="-171.6551724137931" type="curve"/>
      <point x="402.48275862068965" y="-133.0" type="line"/>
      <point x="365.7586206896552" y="-92.27586206896552"/>
      <point x="322.6551724137931" y="-76.44827586206897"/>
      <point x="275.9310344827586" y="-76.44827586206897" type="curve" smooth="yes"/>
      <point x="193.0" y="-76.44827586206897"/>
      <point x="129.72413793103448" y="-135.72413793103448"/>
      <point x="129.72413793103448" y="-218.3793103448276" type="curve" smooth="yes"/>
      <point x="129.72413793103448" y="-315.2413793103448"/>
      <point x="212.3448275862069" y="-376.7931034482759"/>
    </contour>
    <component base="ma-tamil"/>
  </outline>
</glyph>
<glyph name="va-tamil" format="2">
  <advance width="1172.2068965517242"/>
  <unicode hex="0BB5"/>
  <note>
uni0BB5
</note>
  <anchor x="630.8965517241379" y="0.0" name="bottom"/>
  <anchor x="979.5172413793103" y="556.4827586206897" name="imatra"/>
  <anchor x="630.8965517241379" y="0.0" name="nukta"/>
  <anchor x="588.8620689655172" y="556.4827586206897" name="top"/>
  <anchor x="567.1034482758621" y="556.4827586206897" name="vedic"/>
  <outline>
    <contour>
      <point x="283.9655172413793" y="-4.275862068965517" type="curve" smooth="yes"/>
      <point x="396.9310344827586" y="-4.275862068965517"/>
      <point x="470.3103448275862" y="62.206896551724135"/>
      <point x="470.3103448275862" y="152.75862068965517" type="curve" smooth="yes"/>
      <point x="470.3103448275862" y="243.3793103448276"/>
      <point x="411.2068965517241" y="309.2413793103448"/>
      <point x="311.6896551724138" y="309.2413793103448" type="curve" smooth="yes"/>
      <point x="210.27586206896552" y="309.2413793103448"/>
      <point x="131.0344827586207" y="235.6206896551724"/>
      <point x="122.37931034482759" y="119.03448275862068" type="curve"/>
      <point x="155.9655172413793" y="94.24137931034483" type="line"/>
      <point x="161.41379310344828" y="187.48275862068965"/>
      <point x="210.13793103448276" y="238.20689655172413"/>
      <point x="273.3103448275862" y="238.20689655172413" type="curve" smooth="yes"/>
      <point x="339.1034482758621" y="238.20689655172413"/>
      <point x="367.82758620689657" y="193.75862068965517"/>
      <point x="367.82758620689657" y="148.75862068965517" type="curve" smooth="yes"/>
      <point x="367.82758620689657" y="96.6896551724138"/>
      <point x="330.2068965517241" y="52.310344827586206"/>
      <point x="262.55172413793105" y="52.310344827586206" type="curve" smooth="yes"/>
      <point x="183.6551724137931" y="52.310344827586206"/>
      <point x="117.0" y="121.96551724137932"/>
      <point x="117.0" y="240.6551724137931" type="curve" smooth="yes"/>
      <point x="117.0" y="399.13793103448273"/>
      <point x="224.82758620689654" y="505.55172413793105"/>
      <point x="404.55172413793105" y="505.55172413793105" type="curve" smooth="yes"/>
      <point x="554.3793103448276" y="505.55172413793105"/>
      <point x="663.8620689655172" y="403.37931034482756"/>
      <point x="663.8620689655172" y="258.6551724137931" type="curve" smooth="yes"/>
      <point x="663.8620689655172" y="158.27586206896552"/>
      <point x="627.0689655172414" y="86.3103448275862"/>
      <point x="579.551724137931" y="43.275862068965516" type="curve"/>
      <point x="598.1034482758621" y="0.0" type="line"/>
      <point x="1076.8620689655172" y="0.0" type="line"/>
      <point x="1076.8620689655172" y="556.4827586206897" type="line"/>
      <point x="962.8275862068965" y="556.4827586206897" type="line"/>
      <point x="962.8275862068965" y="55.93103448275862" type="line"/>
      <point x="681.5172413793103" y="55.93103448275862" type="line"/>
      <point x="732.7931034482758" y="104.72413793103448"/>
      <point x="775.0344827586207" y="175.31034482758622"/>
      <point x="775.0344827586207" y="266.51724137931035" type="curve" smooth="yes"/>
      <point x="775.0344827586207" y="440.17241379310343"/>
      <point x="620.8620689655172" y="561.4827586206897"/>
      <point x="418.6551724137931" y="561.4827586206897" type="curve" smooth="yes"/>
      <point x="198.58620689655172" y="561.4827586206897"/>
      <point x="57.62068965517241" y="434.2068965517241"/>
      <point x="57.62068965517241" y="243.3793103448276" type="curve" smooth="yes"/>
      <point x="57.62068965517241" y="88.3103448275862"/>
      <point x="160.9310344827586" y="-4.275862068965517"/>
    </contour>
  </outline>
</glyph>
<glyph name="ssa-tamil" format="2">
  <advance width="1477.2758620689656"/>
  <unicode hex="0BB7"/>
  <note>
uni0BB7
</note>
  <anchor x="747.8275862068965" y="0.0" name="bottom"/>
  <anchor x="680.7931034482758" y="0.0" name="nukta"/>
  <anchor x="770.0344827586207" y="556.4827586206897" name="top"/>
  <anchor x="736.1379310344828" y="556.4827586206897" name="vedic"/>
  <outline>
    <contour>
      <point x="283.9655172413793" y="-4.275862068965517" type="curve" smooth="yes"/>
      <point x="396.9310344827586" y="-4.275862068965517"/>
      <point x="470.3103448275862" y="62.206896551724135"/>
      <point x="470.3103448275862" y="152.75862068965517" type="curve" smooth="yes"/>
      <point x="470.3103448275862" y="243.3793103448276"/>
      <point x="411.2068965517241" y="309.2413793103448"/>
      <point x="311.6896551724138" y="309.2413793103448" type="curve" smooth="yes"/>
      <point x="210.27586206896552" y="309.2413793103448"/>
      <point x="131.0344827586207" y="235.6206896551724"/>
      <point x="122.37931034482759" y="119.03448275862068" type="curve"/>
      <point x="155.9655172413793" y="94.24137931034483" type="line"/>
      <point x="161.41379310344828" y="187.48275862068965"/>
      <point x="210.13793103448276" y="238.20689655172413"/>
      <point x="273.3103448275862" y="238.20689655172413" type="curve" smooth="yes"/>
      <point x="339.1034482758621" y="238.20689655172413"/>
      <point x="367.82758620689657" y="193.75862068965517"/>
      <point x="367.82758620689657" y="148.75862068965517" type="curve" smooth="yes"/>
      <point x="367.82758620689657" y="96.6896551724138"/>
      <point x="330.2068965517241" y="52.310344827586206"/>
      <point x="262.55172413793105" y="52.310344827586206" type="curve" smooth="yes"/>
      <point x="183.6551724137931" y="52.310344827586206"/>
      <point x="117.0" y="121.96551724137932"/>
      <point x="117.0" y="240.6551724137931" type="curve" smooth="yes"/>
      <point x="117.0" y="399.13793103448273"/>
      <point x="224.82758620689654" y="505.55172413793105"/>
      <point x="404.55172413793105" y="505.55172413793105" type="curve" smooth="yes"/>
      <point x="554.3793103448276" y="505.55172413793105"/>
      <point x="663.8620689655172" y="403.37931034482756"/>
      <point x="663.8620689655172" y="258.6551724137931" type="curve" smooth="yes"/>
      <point x="663.8620689655172" y="158.27586206896552"/>
      <point x="627.0689655172414" y="86.3103448275862"/>
      <point x="579.551724137931" y="43.275862068965516" type="curve"/>
      <point x="598.1034482758621" y="0.0" type="line"/>
      <point x="1415.3793103448277" y="0.0" type="line"/>
      <point x="1415.3793103448277" y="342.2413793103448" type="line"/>
      <point x="1300.896551724138" y="288.2068965517241" type="line"/>
      <point x="1300.896551724138" y="55.93103448275862" type="line"/>
      <point x="681.5172413793103" y="55.93103448275862" type="line"/>
      <point x="732.7931034482758" y="104.72413793103448"/>
      <point x="775.0344827586207" y="175.31034482758622"/>
      <point x="775.0344827586207" y="266.51724137931035" type="curve" smooth="yes"/>
      <point x="775.0344827586207" y="440.17241379310343"/>
      <point x="620.8620689655172" y="561.4827586206897"/>
      <point x="418.6551724137931" y="561.4827586206897" type="curve" smooth="yes"/>
      <point x="198.58620689655172" y="561.4827586206897"/>
      <point x="57.62068965517241" y="434.2068965517241"/>
      <point x="57.62068965517241" y="243.3793103448276" type="curve" smooth="yes"/>
      <point x="57.62068965517241" y="88.3103448275862"/>
      <point x="160.9310344827586" y="-4.275862068965517"/>
    </contour>
    <contour>
      <point x="1050.4137931034484" y="-303.7241379310345" type="line"/>
      <point x="1163.6206896551723" y="-303.7241379310345" type="line"/>
      <point x="1163.6206896551723" y="427.86206896551727" type="line" smooth="yes"/>
      <point x="1163.6206896551723" y="509.0689655172414"/>
      <point x="1101.6206896551723" y="561.7586206896551"/>
      <point x="1018.1379310344828" y="561.7586206896551" type="curve" smooth="yes"/>
      <point x="917.9310344827586" y="561.7586206896551"/>
      <point x="859.3103448275862" y="502.7241379310345"/>
      <point x="859.3103448275862" y="410.58620689655174" type="curve" smooth="yes"/>
      <point x="859.3103448275862" y="283.13793103448273"/>
      <point x="957.0344827586207" y="209.44827586206895"/>
      <point x="1098.5172413793102" y="209.44827586206895" type="curve" smooth="yes"/>
      <point x="1208.0344827586207" y="209.44827586206895"/>
      <point x="1301.7586206896551" y="228.3448275862069"/>
      <point x="1415.3793103448277" y="335.86206896551727" type="curve"/>
      <point x="1415.3793103448277" y="347.6896551724138" type="line"/>
      <point x="1375.4827586206898" y="374.41379310344826" type="line"/>
      <point x="1288.655172413793" y="296.13793103448273"/>
      <point x="1217.0344827586207" y="262.17241379310343"/>
      <point x="1103.1379310344828" y="262.17241379310343" type="curve" smooth="yes"/>
      <point x="989.448275862069" y="262.17241379310343"/>
      <point x="915.9655172413793" y="301.2068965517241"/>
      <point x="915.9655172413793" y="409.58620689655174" type="curve" smooth="yes"/>
      <point x="915.9655172413793" y="460.6551724137931"/>
      <point x="943.0689655172414" y="497.55172413793105"/>
      <point x="990.1379310344828" y="497.55172413793105" type="curve" smooth="yes"/>
      <point x="1026.8620689655172" y="497.55172413793105"/>
      <point x="1050.4137931034484" y="476.82758620689657"/>
      <point x="1050.4137931034484" y="437.55172413793105" type="curve" smooth="yes"/>
    </contour>
  </outline>
</glyph>
<glyph name="sa-tamil" format="2">
  <advance width="1444.0"/>
  <unicode hex="0BB8"/>
  <note>
uni0BB8
</note>
  <anchor x="724.0344827586207" y="0.0" name="bottom"/>
  <anchor x="724.0344827586207" y="0.0" name="nukta"/>
  <anchor x="707.7931034482758" y="556.4827586206897" name="top"/>
  <anchor x="721.8620689655172" y="556.4827586206897" name="vedic"/>
  <outline>
    <contour>
      <point x="643.7931034482758" y="0.0" type="line"/>
      <point x="757.0" y="0.0" type="line"/>
      <point x="757.0" y="404.2758620689655" type="line" smooth="yes"/>
      <point x="757.0" y="466.0344827586207"/>
      <point x="788.2758620689655" y="505.1034482758621"/>
      <point x="852.7241379310345" y="505.1034482758621" type="curve" smooth="yes"/>
      <point x="909.8275862068965" y="505.1034482758621"/>
      <point x="940.3448275862069" y="471.2758620689655"/>
      <point x="940.3448275862069" y="417.2758620689655" type="curve" smooth="yes"/>
      <point x="940.3448275862069" y="181.58620689655172" type="line" smooth="yes"/>
      <point x="940.3448275862069" y="65.48275862068965"/>
      <point x="1023.8965517241379" y="-1.3793103448275865"/>
      <point x="1134.8620689655172" y="-1.3793103448275865" type="curve" smooth="yes"/>
      <point x="1289.9655172413793" y="-1.3793103448275865"/>
      <point x="1382.103448275862" y="129.6206896551724"/>
      <point x="1382.103448275862" y="285.3448275862069" type="curve" smooth="yes"/>
      <point x="1382.103448275862" y="380.2413793103448"/>
      <point x="1351.7586206896551" y="477.17241379310343"/>
      <point x="1267.6206896551723" y="561.2068965517242" type="curve"/>
      <point x="1222.8620689655172" y="522.0344827586207" type="line"/>
      <point x="1295.3793103448277" y="449.17241379310343"/>
      <point x="1317.8275862068965" y="373.58620689655174"/>
      <point x="1317.8275862068965" y="289.0" type="curve" smooth="yes"/>
      <point x="1317.8275862068965" y="164.3793103448276"/>
      <point x="1248.0689655172414" y="58.172413793103445"/>
      <point x="1151.4827586206898" y="58.172413793103445" type="curve" smooth="yes"/>
      <point x="1098.5172413793102" y="58.172413793103445"/>
      <point x="1054.103448275862" y="94.82758620689656"/>
      <point x="1054.103448275862" y="177.82758620689654" type="curve" smooth="yes"/>
      <point x="1054.103448275862" y="396.0344827586207" type="line" smooth="yes"/>
      <point x="1054.103448275862" y="497.17241379310343"/>
      <point x="976.4137931034483" y="561.4827586206897"/>
      <point x="869.4827586206897" y="561.4827586206897" type="curve" smooth="yes"/>
      <point x="758.1724137931035" y="561.4827586206897"/>
      <point x="696.3448275862069" y="496.44827586206895"/>
      <point x="696.3448275862069" y="409.17241379310343" type="curve" smooth="yes"/>
      <point x="696.3448275862069" y="338.0" type="line"/>
      <point x="643.7931034482758" y="338.0" type="line"/>
    </contour>
    <contour>
      <point x="289.0689655172414" y="-4.275862068965517" type="curve" smooth="yes"/>
      <point x="402.7586206896552" y="-4.275862068965517"/>
      <point x="475.0344827586207" y="62.206896551724135"/>
      <point x="475.0344827586207" y="152.75862068965517" type="curve" smooth="yes"/>
      <point x="475.0344827586207" y="243.3793103448276"/>
      <point x="416.7586206896552" y="309.2413793103448"/>
      <point x="317.2413793103448" y="309.2413793103448" type="curve" smooth="yes"/>
      <point x="208.75862068965517" y="309.2413793103448"/>
      <point x="133.93103448275863" y="229.27586206896552"/>
      <point x="126.93103448275862" y="118.75862068965517" type="curve"/>
      <point x="160.24137931034483" y="94.24137931034483" type="line"/>
      <point x="165.68965517241378" y="183.6206896551724"/>
      <point x="210.55172413793105" y="238.20689655172413"/>
      <point x="278.41379310344826" y="238.20689655172413" type="curve" smooth="yes"/>
      <point x="344.2068965517241" y="238.20689655172413"/>
      <point x="372.1034482758621" y="193.75862068965517"/>
      <point x="372.1034482758621" y="148.75862068965517" type="curve" smooth="yes"/>
      <point x="372.1034482758621" y="96.6896551724138"/>
      <point x="335.0344827586207" y="52.310344827586206"/>
      <point x="267.37931034482756" y="52.310344827586206" type="curve" smooth="yes"/>
      <point x="186.31034482758622" y="52.310344827586206"/>
      <point x="122.0" y="126.58620689655173"/>
      <point x="122.0" y="253.9655172413793" type="curve" smooth="yes"/>
      <point x="122.0" y="408.7241379310345"/>
      <point x="235.06896551724137" y="504.44827586206895"/>
      <point x="393.6551724137931" y="504.44827586206895" type="curve" smooth="yes"/>
      <point x="526.2413793103449" y="504.44827586206895"/>
      <point x="643.7931034482758" y="438.48275862068965"/>
      <point x="643.7931034482758" y="286.62068965517244" type="curve"/>
      <point x="710.1379310344828" y="290.2413793103448" type="line"/>
      <point x="706.5172413793103" y="469.17241379310343"/>
      <point x="566.2413793103449" y="561.7586206896551"/>
      <point x="396.41379310344826" y="561.7586206896551" type="curve" smooth="yes"/>
      <point x="201.6206896551724" y="561.7586206896551"/>
      <point x="61.89655172413793" y="446.1034482758621"/>
      <point x="61.89655172413793" y="254.9655172413793" type="curve" smooth="yes"/>
      <point x="61.89655172413793" y="92.65517241379311"/>
      <point x="162.86206896551724" y="-4.275862068965517"/>
    </contour>
  </outline>
</glyph>
<glyph name="ha-tamil" format="2">
  <advance width="1690.0344827586207"/>
  <unicode hex="0BB9"/>
  <note>
uni0BB9
</note>
  <anchor x="865.6551724137931" y="0.0" name="bottom"/>
  <anchor x="865.6551724137931" y="-151.17241379310346" name="nukta"/>
  <anchor x="865.9310344827586" y="556.4827586206897" name="top"/>
  <anchor x="845.2758620689655" y="556.4827586206897" name="vedic"/>
  <outline>
    <contour>
      <point x="229.27586206896552" y="-266.2758620689655" type="curve"/>
      <point x="229.27586206896552" y="-194.31034482758622"/>
      <point x="250.6551724137931" y="-151.17241379310346"/>
      <point x="350.0" y="-151.17241379310346" type="curve" smooth="yes"/>
      <point x="1114.9655172413793" y="-151.17241379310346" type="line" smooth="yes"/>
      <point x="1439.8275862068965" y="-151.17241379310346"/>
      <point x="1633.655172413793" y="-52.758620689655174"/>
      <point x="1633.655172413793" y="233.20689655172413" type="curve" smooth="yes"/>
      <point x="1633.655172413793" y="411.3448275862069"/>
      <point x="1561.103448275862" y="560.9310344827586"/>
      <point x="1382.3103448275863" y="560.9310344827586" type="curve" smooth="yes"/>
      <point x="1281.655172413793" y="560.9310344827586"/>
      <point x="1217.103448275862" y="506.17241379310343"/>
      <point x="1197.2758620689656" y="463.82758620689657" type="curve"/>
      <point x="1183.1724137931035" y="505.82758620689657"/>
      <point x="1141.4137931034484" y="559.9310344827586"/>
      <point x="1057.2068965517242" y="559.9310344827586" type="curve" smooth="yes"/>
      <point x="970.0689655172414" y="559.9310344827586"/>
      <point x="900.8965517241379" y="504.55172413793105"/>
      <point x="900.8965517241379" y="398.0344827586207" type="curve" smooth="yes"/>
      <point x="900.8965517241379" y="55.93103448275862" type="line"/>
      <point x="681.5172413793103" y="55.93103448275862" type="line"/>
      <point x="732.7931034482758" y="104.72413793103448"/>
      <point x="775.0344827586207" y="175.31034482758622"/>
      <point x="775.0344827586207" y="266.51724137931035" type="curve" smooth="yes"/>
      <point x="775.0344827586207" y="440.17241379310343"/>
      <point x="620.8620689655172" y="561.4827586206897"/>
      <point x="418.6551724137931" y="561.4827586206897" type="curve" smooth="yes"/>
      <point x="198.58620689655172" y="561.4827586206897"/>
      <point x="57.62068965517241" y="434.2068965517241"/>
      <point x="57.62068965517241" y="243.3793103448276" type="curve" smooth="yes"/>
      <point x="57.62068965517241" y="88.3103448275862"/>
      <point x="160.9310344827586" y="-4.275862068965517"/>
      <point x="283.9655172413793" y="-4.275862068965517" type="curve" smooth="yes"/>
      <point x="396.9310344827586" y="-4.275862068965517"/>
      <point x="470.3103448275862" y="62.206896551724135"/>
      <point x="470.3103448275862" y="152.75862068965517" type="curve" smooth="yes"/>
      <point x="470.3103448275862" y="243.3793103448276"/>
      <point x="411.2068965517241" y="309.2413793103448"/>
      <point x="311.6896551724138" y="309.2413793103448" type="curve" smooth="yes"/>
      <point x="210.27586206896552" y="309.2413793103448"/>
      <point x="131.0344827586207" y="235.6206896551724"/>
      <point x="122.37931034482759" y="119.03448275862068" type="curve"/>
      <point x="155.9655172413793" y="94.24137931034483" type="line"/>
      <point x="161.41379310344828" y="187.48275862068965"/>
      <point x="210.13793103448276" y="238.20689655172413"/>
      <point x="273.3103448275862" y="238.20689655172413" type="curve" smooth="yes"/>
      <point x="339.1034482758621" y="238.20689655172413"/>
      <point x="367.82758620689657" y="193.75862068965517"/>
      <point x="367.82758620689657" y="148.75862068965517" type="curve" smooth="yes"/>
      <point x="367.82758620689657" y="96.6896551724138"/>
      <point x="330.2068965517241" y="52.310344827586206"/>
      <point x="262.55172413793105" y="52.310344827586206" type="curve" smooth="yes"/>
      <point x="183.6551724137931" y="52.310344827586206"/>
      <point x="117.0" y="121.96551724137932"/>
      <point x="117.0" y="240.6551724137931" type="curve" smooth="yes"/>
      <point x="117.0" y="399.13793103448273"/>
      <point x="224.82758620689654" y="505.55172413793105"/>
      <point x="404.55172413793105" y="505.55172413793105" type="curve" smooth="yes"/>
      <point x="554.3793103448276" y="505.55172413793105"/>
      <point x="663.8620689655172" y="403.37931034482756"/>
      <point x="663.8620689655172" y="258.6551724137931" type="curve" smooth="yes"/>
      <point x="663.8620689655172" y="158.27586206896552"/>
      <point x="627.0689655172414" y="86.3103448275862"/>
      <point x="579.551724137931" y="43.275862068965516" type="curve"/>
      <point x="598.1034482758621" y="0.0" type="line"/>
      <point x="964.3793103448276" y="0.0" type="line"/>
      <point x="964.3793103448276" y="396.9310344827586" type="line" smooth="yes"/>
      <point x="964.3793103448276" y="468.17241379310343"/>
      <point x="998.6206896551724" y="504.0"/>
      <point x="1055.3793103448277" y="504.0" type="curve" smooth="yes"/>
      <point x="1114.7241379310344" y="504.0"/>
      <point x="1146.6206896551723" y="458.82758620689657"/>
      <point x="1146.6206896551723" y="386.9655172413793" type="curve" smooth="yes"/>
      <point x="1146.6206896551723" y="-0.2758620689655173" type="line"/>
      <point x="1260.655172413793" y="-0.2758620689655173" type="line"/>
      <point x="1260.655172413793" y="383.2068965517241" type="line" smooth="yes"/>
      <point x="1260.655172413793" y="461.17241379310343"/>
      <point x="1310.9655172413793" y="505.0"/>
      <point x="1376.344827586207" y="505.0" type="curve" smooth="yes"/>
      <point x="1449.5862068965516" y="505.0"/>
      <point x="1518.344827586207" y="443.58620689655174"/>
      <point x="1518.344827586207" y="246.9655172413793" type="curve" smooth="yes"/>
      <point x="1518.344827586207" y="-19.896551724137932"/>
      <point x="1391.2758620689656" y="-96.06896551724138"/>
      <point x="1100.344827586207" y="-96.06896551724138" type="curve" smooth="yes"/>
      <point x="307.44827586206895" y="-96.06896551724138" type="line" smooth="yes"/>
      <point x="213.93103448275863" y="-96.06896551724138"/>
      <point x="128.68965517241378" y="-115.17241379310344"/>
      <point x="128.68965517241378" y="-191.0344827586207" type="curve" smooth="yes"/>
      <point x="128.68965517241378" y="-243.3448275862069"/>
      <point x="165.75862068965517" y="-266.2758620689655"/>
    </contour>
  </outline>
</glyph>
<glyph name="aaMatra-tamil" format="2">
  <advance width="678.7586206896551"/>
  <unicode hex="0BBE"/>
  <note>
uni0BBE
</note>
  <anchor x="371.62068965517244" y="0.0" name="bottom"/>
  <anchor x="370.62068965517244" y="0.0" name="nukta"/>
  <anchor x="364.62068965517244" y="556.4827586206897" name="top"/>
  <anchor x="364.62068965517244" y="556.4827586206897" name="vedic"/>
  <outline>
    <contour>
      <point x="95.79310344827586" y="0.0" type="line"/>
      <point x="159.27586206896552" y="0.0" type="line"/>
      <point x="159.27586206896552" y="500.55172413793105" type="line"/>
      <point x="377.0689655172414" y="500.55172413793105" type="line"/>
      <point x="377.0689655172414" y="0.0" type="line"/>
      <point x="489.55172413793105" y="0.0" type="line"/>
      <point x="489.55172413793105" y="500.55172413793105" type="line"/>
      <point x="660.3103448275862" y="500.55172413793105" type="line"/>
      <point x="660.3103448275862" y="556.4827586206897" type="line"/>
      <point x="95.79310344827586" y="556.4827586206897" type="line"/>
    </contour>
  </outline>
</glyph>
<glyph name="iMatra-tamil" format="2">
  <advance width="235.86206896551724"/>
  <unicode hex="0BBF"/>
  <note>
uni0BBF
</note>
  <anchor x="-122.6896551724138" y="843.3793103448276" name="top"/>
  <outline>
    <contour>
      <point x="76.3103448275862" y="0.0" type="line"/>
      <point x="139.79310344827587" y="0.0" type="line"/>
      <point x="139.79310344827587" y="567.2413793103449" type="line" smooth="yes"/>
      <point x="139.79310344827587" y="735.448275862069"/>
      <point x="39.13793103448276" y="843.3793103448276"/>
      <point x="-122.6896551724138" y="843.3793103448276" type="curve" smooth="yes"/>
      <point x="-259.58620689655174" y="843.3793103448276"/>
      <point x="-349.44827586206895" y="762.7586206896551"/>
      <point x="-349.44827586206895" y="657.2413793103449" type="curve" smooth="yes"/>
      <point x="-349.44827586206895" y="566.0344827586207"/>
      <point x="-282.0" y="504.6896551724138"/>
      <point x="-193.93103448275863" y="504.6896551724138" type="curve" smooth="yes"/>
      <point x="-189.75862068965517" y="504.6896551724138" type="line"/>
      <point x="-189.75862068965517" y="556.4827586206897" type="line"/>
      <point x="-193.93103448275863" y="556.4827586206897" type="line" smooth="yes"/>
      <point x="-244.48275862068965" y="556.4827586206897"/>
      <point x="-281.1379310344828" y="588.6551724137931"/>
      <point x="-281.1379310344828" y="639.8275862068965" type="curve" smooth="yes"/>
      <point x="-281.1379310344828" y="707.6206896551724"/>
      <point x="-219.58620689655174" y="744.6206896551724"/>
      <point x="-130.79310344827587" y="744.6206896551724" type="curve" smooth="yes"/>
      <point x="2.1724137931034466" y="744.6206896551724"/>
      <point x="76.3103448275862" y="672.7586206896551"/>
      <point x="76.3103448275862" y="534.4827586206897" type="curve" smooth="yes"/>
    </contour>
  </outline>
</glyph>
<glyph name="iiMatra-tamil" format="2">
  <unicode hex="0BC0"/>
  <note>
uni0BC0
</note>
  <anchor x="0.0" y="556.4827586206897" name="_imatra"/>
  <anchor x="15.586206896551724" y="888.0689655172414" name="top"/>
  <outline>
    <contour>
      <point x="-26.758620689655174" y="504.17241379310343" type="curve" smooth="yes"/>
      <point x="0.0" y="504.17241379310343" type="line"/>
      <point x="0.0" y="556.4827586206897" type="line"/>
      <point x="-26.758620689655174" y="556.4827586206897" type="line" smooth="yes"/>
      <point x="-100.41379310344827" y="556.4827586206897"/>
      <point x="-157.17241379310346" y="605.6551724137931"/>
      <point x="-157.17241379310346" y="684.8275862068965" type="curve" smooth="yes"/>
      <point x="-157.17241379310346" y="771.6551724137931"/>
      <point x="-98.13793103448276" y="832.4137931034483"/>
      <point x="9.931034482758621" y="832.4137931034483" type="curve" smooth="yes"/>
      <point x="82.17241379310344" y="832.4137931034483"/>
      <point x="131.51724137931035" y="796.4137931034483"/>
      <point x="131.51724137931035" y="735.2413793103449" type="curve" smooth="yes"/>
      <point x="131.51724137931035" y="694.448275862069"/>
      <point x="100.44827586206897" y="663.1724137931035"/>
      <point x="56.275862068965516" y="663.1724137931035" type="curve" smooth="yes"/>
      <point x="-35.689655172413794" y="663.1724137931035"/>
      <point x="-56.310344827586206" y="762.8965517241379"/>
      <point x="-6.689655172413793" y="855.6896551724138" type="curve"/>
      <point x="-53.0" y="859.6896551724138" type="line"/>
      <point x="-128.10344827586206" y="734.5172413793103"/>
      <point x="-74.72413793103448" y="602.551724137931"/>
      <point x="72.20689655172414" y="602.551724137931" type="curve" smooth="yes"/>
      <point x="159.0344827586207" y="602.551724137931"/>
      <point x="221.13793103448276" y="656.0"/>
      <point x="221.13793103448276" y="728.5862068965517" type="curve" smooth="yes"/>
      <point x="221.13793103448276" y="825.1724137931035"/>
      <point x="139.3793103448276" y="888.0689655172414"/>
      <point x="15.586206896551724" y="888.0689655172414" type="curve" smooth="yes"/>
      <point x="-122.06896551724138" y="888.0689655172414"/>
      <point x="-217.93103448275863" y="805.5172413793103"/>
      <point x="-217.93103448275863" y="686.9310344827586" type="curve" smooth="yes"/>
      <point x="-217.93103448275863" y="576.8275862068965"/>
      <point x="-132.51724137931035" y="504.17241379310343"/>
    </contour>
  </outline>
</glyph>
<glyph name="uMatra-tamil" format="2">
  <advance width="565.3103448275862"/>
  <unicode hex="0BC1"/>
  <note>
uni0BC1
</note>
  <anchor x="241.75862068965517" y="556.4827586206897" name="top"/>
  <outline>
    <contour>
      <point x="352.2758620689655" y="216.75862068965517" type="curve" smooth="yes"/>
      <point x="457.2413793103448" y="216.75862068965517"/>
      <point x="546.8620689655172" y="276.55172413793105"/>
      <point x="546.8620689655172" y="389.0689655172414" type="curve" smooth="yes"/>
      <point x="546.8620689655172" y="556.4827586206897" type="line"/>
      <point x="-273.9310344827586" y="556.4827586206897" type="line"/>
      <point x="-223.82758620689654" y="500.55172413793105" type="line"/>
      <point x="433.6551724137931" y="500.55172413793105" type="line"/>
      <point x="433.6551724137931" y="378.6896551724138" type="line" smooth="yes"/>
      <point x="433.6551724137931" y="315.48275862068965"/>
      <point x="390.1034482758621" y="276.2758620689655"/>
      <point x="334.3448275862069" y="276.2758620689655" type="curve" smooth="yes"/>
      <point x="268.2068965517241" y="276.2758620689655"/>
      <point x="232.31034482758622" y="315.3448275862069"/>
      <point x="232.31034482758622" y="392.1034482758621" type="curve" smooth="yes"/>
      <point x="232.31034482758622" y="526.0344827586207" type="line"/>
      <point x="169.6551724137931" y="526.0344827586207" type="line"/>
      <point x="169.6551724137931" y="399.3103448275862" type="line" smooth="yes"/>
      <point x="169.6551724137931" y="279.37931034482756"/>
      <point x="242.89655172413794" y="216.75862068965517"/>
    </contour>
  </outline>
</glyph>
<glyph name="eMatra-tamil" format="2">
  <advance width="885.448275862069"/>
  <unicode hex="0BC6"/>
  <note>
uni0BC6
</note>
  <outline>
    <contour>
      <point x="353.1034482758621" y="-4.275862068965517" type="curve" smooth="yes"/>
      <point x="466.0689655172414" y="-4.275862068965517"/>
      <point x="539.1724137931035" y="62.206896551724135"/>
      <point x="539.1724137931035" y="152.75862068965517" type="curve" smooth="yes"/>
      <point x="539.1724137931035" y="248.93103448275863"/>
      <point x="480.0689655172414" y="314.7931034482759"/>
      <point x="376.9310344827586" y="314.7931034482759" type="curve" smooth="yes"/>
      <point x="269.9655172413793" y="314.7931034482759"/>
      <point x="187.10344827586206" y="235.6206896551724"/>
      <point x="182.3448275862069" y="100.93103448275862" type="curve"/>
      <point x="215.6551724137931" y="76.13793103448276" type="line"/>
      <point x="217.48275862068965" y="187.48275862068965"/>
      <point x="269.82758620689657" y="243.75862068965517"/>
      <point x="338.82758620689657" y="243.75862068965517" type="curve" smooth="yes"/>
      <point x="408.2413793103448" y="243.75862068965517"/>
      <point x="436.2413793103448" y="199.31034482758622"/>
      <point x="436.2413793103448" y="148.75862068965517" type="curve" smooth="yes"/>
      <point x="436.2413793103448" y="96.6896551724138"/>
      <point x="398.62068965517244" y="52.310344827586206"/>
      <point x="330.9655172413793" y="52.310344827586206" type="curve" smooth="yes"/>
      <point x="164.79310344827587" y="52.310344827586206"/>
      <point x="122.0" y="244.0344827586207"/>
      <point x="122.0" y="377.9310344827586" type="curve" smooth="yes"/>
      <point x="122.0" y="597.3448275862069"/>
      <point x="244.6206896551724" y="739.551724137931"/>
      <point x="451.7586206896552" y="739.551724137931" type="curve" smooth="yes"/>
      <point x="644.9655172413793" y="739.551724137931"/>
      <point x="725.8965517241379" y="646.1379310344828"/>
      <point x="725.8965517241379" y="432.48275862068965" type="curve" smooth="yes"/>
      <point x="725.8965517241379" y="0.0" type="line"/>
      <point x="789.3793103448276" y="0.0" type="line"/>
      <point x="789.3793103448276" y="448.7586206896552" type="line" smooth="yes"/>
      <point x="789.3793103448276" y="704.0689655172414"/>
      <point x="682.8275862068965" y="838.3793103448276"/>
      <point x="455.48275862068965" y="838.3793103448276" type="curve" smooth="yes"/>
      <point x="212.55172413793105" y="838.3793103448276"/>
      <point x="61.89655172413793" y="643.8965517241379"/>
      <point x="61.89655172413793" y="389.9310344827586" type="curve" smooth="yes"/>
      <point x="61.89655172413793" y="220.86206896551724"/>
      <point x="134.75862068965517" y="-4.275862068965517"/>
    </contour>
  </outline>
</glyph>
<glyph name="eeMatra-tamil" format="2">
  <advance width="660.7241379310345"/>
  <unicode hex="0BC7"/>
  <note>
uni0BC7
</note>
  <outline>
    <contour>
      <point x="419.1034482758621" y="-5.0" type="curve" smooth="yes"/>
      <point x="529.7586206896551" y="-5.0"/>
      <point x="608.1034482758621" y="57.62068965517241"/>
      <point x="608.1034482758621" y="152.75862068965517" type="curve" smooth="yes"/>
      <point x="608.1034482758621" y="253.27586206896552"/>
      <point x="547.551724137931" y="316.2413793103448"/>
      <point x="446.1379310344828" y="316.2413793103448" type="curve" smooth="yes"/>
      <point x="342.51724137931035" y="316.2413793103448"/>
      <point x="253.27586206896552" y="239.58620689655172"/>
      <point x="249.82758620689654" y="92.13793103448276" type="curve"/>
      <point x="283.86206896551727" y="70.24137931034483" type="line"/>
      <point x="286.82758620689657" y="196.9655172413793"/>
      <point x="343.1034482758621" y="245.20689655172413"/>
      <point x="410.6551724137931" y="245.20689655172413" type="curve" smooth="yes"/>
      <point x="476.44827586206895" y="245.20689655172413"/>
      <point x="505.17241379310343" y="200.75862068965517"/>
      <point x="505.17241379310343" y="148.75862068965517" type="curve" smooth="yes"/>
      <point x="505.17241379310343" y="92.65517241379311"/>
      <point x="463.6896551724138" y="52.310344827586206"/>
      <point x="398.2413793103448" y="52.310344827586206" type="curve" smooth="yes"/>
      <point x="271.82758620689657" y="52.310344827586206"/>
      <point x="122.0" y="180.79310344827587"/>
      <point x="122.0" y="416.6896551724138" type="curve" smooth="yes"/>
      <point x="122.0" y="653.0344827586207"/>
      <point x="271.82758620689657" y="780.7931034482758"/>
      <point x="398.2413793103448" y="780.7931034482758" type="curve" smooth="yes"/>
      <point x="463.6896551724138" y="780.7931034482758"/>
      <point x="505.17241379310343" y="740.448275862069"/>
      <point x="505.17241379310343" y="684.6206896551724" type="curve" smooth="yes"/>
      <point x="505.17241379310343" y="632.3448275862069"/>
      <point x="476.44827586206895" y="587.8965517241379"/>
      <point x="410.6551724137931" y="587.8965517241379" type="curve" smooth="yes"/>
      <point x="343.1034482758621" y="587.8965517241379"/>
      <point x="286.82758620689657" y="636.8620689655172"/>
      <point x="283.86206896551727" y="763.1379310344828" type="curve"/>
      <point x="249.82758620689654" y="741.9655172413793" type="line"/>
      <point x="253.27586206896552" y="593.7931034482758"/>
      <point x="342.51724137931035" y="517.5862068965517"/>
      <point x="446.1379310344828" y="517.5862068965517" type="curve" smooth="yes"/>
      <point x="547.551724137931" y="517.5862068965517"/>
      <point x="608.1034482758621" y="580.1034482758621"/>
      <point x="608.1034482758621" y="680.3448275862069" type="curve" smooth="yes"/>
      <point x="608.1034482758621" y="775.4827586206897"/>
      <point x="529.7586206896551" y="838.1034482758621"/>
      <point x="419.1034482758621" y="838.1034482758621" type="curve" smooth="yes"/>
      <point x="247.3793103448276" y="838.1034482758621"/>
      <point x="61.89655172413793" y="688.6896551724138"/>
      <point x="61.89655172413793" y="416.6896551724138" type="curve" smooth="yes"/>
      <point x="61.89655172413793" y="144.41379310344828"/>
      <point x="247.3793103448276" y="-5.0"/>
    </contour>
  </outline>
</glyph>
<glyph name="aiMatra-tamil" format="2">
  <advance width="1338.3793103448277"/>
  <unicode hex="0BC8"/>
  <note>
uni0BC8
</note>
  <outline>
    <contour>
      <point x="1084.5172413793102" y="-9.13793103448276" type="line"/>
      <point x="1218.448275862069" y="38.689655172413794"/>
      <point x="1281.7586206896551" y="142.44827586206895"/>
      <point x="1281.7586206896551" y="257.51724137931035" type="curve" smooth="yes"/>
      <point x="1281.7586206896551" y="447.55172413793105"/>
      <point x="1127.8275862068965" y="561.4827586206897"/>
      <point x="924.6896551724138" y="561.4827586206897" type="curve" smooth="yes"/>
      <point x="700.3448275862069" y="561.4827586206897"/>
      <point x="551.8275862068965" y="408.1034482758621"/>
      <point x="551.8275862068965" y="206.72413793103448" type="curve" smooth="yes"/>
      <point x="551.8275862068965" y="82.41379310344827"/>
      <point x="616.5862068965517" y="-5.275862068965517"/>
      <point x="733.0689655172414" y="-5.275862068965517" type="curve" smooth="yes"/>
      <point x="847.0" y="-5.275862068965517"/>
      <point x="920.551724137931" y="75.06896551724138"/>
      <point x="920.551724137931" y="196.75862068965517" type="curve" smooth="yes"/>
      <point x="920.551724137931" y="413.37931034482756"/>
      <point x="715.7241379310345" y="561.2068965517242"/>
      <point x="469.17241379310343" y="561.2068965517242" type="curve" smooth="yes"/>
      <point x="250.55172413793105" y="561.2068965517242"/>
      <point x="57.62068965517241" y="446.9310344827586"/>
      <point x="57.62068965517241" y="232.89655172413794" type="curve" smooth="yes"/>
      <point x="57.62068965517241" y="79.75862068965517"/>
      <point x="162.86206896551724" y="-4.551724137931035"/>
      <point x="284.2413793103448" y="-4.551724137931035" type="curve" smooth="yes"/>
      <point x="397.2068965517241" y="-4.551724137931035"/>
      <point x="470.3103448275862" y="61.6551724137931"/>
      <point x="470.3103448275862" y="152.48275862068965" type="curve" smooth="yes"/>
      <point x="470.3103448275862" y="242.82758620689654"/>
      <point x="411.2068965517241" y="308.6896551724138"/>
      <point x="311.9655172413793" y="308.6896551724138" type="curve" smooth="yes"/>
      <point x="208.89655172413794" y="308.6896551724138"/>
      <point x="127.72413793103448" y="231.48275862068965"/>
      <point x="122.65517241379311" y="118.48275862068965" type="curve"/>
      <point x="156.24137931034483" y="93.6896551724138" type="line"/>
      <point x="161.68965517241378" y="187.20689655172413"/>
      <point x="210.41379310344828" y="237.93103448275863"/>
      <point x="273.58620689655174" y="237.93103448275863" type="curve" smooth="yes"/>
      <point x="339.37931034482756" y="237.93103448275863"/>
      <point x="368.1034482758621" y="193.20689655172413"/>
      <point x="368.1034482758621" y="148.20689655172413" type="curve" smooth="yes"/>
      <point x="368.1034482758621" y="96.13793103448276"/>
      <point x="330.48275862068965" y="52.03448275862069"/>
      <point x="262.82758620689657" y="52.03448275862069" type="curve" smooth="yes"/>
      <point x="185.0344827586207" y="52.03448275862069"/>
      <point x="117.0" y="113.41379310344827"/>
      <point x="117.0" y="230.72413793103448" type="curve" smooth="yes"/>
      <point x="117.0" y="406.17241379310343"/>
      <point x="265.9655172413793" y="505.2758620689655"/>
      <point x="454.8965517241379" y="505.2758620689655" type="curve" smooth="yes"/>
      <point x="674.7586206896551" y="505.2758620689655"/>
      <point x="809.3103448275862" y="396.2413793103448"/>
      <point x="809.3103448275862" y="195.82758620689654" type="curve" smooth="yes"/>
      <point x="809.3103448275862" y="113.27586206896552"/>
      <point x="777.3103448275862" y="53.13793103448276"/>
      <point x="709.0" y="53.13793103448276" type="curve" smooth="yes"/>
      <point x="641.8620689655172" y="53.13793103448276"/>
      <point x="610.0344827586207" y="118.0"/>
      <point x="610.0344827586207" y="203.27586206896552" type="curve" smooth="yes"/>
      <point x="610.0344827586207" y="372.1034482758621"/>
      <point x="722.3793103448276" y="505.55172413793105"/>
      <point x="914.551724137931" y="505.55172413793105" type="curve" smooth="yes"/>
      <point x="1073.1724137931035" y="505.55172413793105"/>
      <point x="1171.6896551724137" y="403.7241379310345"/>
      <point x="1171.6896551724137" y="246.82758620689654" type="curve" smooth="yes"/>
      <point x="1171.6896551724137" y="163.0"/>
      <point x="1136.1379310344828" y="78.62068965517241"/>
      <point x="1061.4137931034484" y="30.689655172413794" type="curve"/>
    </contour>
  </outline>
</glyph>
<glyph name="halant-tamil" format="2">
  <unicode hex="0BCD"/>
  <note>
uni0BCD
</note>
  <anchor x="0.0" y="556.4827586206897" name="_top"/>
  <outline>
    <contour>
      <point x="0.0" y="637.551724137931" type="curve" smooth="yes"/>
      <point x="38.41379310344828" y="637.551724137931"/>
      <point x="69.0" y="668.8620689655172"/>
      <point x="69.0" y="705.2758620689655" type="curve" smooth="yes"/>
      <point x="69.0" y="741.4137931034483"/>
      <point x="38.41379310344828" y="772.7241379310345"/>
      <point x="0.0" y="772.7241379310345" type="curve" smooth="yes"/>
      <point x="-38.41379310344828" y="772.7241379310345"/>
      <point x="-69.0" y="741.4137931034483"/>
      <point x="-69.0" y="705.2758620689655" type="curve" smooth="yes"/>
      <point x="-69.0" y="668.8620689655172"/>
      <point x="-38.41379310344828" y="637.551724137931"/>
    </contour>
  </outline>
</glyph>
<glyph name="om-tamil" format="2">
  <advance width="1031.5862068965516"/>
  <unicode hex="0BD0"/>
  <note>
uni0BD0
</note>
  <outline>
    <contour>
      <point x="377.1034482758621" y="-391.3103448275862" type="curve" smooth="yes"/>
      <point x="659.4827586206897" y="-391.3103448275862"/>
      <point x="667.0344827586207" y="-150.41379310344828"/>
      <point x="804.8620689655172" y="-150.41379310344828" type="curve" smooth="yes"/>
      <point x="866.7586206896552" y="-150.41379310344828" type="line"/>
      <point x="866.7586206896552" y="-93.82758620689656" type="line"/>
      <point x="796.5862068965517" y="-93.82758620689656" type="line" smooth="yes"/>
      <point x="630.4137931034483" y="-93.82758620689656"/>
      <point x="514.3793103448276" y="79.0"/>
      <point x="625.8620689655172" y="214.3448275862069" type="curve"/>
      <point x="631.4137931034483" y="210.3448275862069" type="line"/>
      <point x="591.7931034482758" y="121.37931034482759"/>
      <point x="632.6206896551724" y="-0.8620689655172402"/>
      <point x="775.0" y="-0.8620689655172402" type="curve" smooth="yes"/>
      <point x="888.2413793103449" y="-0.8620689655172402"/>
      <point x="974.9655172413793" y="82.58620689655173"/>
      <point x="974.9655172413793" y="204.58620689655172" type="curve" smooth="yes"/>
      <point x="974.9655172413793" y="429.62068965517244"/>
      <point x="744.7241379310345" y="561.4827586206897"/>
      <point x="488.55172413793105" y="561.4827586206897" type="curve" smooth="yes"/>
      <point x="261.1034482758621" y="561.4827586206897"/>
      <point x="57.62068965517241" y="442.8965517241379"/>
      <point x="57.62068965517241" y="241.13793103448276" type="curve" smooth="yes"/>
      <point x="57.62068965517241" y="98.93103448275862"/>
      <point x="158.75862068965517" y="8.310344827586206"/>
      <point x="281.86206896551727" y="8.310344827586206" type="curve" smooth="yes"/>
      <point x="394.44827586206895" y="8.310344827586206"/>
      <point x="467.55172413793105" y="74.79310344827586"/>
      <point x="467.55172413793105" y="165.51724137931035" type="curve" smooth="yes"/>
      <point x="467.55172413793105" y="255.31034482758622"/>
      <point x="408.44827586206895" y="320.44827586206895"/>
      <point x="310.3103448275862" y="320.44827586206895" type="curve" smooth="yes"/>
      <point x="208.17241379310346" y="320.44827586206895"/>
      <point x="127.55172413793103" y="247.82758620689654"/>
      <point x="119.17241379310344" y="128.86206896551724" type="curve"/>
      <point x="152.48275862068965" y="104.06896551724138" type="line"/>
      <point x="157.93103448275863" y="198.68965517241378"/>
      <point x="208.0344827586207" y="250.13793103448276"/>
      <point x="271.9310344827586" y="250.13793103448276" type="curve" smooth="yes"/>
      <point x="335.8965517241379" y="250.13793103448276"/>
      <point x="364.3448275862069" y="205.68965517241378"/>
      <point x="364.3448275862069" y="161.24137931034483" type="curve" smooth="yes"/>
      <point x="364.3448275862069" y="110.0"/>
      <point x="326.7241379310345" y="65.62068965517241"/>
      <point x="260.44827586206895" y="65.62068965517241" type="curve" smooth="yes"/>
      <point x="182.20689655172413" y="65.62068965517241"/>
      <point x="117.0" y="131.10344827586206"/>
      <point x="117.0" y="238.9655172413793" type="curve" smooth="yes"/>
      <point x="117.0" y="404.3448275862069"/>
      <point x="296.37931034482756" y="507.48275862068965"/>
      <point x="490.7241379310345" y="507.48275862068965" type="curve" smooth="yes"/>
      <point x="697.8965517241379" y="507.48275862068965"/>
      <point x="863.9655172413793" y="408.0689655172414"/>
      <point x="863.9655172413793" y="219.82758620689654" type="curve" smooth="yes"/>
      <point x="863.9655172413793" y="130.20689655172413"/>
      <point x="825.9310344827586" y="55.724137931034484"/>
      <point x="753.448275862069" y="55.724137931034484" type="curve" smooth="yes"/>
      <point x="659.7586206896551" y="55.724137931034484"/>
      <point x="643.5172413793103" y="172.86206896551724"/>
      <point x="711.0344827586207" y="264.9655172413793" type="curve"/>
      <point x="653.3793103448276" y="309.51724137931035" type="line"/>
      <point x="474.9310344827586" y="188.3448275862069"/>
      <point x="504.7931034482759" y="-39.37931034482759"/>
      <point x="672.6551724137931" y="-115.0" type="curve"/>
      <point x="672.6551724137931" y="-120.0" type="line"/>
      <point x="562.5862068965517" y="-138.79310344827587"/>
      <point x="564.6896551724138" y="-325.7586206896552"/>
      <point x="334.55172413793105" y="-325.7586206896552" type="curve" smooth="yes"/>
      <point x="221.68965517241378" y="-325.7586206896552"/>
      <point x="156.3793103448276" y="-265.44827586206895"/>
      <point x="177.82758620689654" y="-163.3793103448276" type="curve"/>
      <point x="121.37931034482759" y="-151.10344827586206" type="line"/>
      <point x="88.55172413793103" y="-319.13793103448273"/>
      <point x="235.06896551724137" y="-391.3103448275862"/>
    </contour>
    <contour>
      <point x="236.31034482758622" y="-254.0344827586207" type="line"/>
      <point x="282.2413793103448" y="-254.0344827586207" type="line"/>
      <point x="282.2413793103448" y="-100.65517241379311" type="line"/>
      <point x="236.31034482758622" y="-100.65517241379311" type="line"/>
    </contour>
    <contour>
      <point x="255.31034482758622" y="-254.0344827586207" type="line"/>
      <point x="455.13793103448273" y="-254.0344827586207" type="line"/>
      <point x="455.13793103448273" y="-212.6551724137931" type="line"/>
      <point x="255.31034482758622" y="-212.6551724137931" type="line"/>
    </contour>
    <contour>
      <point x="334.62068965517244" y="-254.0344827586207" type="line"/>
      <point x="377.82758620689657" y="-254.0344827586207" type="line"/>
      <point x="377.82758620689657" y="-165.75862068965517" type="line" smooth="yes"/>
      <point x="377.82758620689657" y="-149.58620689655172"/>
      <point x="386.37931034482756" y="-138.75862068965517"/>
      <point x="405.37931034482756" y="-138.75862068965517" type="curve" smooth="yes"/>
      <point x="425.37931034482756" y="-138.75862068965517"/>
      <point x="432.9310344827586" y="-149.58620689655172"/>
      <point x="432.9310344827586" y="-165.75862068965517" type="curve" smooth="yes"/>
      <point x="432.9310344827586" y="-254.0344827586207" type="line"/>
      <point x="479.13793103448273" y="-254.0344827586207" type="line"/>
      <point x="479.13793103448273" y="-173.0344827586207" type="line" smooth="yes"/>
      <point x="479.13793103448273" y="-114.0344827586207"/>
      <point x="441.0344827586207" y="-98.65517241379311"/>
      <point x="405.37931034482756" y="-98.65517241379311" type="curve" smooth="yes"/>
      <point x="369.7241379310345" y="-98.65517241379311"/>
      <point x="334.62068965517244" y="-114.0344827586207"/>
      <point x="334.62068965517244" y="-173.0344827586207" type="curve" smooth="yes"/>
    </contour>
    <contour>
      <point x="354.37931034482756" y="-81.0" type="curve" smooth="yes"/>
      <point x="373.37931034482756" y="-81.0"/>
      <point x="388.6551724137931" y="-65.0"/>
      <point x="388.6551724137931" y="-48.0" type="curve" smooth="yes"/>
      <point x="388.6551724137931" y="-31.448275862068964"/>
      <point x="373.37931034482756" y="-15.724137931034482"/>
      <point x="354.37931034482756" y="-15.724137931034482" type="curve" smooth="yes"/>
      <point x="335.1034482758621" y="-15.724137931034482"/>
      <point x="320.1034482758621" y="-31.448275862068964"/>
      <point x="320.1034482758621" y="-48.0" type="curve" smooth="yes"/>
      <point x="320.1034482758621" y="-65.0"/>
      <point x="335.1034482758621" y="-81.0"/>
    </contour>
  </outline>
</glyph>
